<svg width="1156" height="528" xmlns="http://www.w3.org/2000/svg" xmlns:xlink="http://www.w3.org/1999/xlink" xml:space="preserve" overflow="hidden"><defs><filter id="fx0" x="-10%" y="-10%" width="120%" height="120%" filterUnits="userSpaceOnUse" primitiveUnits="userSpaceOnUse"><feComponentTransfer color-interpolation-filters="sRGB"><feFuncR type="discrete" tableValues="0 0"/><feFuncG type="discrete" tableValues="0 0"/><feFuncB type="discrete" tableValues="0 0"/><feFuncA type="linear" slope="0.4" intercept="0"/></feComponentTransfer><feGaussianBlur stdDeviation="6.11111 6.11111"/></filter><filter id="fx1" x="-10%" y="-10%" width="120%" height="120%" filterUnits="userSpaceOnUse" primitiveUnits="userSpaceOnUse"><feComponentTransfer color-interpolation-filters="sRGB"><feFuncR type="discrete" tableValues="0 0"/><feFuncG type="discrete" tableValues="0 0"/><feFuncB type="discrete" tableValues="0 0"/><feFuncA type="linear" slope="0.4" intercept="0"/></feComponentTransfer><feGaussianBlur stdDeviation="6.11111 6.11111"/></filter><clipPath id="clip2"><rect x="1449" y="1063" width="1156" height="528"/></clipPath><clipPath id="clip3"><rect x="70" y="59" width="880" height="148"/></clipPath><linearGradient x1="2586" y1="1313" x2="1468" y2="1313" gradientUnits="userSpaceOnUse" spreadMethod="reflect" id="fill4"><stop offset="0" stop-color="#262626"/><stop offset="0.04" stop-color="#272727"/><stop offset="0.08" stop-color="#292929"/><stop offset="0.12" stop-color="#2B2B2B"/><stop offset="0.16" stop-color="#2D2D2D"/><stop offset="0.2" stop-color="#2E2E2E"/><stop offset="0.24" stop-color="#303030"/><stop offset="0.28" stop-color="#313131"/><stop offset="0.32" stop-color="#333333"/><stop offset="0.36" stop-color="#343434"/><stop offset="0.4" stop-color="#363636"/><stop offset="0.44" stop-color="#373737"/><stop offset="0.48" stop-color="#383838"/><stop offset="0.52" stop-color="#393939"/><stop offset="0.56" stop-color="#3A3A3A"/><stop offset="0.6" stop-color="#3B3B3B"/><stop offset="0.64" stop-color="#3C3C3C"/><stop offset="0.68" stop-color="#3C3C3C"/><stop offset="0.72" stop-color="#3D3D3D"/><stop offset="0.76" stop-color="#3E3E3E"/><stop offset="0.8" stop-color="#3E3E3E"/><stop offset="0.84" stop-color="#3F3F3F"/><stop offset="0.88" stop-color="#3F3F3F"/><stop offset="0.92" stop-color="#3F3F3F"/><stop offset="0.96" stop-color="#3F3F3F"/><stop offset="1" stop-color="#404040"/></linearGradient></defs><g clip-path="url(#clip2)" transform="translate(-1449 -1063)"><g filter="url(#fx0)" transform="translate(1448 1062)"><g><path d="M20.0001 103.971C20.0001 57.4568 57.7069 19.75 104.221 19.75L1053.78 19.75C1100.29 19.75 1138 57.4568 1138 103.971L1138 425.529C1138 472.043 1100.29 509.75 1053.78 509.75L104.221 509.75C57.7069 509.75 20.0001 472.043 20.0001 425.529Z" fill="#FF0000" fill-rule="evenodd"/></g></g><g clip-path="url(#clip3)" filter="url(#fx1)" transform="translate(1519 1208)"><g><path d="M63.6475-65.7422C64.0771-62.985 64.292-60.1562 64.292-57.2559 64.292-56.6829 64.2741-55.9131 64.2383-54.9463 63.737-54.8389 63.361-54.7852 63.1103-54.7852 62.8955-54.7852 62.5911-54.821 62.1973-54.8926 60.6934-59.082 58.2406-62.3047 54.8389-64.5605 51.4372-66.8164 47.2298-67.9443 42.2168-67.9443 39.5671-67.9443 37.3291-67.64 35.5029-67.0312 32.2803-65.9212 29.4515-64.3905 27.0166-62.439 24.5817-60.4875 22.5228-58.16 20.8398-55.4565 19.1569-52.7531 17.8231-49.4767 16.8384-45.6274 15.8537-41.7782 15.3613-37.8483 15.3613-33.8379 15.3613-26.1751 16.5251-19.8462 18.8525-14.8511 21.18-9.85596 24.3669-6.29313 28.4131-4.1626 32.4593-2.03206 36.5413-0.966797 40.6592-0.966797L43.1836-1.02051C46.0482-1.37858 47.9997-1.71875 49.0381-2.04102 51.652-2.79297 53.8094-3.6792 55.5103-4.69971 57.2111-5.72021 58.8761-7.16146 60.5054-9.02344 62.1346-10.8854 63.5221-13.0518 64.668-15.5225L65.3125-15.7373C65.4915-15.7373 65.7601-15.6299 66.1182-15.415 66.0824-14.5557 66.0465-14.0006 66.0107-13.75 64.5068-7.69857 63.4147-3.56282 62.7344-1.34277 62.1615-1.19954 61.4453-0.9847 60.5859-0.698242 56.3965 0.734049 50.7926 1.4502 43.7744 1.4502 38.1169 1.4502 33.8826 1.06527 31.0718 0.29541 28.2609-0.474447 25.1994-1.67399 21.8872-3.30322 18.575-4.93245 15.6657-7.08984 13.1592-9.77539 10.6527-12.4609 8.62956-15.8537 7.08984-19.9536 5.55013-24.0535 4.78027-28.5205 4.78027-33.3545 4.78027-37.9378 5.389-41.9393 6.60644-45.3589 7.82389-48.7785 9.70378-52.2428 12.2461-55.7519 14.7884-59.2611 17.7873-62.1794 21.2427-64.5068 24.6981-66.8343 28.5384-68.4814 32.7637-69.4482 35.7357-70.0928 39.943-70.415 45.3857-70.415 49.3603-70.415 53.1022-69.8869 56.6113-68.8306 60.1204-67.7742 62.4658-66.7448 63.6475-65.7422ZM72.6888-66.5478 72.6888-67.7295C73.6914-68.0518 74.8014-68.3919 76.0189-68.75 77.8182-69.3229 80.4816-70.2002 84.0092-71.3818L86.5462-71.3818C86.5462-69.662 86.5462-68.6764 86.5462-68.4252 86.5462-39.005 86.4567-21.464 86.2777-15.8019 86.1702-12.469 86.1165-10.6952 86.1165-10.4803 86.1165-6.46713 86.2777-4.2275 86.5999-3.76144 87.0296-3.11635 88.3455-2.66834 90.5477-2.41741 92.7498-2.16648 94.0478-1.91569 94.4417-1.66504 94.7282-1.52181 94.8714-1.27116 94.8714-0.913086 94.8714-0.519206 94.7908-0.241699 94.6297-0.0805664 94.4686 0.0805664 94.1732 0.161133 93.7435 0.161133 93.4928 0.161133 91.6129 0.0998688 88.1038-0.0226593L81.0677-0.268555 72.0443 0.161133C71.4713 0.19694 71.0417 0.0867208 70.7552-0.169525 70.5404-0.353037 70.4329-0.610123 70.4329-0.940781 70.4329-1.30781 70.5493-1.57398 70.7821-1.73931 71.0148-1.90464 72.3039-2.18424 74.6492-2.57812 76.9946-2.972 78.3374-3.30322 78.6776-3.57178 79.0177-3.84033 79.2415-4.4401 79.349-5.37109 79.4922-6.66016 79.5638-10.2946 79.5638-16.2744L79.5101-28.6279 79.6712-41.4111 79.6175-54.1943 79.7786-60.4785C79.7786-61.7318 79.5817-62.6359 79.1878-63.1909 78.7939-63.7459 77.9525-64.292 76.6634-64.8291 74.7298-65.6169 73.4049-66.1898 72.6888-66.5478ZM102.731-66.0107C102.731-67.1924 103.188-68.2129 104.101-69.0723 105.014-69.9316 106.115-70.3613 107.404-70.3613 108.729-70.3613 109.893-69.8779 110.895-68.9111 111.898-67.9443 112.399-66.9059 112.399-65.7959 112.399-64.6859 111.898-63.6385 110.895-62.6538 109.893-61.6691 108.729-61.1768 107.404-61.1768 106.079-61.1768 104.969-61.6243 104.074-62.5195 103.179-63.4147 102.731-64.5784 102.731-66.0107ZM98.2194-38.1348 98.2731-39.7192C100.601-40.4018 101.854-40.7971 102.033-40.9051 103.322-41.4797 104.674-42.3599 106.088-43.5457 107.502-44.7316 108.693-46.061 109.66-47.5342 110.09-47.6058 110.43-47.6416 110.68-47.6416L111.325-47.5879C111.468-45.8691 111.54-44.6159 111.54-43.8281 111.54-43.6491 111.504-42.8434 111.432-41.4111L111.432-38.5644 111.486-23.0957 111.325-6.71387C111.289-5.389 111.504-4.46696 111.969-3.94775 112.435-3.42855 113.813-2.84668 116.105-2.20215 117.537-1.80827 118.612-1.4681 119.328-1.18164 119.435-0.93099 119.489-0.716146 119.489-0.537109 119.489-0.322266 119.399-0.0537109 119.22 0.268555 117.824 0.232747 116.034 0.143229 113.849 0 110.877-0.250651 108.908-0.375977 107.941-0.375977 107.476-0.375977 104.611-0.286458 99.3473-0.107422 98.2731-0.0716146 97.2347 0.0179036 96.2321 0.161133 96.053 0.161133 95.7666 0.107422 95.3727 0 95.1937-0.250651 95.1042-0.465495 95.1042-0.644531 95.1042-1.14583 95.4443-1.53971 96.1247-1.82617 96.2679-1.89779 98.0941-2.30901 101.603-3.05984 102.749-3.27413 103.501-3.63164 103.859-4.13238 104.468-4.88322 104.772-6.08108 104.772-7.72598 104.844-10.4787 104.88-18.0228 104.88-30.3584 104.88-32.8252 104.772-34.3627 104.557-34.9709 104.378-35.3994 103.904-35.8909 103.134-36.4454 102.364-36.9998 100.726-37.563 98.2194-38.1348ZM163.228-9.8291 163.281-6.33789C160.488-3.36589 157.731-1.28906 155.01-0.107422 152.288 1.07422 149.084 1.66504 145.395 1.66504 141.385 1.66504 137.769 0.617676 134.546-1.47705 131.323-3.57178 128.844-6.53483 127.107-10.3662 125.37-14.1976 124.502-17.9574 124.502-21.6455 124.502-25.6917 125.549-29.5142 127.644-33.1128 129.739-36.7114 132.514-39.397 135.969-41.1694 139.425-42.9419 143.766-43.8281 148.994-43.8281 154.007-43.8281 157.821-42.9687 160.435-41.25 161.903-40.2474 162.637-38.9583 162.637-37.3828 162.637-36.237 162.261-35.2881 161.509-34.5361 160.757-33.7842 159.79-33.4082 158.608-33.4082 156.818-33.4082 154.849-34.5182 152.7-36.7383 151.375-38.099 150.176-39.0389 149.102-39.5581 148.027-40.0773 146.828-40.3369 145.503-40.3369 142.316-40.3369 139.666-39.0299 137.554-36.416 134.617-32.6921 133.149-28.0192 133.149-22.3975 133.149-16.5967 134.653-11.9775 137.661-8.54004 140.669-5.10254 144.178-3.38379 148.188-3.38379 150.981-3.38379 153.461-3.84033 155.627-4.75342 157.794-5.6665 160.327-7.3584 163.228-9.8291ZM167.602-0.0537109 167.495-1.61133C167.781-1.82617 168.05-1.96045 168.301-2.01416 168.551-2.06787 169.455-2.1483 171.013-2.25544 172.571-2.36258 173.546-2.71128 173.94-3.30154 174.334-3.8918 174.531-6.33369 174.531-10.6272L174.639-31.8254 174.531-35.5818C174.531-35.9035 174.567-37.1019 174.639-39.1771 174.71-40.1433 174.746-41.3062 174.746-42.6658L174.531-52.0031 174.585-60.1604C174.585-62.1282 174.307-63.3894 173.752-63.9441 173.197-64.4989 171.237-65.0087 167.871-65.4736L167.871-66.1182C167.871-66.333 167.889-66.6374 167.925-67.0312 169.966-67.4609 171.774-67.998 173.35-68.6426 174.173-69.0006 176.268-70.1107 179.634-71.9726L181.299-71.9726C181.263-71.1491 181.245-70.6478 181.245-70.4687L181.245-65.7959 181.191-63.4863 181.352-59.2432 181.299-52.8516 181.352-42.2168 181.191-29.0039 181.191-24.9219C181.191-24.4206 181.209-23.7223 181.245-22.8271L181.836-22.7734C183.053-22.7734 184.289-23.221 185.542-24.1162 191.164-28.1266 194.691-30.8569 196.123-32.3071 197.555-33.7573 198.271-34.8047 198.271-35.4492 198.271-35.8431 198.039-36.3444 197.573-36.9531 196.499-37.526 195.299-37.9199 193.975-38.1348 193.581-38.2064 193.151-38.2959 192.685-38.4033 192.041-38.5824 191.504-38.7077 191.074-38.7793L190.967-39.3164C190.967-39.5671 191.056-39.9251 191.235-40.3906 196.893-40.6055 201.816-40.7129 206.006-40.7129 208.369-40.7129 210.893-40.6592 213.579-40.5518L213.579-39.8535C213.579-39.6029 213.489-39.2806 213.31-38.8867 212.773-38.7793 211.932-38.6182 210.786-38.4033 208.566-38.0469 206.883-37.5481 205.737-36.907 202.98-35.4461 200.133-33.3883 197.197-30.7336 195.443-29.1547 193.921-27.8273 192.632-26.7514L190.698-25.083C190.841-24.8324 191.074-24.528 191.396-24.1699 191.54-24.0267 191.826-23.7044 192.256-23.2031 192.685-22.7018 193.455-21.8603 194.565-20.6787 198.433-16.5967 201.297-13.4456 203.159-11.2256 203.768-10.5094 204.448-9.72168 205.2-8.8623 207.993-5.74707 209.622-4.01042 210.088-3.65234 211.09-3.00781 212.576-2.50651 214.546-2.14844 215.477-1.9694 216.282-1.80827 216.963-1.66504 217.106-1.23535 217.178-0.895182 217.178-0.644531L217.124-0.107422C214.582-0.322266 212.755-0.429687 211.645-0.429687L210.679-0.429687 195.747 0C195.174 0.0716146 194.78 0.107422 194.565 0.107422 194.207 0.107422 193.831 0.0358073 193.437-0.107422 193.33-0.39388 193.276-0.644531 193.276-0.859375L193.276-1.23535C193.491-1.55762 193.687-1.75456 193.865-1.82617 197.399-2.11263 199.451-2.34538 200.022-2.52441 200.343-2.59603 200.646-2.79297 200.932-3.11523 200.932-3.72396 200.414-4.70866 199.377-6.06934 198.341-7.43001 195.749-10.4199 191.604-15.0391 188.959-17.9753 187.252-19.6851 186.482-20.1685 185.712-20.6519 184.647-20.8936 183.286-20.8936L181.245-20.8936C181.102-19.6084 181.03-16.6627 181.03-12.0564 181.03-7.77186 181.388-5.02281 182.104-3.80928 182.498-3.13062 183.429-2.70205 184.897-2.52357 186.365-2.3451 187.314-2.07682 187.744-1.71875 188.031-1.50391 188.21-1.0026 188.281-0.214844 186.133-0.250651 184.324-0.268555 182.856-0.268555 180.493-0.268555 177.915-0.214844 175.122-0.107422 173.439-0.0358073 172.114 0 171.147 0 170.431 0 169.25-0.0179036 167.602-0.0537109ZM245.859 0.859375 245.913-0.322266C247.13-1.0026 248.545-1.43229 250.156-1.61133 252.698-1.93359 254.31-2.26495 254.99-2.6054 255.67-2.94585 256.154-3.42071 256.44-4.03 256.942-5.21276 257.192-6.41342 257.192-7.63199L257.085-11.7174 257.139-15.4805 257.031-19.8882C257.031-21.716 257.085-24.0007 257.192-26.7422 257.3-29.4837 257.353-30.9439 257.353-31.123L257.353-45.7986C257.353-48.1278 257.407-50.6452 257.515-53.3509 257.622-56.0566 257.676-57.9292 257.676-58.9687 257.676-62.0504 257.604-63.8422 257.461-64.344 257.318-64.8459 257.049-65.2042 256.655-65.4191 256.261-65.6339 254.972-65.8311 252.788-66.0107 251.105-66.154 249.941-66.2793 249.297-66.3867 249.118-66.7806 249.028-67.1029 249.028-67.3535 249.028-67.64 249.046-67.9801 249.082-68.374 249.941-68.4456 250.604-68.4814 251.069-68.4814L256.118-68.4277C259.699-68.4277 263.494-68.571 267.505-68.8574 269.474-69.0006 272.446-69.126 276.421-69.2334 276.492-68.9111 276.528-68.6068 276.528-68.3203 276.528-67.9622 276.448-67.6847 276.287-67.4878 276.125-67.2908 275.848-67.1566 275.454-67.085 270.763-66.6911 267.997-66.1092 267.156-65.3393 266.314-64.5695 265.893-62.609 265.893-59.458 265.893-53.6572 265.983-47.6774 266.162-41.5186L266.377-36.4697C266.556-36.3265 268.883-36.1475 273.359-35.9326 274.577-35.861 275.293-35.8252 275.508-35.8252L283.403-35.9326 288.613-35.7715 302.256-36.1995C303.939-36.2353 304.959-36.3066 305.317-36.4135 305.532-42.6227 305.64-48.6355 305.64-54.452 305.64-60.0541 305.514-63.3548 305.264-64.3541 305.12-64.9606 304.87-65.371 304.512-65.5852 304.297-65.6921 302.435-65.9774 298.926-66.4413 298.317-66.5129 297.744-66.6021 297.207-66.709 297.028-67.2601 296.938-67.8845 296.938-68.5821 298.156-68.7657 298.926-68.8574 299.248-68.8574L302.793-68.6661C306.051-68.5072 309.328-68.4277 312.622-68.4277 314.735-68.4277 318.244-68.6068 323.149-68.9648 323.114-68.2487 323.024-67.6042 322.881-67.0312 321.52-66.4941 319.891-66.154 317.993-66.0107 316.776-65.9391 315.755-65.7422 314.932-65.4199 314.251-64.9186 313.911-63.8981 313.911-62.3584 313.911-62.0003 313.929-61.6064 313.965-61.1768 314.001-59.8877 314.018-59.0462 314.018-58.6523L314.018-52.4756 314.072-48.6084 313.965-43.6133 314.018-34.2676 313.911-25.459C313.911-23.7044 313.965-20.9652 314.072-17.2412L314.018-9.99023C314.018-7.55534 314.233-5.81868 314.663-4.78027 314.878-4.27897 315.236-3.9209 315.737-3.70605L320.088-2.73926C322.236-2.20215 323.516-1.76351 323.928-1.42334 324.34-1.08317 324.546-0.680338 324.546-0.214844L324.385 0.429687 324.116 0.483398C323.937 0.483398 323.704 0.447591 323.418 0.375977 319.515-0.340169 315.415-0.698242 311.118-0.698242 307.752-0.698242 305.362-0.644531 303.948-0.537109 302.533-0.429687 299.588-0.0358073 295.112 0.644531 295.041 0.179036 295.005-0.161133 295.005-0.375977 295.005-0.626628 295.041-0.966797 295.112-1.39648 296.222-2.04102 297.977-2.48861 300.376-2.73926 302.166-2.91829 303.581-3.49121 304.619-4.45801 305.299-5.10254 305.64-6.05143 305.64-7.30469L305.586-15.0391C305.693-17.3665 305.747-18.6377 305.747-18.8525 305.747-21.8962 305.693-26.3363 305.586-32.1728 305.478-32.6741 305.281-32.9785 304.995-33.0859 304.028-33.4082 299.266-33.3366 290.708-32.8711 288.989-32.7637 287.7-32.71 286.841-32.71 285.981-32.71 284.182-32.7547 281.443-32.8442 278.704-32.9338 276.17-32.9785 273.843-32.9785 272.589-32.9785 271.533-32.9606 270.674-32.9248 269.027-32.889 268.114-32.8711 267.934-32.8711 267.111-32.8711 266.547-32.71 266.243-32.3877 265.938-32.0654 265.786-31.4746 265.786-30.6152L265.84-26.8555C265.84-26.2467 265.75-22.863 265.571-16.7041 265.535-15.4508 265.517-14.4124 265.517-13.5889 265.517-8.68327 265.697-5.4248 266.055-3.81348 266.234-3.06152 266.556-2.54232 267.021-2.25586 267.344-2.04102 268.74-1.66504 271.211-1.12793 272.858-0.769857 274.111-0.429687 274.971-0.107422L275.293 0.429687C275.293 0.608724 275.221 0.751953 275.078 0.859375 274.863 1.03841 274.559 1.12793 274.165 1.12793 273.878 1.12793 273.538 1.11898 273.144 1.10107 272.751 1.08317 271.981 1.05631 270.835 1.02051 269.009 0.9847 266.735 0.859375 264.014 0.644531 262.259 0.501302 260.701 0.429687 259.341 0.429687 257.049 0.429687 253.379 0.552495 248.33 0.798111 247.363 0.838954 246.54 0.859375 245.859 0.859375ZM369.949-28.3594 348.411-28.2024 344.329-28.2066C342.682-28.2066 340.999-28.1322 339.281-27.9834 338.958-26.9092 338.797-26.1751 338.797-25.7812L338.851-25.2441 338.851-24.707 338.797-22.0752C338.797-19.8909 339.486-17.2144 340.865-14.0454 342.244-10.8765 344.213-8.45947 346.773-6.79443 349.333-5.12939 352.529-4.24316 356.361-4.13574 358.402-4.24316 360.031-4.49381 361.248-4.88769 362.466-5.28158 364.184-6.19466 366.405-7.62695L370.272-10.7959 370.594-8.64746C370.594-8.39681 370.576-8.12825 370.54-7.8418 368.929-5.80078 366.888-4.01042 364.417-2.4707 361.947-0.93099 359.44 0.19694 356.898 0.913086 355.68 1.23535 353.675 1.39648 350.882 1.39648 348.34 1.39648 345.833 0.877279 343.363-0.161133 339.71-1.73665 336.837-4.27002 334.742-7.76123 332.647-11.2524 331.6-15.4867 331.6-20.4639 331.6-22.0394 331.895-24.0625 332.486-26.5332 333.077-29.0039 334.142-31.6357 335.682-34.4287 336.72-36.3265 337.991-37.8841 339.495-39.1016 341.644-40.8203 343.524-42.0199 345.135-42.7002 347.462-43.667 350.166-44.1504 353.245-44.1504 356.575-44.1504 359.297-43.5417 361.409-42.3242 364.274-40.7129 366.413-38.6361 367.828-36.0937 369.242-33.5514 369.949-31.224 369.949-29.1113ZM339.979-30.293 342.503-30.293C344.329-30.293 349.772-30.5794 358.831-31.1523 360.264-31.224 361.141-31.3672 361.463-31.582 362.108-32.2624 362.43-32.8711 362.43-33.4082 362.43-34.5182 362.072-35.7804 361.356-37.1948 360.64-38.6092 359.538-39.7013 358.052-40.4712 356.566-41.241 354.839-41.626 352.869-41.626 348.716-41.626 345.386-40.0684 342.879-36.9531 340.946-34.5898 339.979-32.3698 339.979-30.293ZM375.446 0.161133 375.231-0.537109C375.231-0.78776 375.392-1.16374 375.714-1.66504L378.883-2.30873 383.341-3.11272C383.699-3.29175 383.95-3.54212 384.093-3.86383 384.308-4.32821 384.416-5.70455 384.416-7.99286 384.416-20.1472 384.344-27.1628 384.201-29.0396 384.058-30.9164 383.735-32.105 383.234-32.6055 382.733-33.1059 381.444-33.4991 379.367-33.785 378.149-33.9641 377.183-34.1965 376.466-34.4824L376.681-36.1206C380.441-37.6642 382.965-38.9925 384.254-40.1053 386.045-41.7211 387.567-43.8393 388.82-46.46L390.646-46.4062C390.861-44.6159 390.968-40.6413 390.968-34.4824L390.915-33.5693C390.915-33.3545 390.95-33.0143 391.022-32.5488 392.383-35.0195 394.084-37.2933 396.125-39.3701L397.36-40.6055C397.861-41.1784 398.345-41.626 398.81-41.9482 401.317-43.4521 403.179-44.2041 404.396-44.2041 405.972-44.2041 407.261-43.6759 408.263-42.6196 409.266-41.5633 409.767-40.2653 409.767-38.7256 409.767-37.5081 409.409-36.5592 408.693-35.8789 407.726-34.9837 406.616-34.5361 405.363-34.5361 404.79-34.5361 403.662-34.8405 401.979-35.4492 400.296-36.0579 399.186-36.3623 398.649-36.3623 397.646-36.3623 396.948-36.2012 396.554-35.8789 395.552-35.0911 394.334-33.4798 392.902-31.0449 391.792-29.2187 391.237-27.5358 391.237-25.9961L391.505-17.1145 391.613-6.45538C391.72-5.2357 391.864-4.44626 392.043-4.08707 392.186-3.83586 392.544-3.53093 393.117-3.1723 396.984-2.84948 399.276-2.61617 399.992-2.47238 400.493-2.43657 400.869-2.40077 401.12-2.36496 402.659-2.32915 403.734-2.11375 404.342-1.71875 404.665-1.53971 404.826-1.27116 404.826-0.913086 404.826-0.698242 404.683-0.411784 404.396-0.0537109L398.434-0.161133 396.178-0.214844 392.902-0.161133 387.423-0.161133 384.469 0ZM452.449-28.3594 430.911-28.2024 426.829-28.2066C425.182-28.2066 423.499-28.1322 421.781-27.9834 421.458-26.9092 421.297-26.1751 421.297-25.7812L421.351-25.2441 421.351-24.707 421.297-22.0752C421.297-19.8909 421.986-17.2144 423.365-14.0454 424.744-10.8765 426.713-8.45947 429.273-6.79443 431.833-5.12939 435.029-4.24316 438.861-4.13574 440.902-4.24316 442.531-4.49381 443.748-4.88769 444.966-5.28158 446.684-6.19466 448.905-7.62695L452.772-10.7959 453.094-8.64746C453.094-8.39681 453.076-8.12825 453.04-7.8418 451.429-5.80078 449.388-4.01042 446.917-2.4707 444.447-0.93099 441.94 0.19694 439.398 0.913086 438.18 1.23535 436.175 1.39648 433.382 1.39648 430.84 1.39648 428.333 0.877279 425.863-0.161133 422.21-1.73665 419.337-4.27002 417.242-7.76123 415.147-11.2524 414.1-15.4867 414.1-20.4639 414.1-22.0394 414.395-24.0625 414.986-26.5332 415.577-29.0039 416.642-31.6357 418.182-34.4287 419.22-36.3265 420.491-37.8841 421.995-39.1016 424.144-40.8203 426.024-42.0199 427.635-42.7002 429.962-43.667 432.666-44.1504 435.745-44.1504 439.075-44.1504 441.797-43.5417 443.909-42.3242 446.774-40.7129 448.913-38.6361 450.328-36.0937 451.742-33.5514 452.449-31.224 452.449-29.1113ZM422.479-30.293 425.003-30.293C426.829-30.293 432.272-30.5794 441.331-31.1523 442.764-31.224 443.641-31.3672 443.963-31.582 444.608-32.2624 444.93-32.8711 444.93-33.4082 444.93-34.5182 444.572-35.7804 443.856-37.1948 443.14-38.6092 442.038-39.7013 440.552-40.4712 439.066-41.241 437.339-41.626 435.369-41.626 431.216-41.626 427.886-40.0684 425.379-36.9531 423.446-34.5898 422.479-32.3698 422.479-30.293ZM498.605-53.0664 500.27-53.0127 500.485-47.9102 500.378-41.3037C501.058-41.2679 501.488-41.25 501.667-41.25 502.598-41.25 504.37-41.3216 506.984-41.4648 508.667-41.5723 510.278-41.626 511.818-41.626 512.534-41.626 513.608-41.6081 515.041-41.5723 515.112-40.8561 515.148-40.2832 515.148-39.8535 515.148-39.388 515.041-38.654 514.826-37.6514L513.913-37.6514 505.587-37.3828 501.452-37.2754 500.485-37.168C500.198-36.2728 500.055-35.2344 500.055-34.0527L500.216-25.9961 500.109-11.8164C500.109-8.09245 500.592-5.62174 501.559-4.4043 502.49-3.15104 503.887-2.52441 505.749-2.52441 506.68-2.52441 508.434-2.81087 511.012-3.38379 511.8-3.56283 512.856-4.15365 514.181-5.15625L514.665-5.15625C514.987-5.15625 515.246-5.05778 515.443-4.86084 515.64-4.6639 515.739-4.4043 515.739-4.08203L515.685-3.70605C514.145-2.02311 512.382-0.796712 510.395-0.0268555 508.407 0.743001 505.767 1.12793 502.472 1.12793 500.145 1.12793 498.22 0.59082 496.698-0.483398 495.177-1.55762 494.201-2.82878 493.771-4.29687 493.341-5.76497 493.127-8.96973 493.127-13.9111L493.341-25.9961 493.288-31.7969 493.288-33.9453C493.288-34.9479 493.252-35.9505 493.18-36.9531L492.267-37.0068 487.863-36.8457 487.433-36.792C487.039-36.792 486.744-36.8815 486.547-37.0605 486.35-37.2396 486.252-37.4544 486.252-37.7051 486.252-38.1348 486.386-38.4839 486.654-38.7524 486.923-39.021 487.738-39.4417 489.098-40.0146 490.029-40.4085 491.112-41.1515 492.348-42.2436 493.583-43.3358 494.63-44.5443 495.49-45.8691 495.919-46.5853 496.528-47.946 497.316-49.9512 497.889-51.4193 498.319-52.4577 498.605-53.0664ZM519.248-21.5918C519.248-24.0267 519.758-26.6317 520.779-29.4067 521.799-32.1818 523.348-34.6704 525.425-36.8726 527.502-39.0747 529.704-40.7129 532.031-41.7871 535.29-43.291 539.264-44.043 543.955-44.043 550.651-44.043 556.246-41.7513 560.74-37.168 565.234-32.5846 567.48-27.0703 567.48-20.625 567.48-14.8958 565.126-9.78434 560.417-5.29053 555.709-0.796712 549.756 1.4502 542.559 1.4502 538.118 1.4502 533.929 0.286458 529.99-2.04102 527.054-3.79557 524.53-6.3916 522.417-9.8291 520.304-13.2666 519.248-17.1875 519.248-21.5918ZM543.014-0.644531C545.741-0.644531 548.368-1.37858 550.897-2.84668 553.425-4.31478 555.443-6.66911 556.949-9.90967 558.456-13.1502 559.209-16.901 559.209-21.1621 559.209-23.9551 558.626-27.1956 557.46-30.8838 556.295-34.5719 554.501-37.3381 552.08-39.1821 549.659-41.0262 546.816-41.9482 543.552-41.9482 541.185-41.9482 538.773-41.3932 536.316-40.2832 533.859-39.1732 531.779-37.0426 530.075-33.8916 528.371-30.7406 527.519-26.2646 527.519-20.4639 527.519-13.9469 528.999-9.01448 531.958-5.6665 534.917-2.31852 538.603-0.644531 543.014-0.644531ZM600.423-66.4941 600.423-68.1592C601.032-68.3024 601.515-68.3919 601.873-68.4277L606.922-68.7089C611.112-69.0843 615.802-69.3845 620.994-69.6094 623.071-69.681 626.348-69.7168 630.823-69.7168 636.911-69.7168 641.369-69.2692 644.198-68.374 648.315-67.0491 651.386-65.0529 653.409-62.3853 655.432-59.7176 656.444-56.7546 656.444-53.4961 656.444-48.1966 652.664-43.7386 645.106-40.1221L644.842-39.7192C648.709-38.6803 651.878-37.2291 654.349-35.3657 656.82-33.5023 658.717-31.227 660.042-28.5398 661.009-26.5693 661.492-23.9895 661.492-20.8004 661.492-15.4612 659.066-10.7044 654.215-6.53007 649.363-2.35573 642.676-0.268555 634.154-0.268555L626.151-0.268555 618.04 0C610.879 0.0716146 606.689 0.107422 605.472 0.107422 604.219 0.107422 602.983 0.0531514 601.766-0.0553894L601.766-0.661316C601.766-1.10163 601.855-1.41383 602.034-1.5979 602.249-1.81778 602.661-2.00129 603.27-2.14844 607.746-3.07775 610.279-3.71221 610.87-4.05182 611.461-4.39143 611.864-4.93665 612.078-5.68748 612.508-7.11754 612.723-10.7995 612.723-16.7335 612.723-17.2695 612.705-17.9487 612.669-18.7711 612.598-21.1663 612.562-22.5426 612.562-22.9002L612.562-28.4769C612.562-37.9138 612.454-46.1534 612.24-53.1956L612.186-63.9739 612.132-65.3142C609.088-65.7433 606.403-66.0116 604.075-66.119 602.572-66.1548 601.354-66.2798 600.423-66.4941ZM621.693-39.3701C623.487-39.012 625.371-38.833 627.344-38.833 635.095-38.833 640.351-40.5339 643.115-43.9355 645.878-47.3372 647.259-50.721 647.259-54.0869 647.259-55.5908 647.017-57.1216 646.532-58.6792 646.048-60.2368 645.187-61.6422 643.949-62.8955 642.711-64.1488 641.177-65.0797 639.347-65.6885 636.225-66.7269 633.032-67.2461 629.766-67.2461 626.716-67.2461 623.882-66.9059 621.263-66.2256 621.227-65.4736 621.209-64.9186 621.209-64.5605 621.209-64.2025 621.245-63.182 621.317-61.499 621.352-60.4248 621.37-59.3506 621.37-58.2764L621.209-51.7773 621.263-47.9102 621.639-40.3369ZM634.337-2.84668C637.888-3.09733 640.866-3.84928 643.269-5.10254 644.381-5.67546 645.699-6.70491 647.224-8.19092 648.748-9.67692 649.932-11.4583 650.775-13.5352 651.618-15.612 652.039-17.6172 652.039-19.5508 652.039-21.0189 651.743-22.8271 651.151-24.9756 650.559-27.124 649.555-29.0129 648.138-30.6421 646.721-32.2713 644.614-33.6141 641.816-34.6704 639.018-35.7267 635.934-36.2549 632.562-36.2549 626.033-36.2549 622.375-36.1296 621.585-35.8789 621.549-35.0553 621.531-34.4466 621.531-34.0527L621.585-32.0654 621.531-28.0371 621.531-23.4717C621.639-15.057 621.836-10.0798 622.123-8.54004 622.41-7.00032 623.388-5.67546 625.056-4.56543 626.724-3.4554 629.818-2.88249 634.337-2.84668ZM709.116-28.3594 687.578-28.2024 683.496-28.2066C681.849-28.2066 680.166-28.1322 678.447-27.9834 678.125-26.9092 677.964-26.1751 677.964-25.7812L678.018-25.2441 678.018-24.707 677.964-22.0752C677.964-19.8909 678.653-17.2144 680.032-14.0454 681.41-10.8765 683.38-8.45947 685.94-6.79443 688.5-5.12939 691.696-4.24316 695.527-4.13574 697.568-4.24316 699.198-4.49381 700.415-4.88769 701.632-5.28158 703.351-6.19466 705.571-7.62695L709.438-10.7959 709.761-8.64746C709.761-8.39681 709.743-8.12825 709.707-7.8418 708.096-5.80078 706.055-4.01042 703.584-2.4707 701.113-0.93099 698.607 0.19694 696.064 0.913086 694.847 1.23535 692.842 1.39648 690.049 1.39648 687.506 1.39648 685 0.877279 682.529-0.161133 678.877-1.73665 676.003-4.27002 673.909-7.76123 671.814-11.2524 670.767-15.4867 670.767-20.4639 670.767-22.0394 671.062-24.0625 671.653-26.5332 672.244-29.0039 673.309-31.6357 674.849-34.4287 675.887-36.3265 677.158-37.8841 678.662-39.1016 680.81-40.8203 682.69-42.0199 684.302-42.7002 686.629-43.667 689.333-44.1504 692.412-44.1504 695.742-44.1504 698.463-43.5417 700.576-42.3242 703.441-40.7129 705.58-38.6361 706.995-36.0937 708.409-33.5514 709.116-31.224 709.116-29.1113ZM679.145-30.293 681.67-30.293C683.496-30.293 688.939-30.5794 697.998-31.1523 699.43-31.224 700.307-31.3672 700.63-31.582 701.274-32.2624 701.597-32.8711 701.597-33.4082 701.597-34.5182 701.239-35.7804 700.522-37.1948 699.806-38.6092 698.705-39.7013 697.219-40.4712 695.733-41.241 694.005-41.626 692.036-41.626 687.882-41.626 684.552-40.0684 682.046-36.9531 680.112-34.5898 679.145-32.3698 679.145-30.293ZM726.912 3.54492C726.483 3.33008 725.104 2.73926 722.777 1.77246 720.055 0.0179037 718.336-1.28906 717.62-2.14844 716.904-3.00781 716.546-3.95671 716.546-4.99512 716.546-5.92611 716.815-6.67806 717.352-7.25098 718.14-8.07454 719.697-8.8623 722.025-9.61426 724.352-10.3662 726.268-11.1003 727.772-11.8164 727.306-12.1387 726.572-12.6042 725.57-13.2129 720.234-16.5072 717.567-21.0726 717.567-26.9092 717.567-31.7074 719.259-35.7625 722.642-39.0747 726.026-42.3869 730.368-44.043 735.667-44.043 738.066-44.043 740.268-43.7028 742.274-43.0225 743.419-42.6644 745.12-41.7692 747.376-40.3369 748.808-39.4417 749.65-38.9404 749.901-38.833 750.474-38.654 751.118-38.5644 751.834-38.5644 752.443-38.5644 753.92-38.7166 756.265-39.021 758.611-39.3254 759.998-39.4775 760.428-39.4775 761.252-39.4775 761.932-39.3164 762.469-38.9941 762.899-38.278 763.114-37.0784 763.114-35.3955 763.114-34.8226 762.961-34.3929 762.657-34.1064 762.353-33.82 761.914-33.6768 761.341-33.6768 760.338-33.6768 758.682-33.9901 756.373-34.6167 754.063-35.2433 752.658-35.5566 752.156-35.5566 751.977-35.5566 751.637-35.5208 751.136-35.4492 752.676-32.3698 753.446-29.5589 753.446-27.0166 753.446-24.4743 752.64-21.8424 751.029-19.1211 749.417-16.3997 747.197-14.3229 744.368-12.8906 741.54-11.4583 738.675-10.7422 735.775-10.7422 735.56-10.7422 734.951-10.7601 733.948-10.7959 730.654-10.7959 727.628-9.97233 724.871-8.32519 723.546-7.50163 722.884-6.73177 722.884-6.01562 722.884-5.26367 723.529-4.52962 724.818-3.81348 728.219-1.9873 734.665-0.930989 744.154-0.644531 748.271-0.501302 751.476 0.0895182 753.768 1.12793 756.059 2.16634 757.787 3.6971 758.951 5.72021 760.115 7.74333 760.697 9.8291 760.697 11.9775 760.697 14.8779 759.712 17.5635 757.742 20.0342 755.773 22.5049 752.783 24.5101 748.773 26.0498 744.762 27.5895 740.161 28.3594 734.969 28.3594 729.24 28.3594 724.818 27.6611 721.702 26.2646 718.587 24.8682 716.376 23.3464 715.069 21.6992 713.762 20.0521 713.109 18.4228 713.109 16.8115 713.109 15.415 713.825 13.6694 715.257 11.5747 716.689 9.47998 719.661 7.28678 724.173 4.99512 725.498 4.31478 726.411 3.83138 726.912 3.54492ZM724.764-27.124C724.764-23.9014 725.247-21.2069 726.214-19.0405 727.181-16.8742 728.506-15.2629 730.189-14.2065 731.872-13.1502 733.573-12.6221 735.291-12.6221 738.406-12.6221 740.994-13.8127 743.052-16.1938 745.111-18.575 746.141-22.2005 746.141-27.0703 746.141-31.9759 745.067-35.7088 742.918-38.269 740.77-40.8293 738.174-42.1094 735.13-42.1094 731.728-42.1094 729.15-40.8919 727.396-38.457 725.641-36.0221 724.764-32.2445 724.764-27.124ZM722.991 22.6123C726.25 25.1188 730.368 26.3721 735.345 26.3721 738.89 26.3721 742.426 25.8081 745.953 24.6802 749.48 23.5522 752.058 21.9409 753.687 19.8462 755.316 17.7515 756.131 15.7731 756.131 13.9111 756.131 12.7653 755.845 11.6284 755.272 10.5005 754.699 9.37256 753.92 8.44157 752.935 7.70752 751.951 6.97347 750.653 6.3916 749.041 5.96191 747.895 5.63965 746.266 5.4069 744.154 5.26367 738.138 4.79818 734.45 4.56543 733.089 4.56543 729.258 4.56543 725.838 5.85449 722.83 8.43262 720.503 10.4378 719.339 12.8369 719.339 15.6299 719.339 18.208 720.557 20.5355 722.991 22.6123ZM769.308-66.0107C769.308-67.1924 769.765-68.2129 770.678-69.0723 771.591-69.9316 772.692-70.3613 773.981-70.3613 775.306-70.3613 776.47-69.8779 777.472-68.9111 778.475-67.9443 778.976-66.9059 778.976-65.7959 778.976-64.6859 778.475-63.6385 777.472-62.6538 776.47-61.6691 775.306-61.1768 773.981-61.1768 772.656-61.1768 771.546-61.6243 770.651-62.5195 769.756-63.4147 769.308-64.5784 769.308-66.0107ZM764.796-38.1348 764.85-39.7192C767.178-40.4018 768.431-40.7971 768.61-40.9051 769.899-41.4797 771.251-42.3599 772.665-43.5457 774.079-44.7316 775.27-46.061 776.237-47.5342 776.667-47.6058 777.007-47.6416 777.257-47.6416L777.902-47.5879C778.045-45.8691 778.117-44.6159 778.117-43.8281 778.117-43.6491 778.081-42.8434 778.009-41.4111L778.009-38.5644 778.063-23.0957 777.902-6.71387C777.866-5.389 778.081-4.46696 778.546-3.94775 779.012-3.42855 780.391-2.84668 782.682-2.20215 784.115-1.80827 785.189-1.4681 785.905-1.18164 786.012-0.93099 786.066-0.716146 786.066-0.537109 786.066-0.322266 785.976-0.0537109 785.797 0.268555 784.401 0.232747 782.611 0.143229 780.426 0 777.454-0.250651 775.485-0.375977 774.518-0.375977 774.053-0.375977 771.188-0.286458 765.924-0.107422 764.85-0.0716146 763.812 0.0179036 762.809 0.161133 762.63 0.161133 762.344 0.107422 761.95 0 761.771-0.250651 761.681-0.465495 761.681-0.644531 761.681-1.14583 762.021-1.53971 762.702-1.82617 762.845-1.89779 764.671-2.30901 768.18-3.05984 769.326-3.27413 770.078-3.63164 770.436-4.13238 771.045-4.88322 771.349-6.08108 771.349-7.72598 771.421-10.4787 771.457-18.0228 771.457-30.3584 771.457-32.8252 771.349-34.3627 771.134-34.9709 770.955-35.3994 770.481-35.8909 769.711-36.4454 768.941-36.9998 767.303-37.563 764.796-38.1348ZM788.931-1.77246C789.826-2.02255 790.864-2.23656 792.046-2.41447 794.302-2.73618 795.653-3.11104 796.101-3.53905 796.549-3.96706 796.772-4.9484 796.772-6.48308L796.88-8.4108C796.916-9.12414 796.933-10.0342 796.933-11.1408L796.826-27.5747C796.826-29.7875 796.54-31.215 795.967-31.8573 795-32.8565 793.209-33.5525 790.596-33.9453L790.596-35.9058C793.209-36.6241 795.215-37.5579 796.611-38.7071 798.652-40.3229 800.371-42.5133 801.767-45.2783L803.594-45.2246C803.701-43.5361 803.755-42.3326 803.755-41.6142L803.755-38.0576 803.808-37.0874C804.238-37.375 804.739-37.7344 805.312-38.1658 807.461-39.7827 809.663-41.1033 811.919-42.1274 814.175-43.1516 816.18-43.8611 817.934-44.2561 819.044-44.5437 820.298-44.6875 821.694-44.6875 824.63-44.6875 827.155-43.8988 829.267-42.3213 831.38-40.7438 832.75-38.8884 833.376-36.7551 834.003-34.6217 834.316-30.3822 834.316-24.0365L834.316-15.9161C834.316-15.7012 834.289-14.9842 834.236-13.7651 834.182-12.546 834.155-11.1478 834.155-9.57062 834.155-7.06075 834.263-5.46537 834.477-4.78447 834.656-4.31841 835.122-3.85208 835.874-3.38547 839.311-2.91941 841.317-2.36384 841.89-1.71875L841.89-1.28906C841.89-0.93099 841.782-0.483398 841.567 0.0537109L840.547 0.0537109 833.457-0.0537109 826.474 0.107422C823.896 0.179036 821.515 0.161133 819.331 0.0537109L819.009-1.07422C819.009-1.28906 819.134-1.57552 819.385-1.93359 820.351-2.36384 821.712-2.65058 823.467-2.79381 824.505-2.86598 825.221-2.97368 825.615-3.11691 826.009-3.26014 826.492-3.54716 827.065-3.97797 827.495-4.83846 827.71-5.55544 827.71-6.12892 827.71-6.38013 827.674-6.88227 827.602-7.63534 827.495-9.28472 827.423-13.3905 827.388-19.9528L827.388-22.7499 827.495-27.0527C827.495-31.6785 826.564-34.8699 824.702-36.6267 822.84-38.384 820.351-39.2627 817.236-39.2627 814.837-39.2627 812.492-38.7345 810.2-37.6782 807.908-36.6219 805.688-35.0374 803.54-32.9248 803.468-31.2061 803.432-29.738 803.432-28.5205L803.594-16.6504C803.594-10.4557 803.683-6.66016 803.862-5.26367 803.934-4.69075 804.059-4.29687 804.238-4.08203 804.525-3.79557 805.098-3.56283 805.957-3.38379 806.816-3.20475 807.81-2.9541 808.938-2.63184 810.066-2.30957 810.809-2.11263 811.167-2.04102 811.883-1.86198 812.366-1.50391 812.617-0.966797L812.563 0.107422 806.924 0.107422 795.322-0.0537109C792.637-0.0179036 790.936 0 790.22 0L788.877 0 788.769-0.698242C788.769-0.948893 788.823-1.30697 788.931-1.77246Z" fill="#E46C0A" transform="matrix(1 0 0 1 86.3119 154)"/></g></g><path d="M1468 1152.22C1468 1105.71 1505.71 1068 1552.22 1068L2501.78 1068C2548.29 1068 2586 1105.71 2586 1152.22L2586 1473.78C2586 1520.29 2548.29 1558 2501.78 1558L1552.22 1558C1505.71 1558 1468 1520.29 1468 1473.78Z" fill="url(#fill4)" fill-rule="evenodd"/><text fill="#E46C0A" font-family="Garamond,Garamond_MSFontService,sans-serif" font-weight="400" font-size="110" transform="matrix(1 0 0 1 1605.31 1348)">Click Here to Begin</text></g></svg>