<svg width="2744" height="451" xmlns="http://www.w3.org/2000/svg" xmlns:xlink="http://www.w3.org/1999/xlink" xml:space="preserve" overflow="hidden"><defs><filter id="fx0" x="-10%" y="-10%" width="120%" height="120%" filterUnits="userSpaceOnUse" primitiveUnits="userSpaceOnUse"><feComponentTransfer color-interpolation-filters="sRGB"><feFuncR type="discrete" tableValues="0 0"/><feFuncG type="discrete" tableValues="0 0"/><feFuncB type="discrete" tableValues="0 0"/><feFuncA type="linear" slope="0.4" intercept="0"/></feComponentTransfer><feGaussianBlur stdDeviation="6.11111 6.11111"/></filter><filter id="fx1" x="-10%" y="-10%" width="120%" height="120%" filterUnits="userSpaceOnUse" primitiveUnits="userSpaceOnUse"><feComponentTransfer color-interpolation-filters="sRGB"><feFuncR type="discrete" tableValues="0 0"/><feFuncG type="discrete" tableValues="0 0"/><feFuncB type="discrete" tableValues="0 0"/><feFuncA type="linear" slope="0.4" intercept="0"/></feComponentTransfer><feGaussianBlur stdDeviation="3.69995 3.69995"/></filter><filter id="fx2" x="-10%" y="-10%" width="120%" height="120%" filterUnits="userSpaceOnUse" primitiveUnits="userSpaceOnUse"><feComponentTransfer color-interpolation-filters="sRGB"><feFuncR type="discrete" tableValues="0 0"/><feFuncG type="discrete" tableValues="0 0"/><feFuncB type="discrete" tableValues="0 0"/><feFuncA type="linear" slope="0.4" intercept="0"/></feComponentTransfer><feGaussianBlur stdDeviation="6.11111 6.11111"/></filter><filter id="fx3" x="-10%" y="-10%" width="120%" height="120%" filterUnits="userSpaceOnUse" primitiveUnits="userSpaceOnUse"><feComponentTransfer color-interpolation-filters="sRGB"><feFuncR type="discrete" tableValues="0 0"/><feFuncG type="discrete" tableValues="0 0"/><feFuncB type="discrete" tableValues="0 0"/><feFuncA type="linear" slope="0.4" intercept="0"/></feComponentTransfer><feGaussianBlur stdDeviation="3.69995 3.69995"/></filter><clipPath id="clip4"><rect x="278" y="84" width="2744" height="451"/></clipPath><clipPath id="clip5"><rect x="83" y="39" width="1528" height="227"/></clipPath><clipPath id="clip6"><rect x="0" y="0" width="1680" height="338"/></clipPath><clipPath id="clip7"><rect x="89" y="41" width="1479" height="184"/></clipPath><clipPath id="clip8"><rect x="0" y="0" width="1642" height="300"/></clipPath><radialGradient cx="3749040" cy="572192" r="3792454" fx="3749040" fy="572192" gradientUnits="userSpaceOnUse" spreadMethod="pad" id="fill9" gradientTransform="matrix(0.000360892 0 0 0.000360892 297 89)"><stop offset="0" stop-color="#404040"/><stop offset="0.016129" stop-color="#414141"/><stop offset="0.0322581" stop-color="#434343"/><stop offset="0.0483871" stop-color="#454545"/><stop offset="0.0645161" stop-color="#474747"/><stop offset="0.0806452" stop-color="#494949"/><stop offset="0.0967742" stop-color="#4A4A4A"/><stop offset="0.112903" stop-color="#4C4C4C"/><stop offset="0.129032" stop-color="#4E4E4E"/><stop offset="0.145161" stop-color="#505050"/><stop offset="0.16129" stop-color="#515151"/><stop offset="0.177419" stop-color="#535353"/><stop offset="0.193548" stop-color="#545454"/><stop offset="0.209677" stop-color="#565656"/><stop offset="0.225806" stop-color="#585858"/><stop offset="0.241935" stop-color="#595959"/><stop offset="0.258065" stop-color="#5B5B5B"/><stop offset="0.274194" stop-color="#5C5C5C"/><stop offset="0.290323" stop-color="#5D5D5D"/><stop offset="0.306452" stop-color="#5F5F5F"/><stop offset="0.322581" stop-color="#606060"/><stop offset="0.33871" stop-color="#616161"/><stop offset="0.354839" stop-color="#636363"/><stop offset="0.370968" stop-color="#646464"/><stop offset="0.387097" stop-color="#656565"/><stop offset="0.403226" stop-color="#676767"/><stop offset="0.419355" stop-color="#686868"/><stop offset="0.435484" stop-color="#696969"/><stop offset="0.451613" stop-color="#6A6A6A"/><stop offset="0.467742" stop-color="#6B6B6B"/><stop offset="0.483871" stop-color="#6C6C6C"/><stop offset="0.5" stop-color="#6D6D6D"/><stop offset="0.516129" stop-color="#6E6E6E"/><stop offset="0.532258" stop-color="#6F6F6F"/><stop offset="0.548387" stop-color="#707070"/><stop offset="0.564516" stop-color="#717171"/><stop offset="0.580645" stop-color="#727272"/><stop offset="0.596774" stop-color="#737373"/><stop offset="0.612903" stop-color="#747474"/><stop offset="0.629032" stop-color="#757575"/><stop offset="0.645161" stop-color="#757575"/><stop offset="0.66129" stop-color="#767676"/><stop offset="0.677419" stop-color="#777777"/><stop offset="0.693548" stop-color="#787878"/><stop offset="0.709677" stop-color="#787878"/><stop offset="0.725806" stop-color="#797979"/><stop offset="0.741935" stop-color="#7A7A7A"/><stop offset="0.758065" stop-color="#7A7A7A"/><stop offset="0.774194" stop-color="#7B7B7B"/><stop offset="0.790323" stop-color="#7B7B7B"/><stop offset="0.806452" stop-color="#7C7C7C"/><stop offset="0.822581" stop-color="#7C7C7C"/><stop offset="0.83871" stop-color="#7C7C7C"/><stop offset="0.854839" stop-color="#7D7D7D"/><stop offset="0.870968" stop-color="#7D7D7D"/><stop offset="0.887097" stop-color="#7D7D7D"/><stop offset="0.903226" stop-color="#7E7E7E"/><stop offset="0.919355" stop-color="#7E7E7E"/><stop offset="0.935484" stop-color="#7E7E7E"/><stop offset="0.951613" stop-color="#7E7E7E"/><stop offset="0.967742" stop-color="#7E7E7E"/><stop offset="0.983871" stop-color="#7E7E7E"/><stop offset="1" stop-color="#7F7F7F"/></radialGradient><clipPath id="clip10"><rect x="89" y="41" width="1479" height="184"/></clipPath></defs><g clip-path="url(#clip4)" transform="translate(-278 -84)"><g filter="url(#fx0)" transform="translate(277 83)"><g><rect x="20" y="19.75" width="2706" height="413" fill="#FF0000"/></g></g><g clip-path="url(#clip5)" filter="url(#fx2)" transform="translate(810 160)"><g clip-path="url(#clip6)"><g clip-path="url(#clip7)" filter="url(#fx1)" transform="translate(19 19)"><g clip-path="url(#clip8)"><path d="M24.1875 0 33.4375-9.25 34.375-9C34.875-8.91667 36.0833-8.875 38-8.875 42.625-8.875 46.0521-10.5208 48.2812-13.8125 50.5104-17.1042 52.5833-23.5417 54.5-33.125L64.4375-83.25 48.625-83.25C32.5833-83.25 24.5625-76.9167 24.5625-64.25 24.5625-62.75 24.75-60.8958 25.125-58.6875L12.125-52.625C13.875-64.875 19.1875-74.5833 28.0625-81.75 36.9375-88.9167 48.1042-92.5 61.5625-92.5L88.0625-92.5C100.021-92.5 107.937-93.2917 111.812-94.875 115.687-96.4583 118.312-99.9792 119.687-105.437L129.062-109.25C126.146-101.5 120.521-95.2292 112.187-90.4375 103.854-85.6458 94.3958-83.25 83.8125-83.25L77.5625-83.25 68.875-39.6875C67.3333-31.8542 65.0521-25.6771 62.0312-21.1562 59.0104-16.6354 54.2708-12.3125 47.8125-8.1875L71.9375-7.6875 63.25 1.5625ZM123.354 1.5625C117.896 1.5625 113.344-0.572917 109.698-4.84375 106.052-9.11458 104.229-14.4375 104.229-20.8125 104.229-32.8125 108.771-43.9062 117.854-54.0937 126.937-64.2812 136.833-69.375 147.542-69.375 153.333-69.375 158.104-67.2917 161.854-63.125 165.604-58.9583 167.479-53.6458 167.479-47.1875 167.479-34.7292 162.937-23.4896 153.854-13.4687 144.771-3.44792 134.604 1.5625 123.354 1.5625ZM130.479-3.875C136.646-3.875 142.073-7.84375 146.76-15.7812 151.448-23.7187 153.792-32.9375 153.792-43.4375 153.792-57.2292 149.583-64.125 141.167-64.125 135.208-64.125 129.844-60.0312 125.073-51.8437 120.302-43.6562 117.917-34.4375 117.917-24.1875 117.917-10.6458 122.104-3.875 130.479-3.875ZM194.583-63.25 180.271-63.25 184.583-67.875 195.458-67.875 199.021-85.5625 211.958-88.6875 207.833-67.875 231.396-67.875 226.271-62.375C220.896-62.9583 216.125-63.25 211.958-63.25L206.896-63.25 198.396-20.4375C197.521-16.0208 197.083-12.9167 197.083-11.125 197.083-7.83333 198.542-6.1875 201.458-6.1875 205.958-6.1875 212.104-9.52083 219.896-16.1875L218.771-10.4375C210.687-2.4375 202.917 1.5625 195.458 1.5625 188.375 1.5625 184.833-2.35417 184.833-10.1875 184.833-12.9792 185.292-16.6875 186.208-21.3125ZM286.043-33.9375 284.913-33.9375C280.21-23.4792 274.548-14.9479 267.929-8.34375 261.31-1.73958 255.107 1.5625 249.322 1.5625 240.538 1.5625 236.146-3.9375 236.146-14.9375 236.146-27.0625 240.979-38.9375 250.646-50.5625 260.646-62.6042 272.854-68.625 287.271-68.625 293.229-68.625 299.458-68.375 305.958-67.875L301.458-49.375 295.396-18.5C294.437-13.6667 293.958-10.5417 293.958-9.125 293.958-6.5 295.187-5.1875 297.646-5.1875 301.812-5.1875 308.021-9.77083 316.271-18.9375L315.146-13.125C306.004-3.33333 297.801 1.5625 290.537 1.5625 284.485 1.5625 281.458-1.58333 281.458-7.875 281.458-9.95833 281.961-13.5 282.966-18.5ZM291.069-58.9375C285.821-61.2708 280.635-62.4375 275.512-62.4375 267.931-62.4375 261.871-57.6458 257.33-48.0625 251.999-36.7292 249.333-26.5417 249.333-17.5 249.333-10.9583 251.249-7.6875 255.079-7.6875 258.66-7.6875 263.813-11.4479 270.537-18.9687 277.261-26.4896 283.163-35.0833 288.242-44.75ZM360.796-19.25 359.67-13.5C349.83-3.45833 341.365 1.5625 334.277 1.5625 328.356 1.5625 325.396-1.625 325.396-8 325.396-10.625 325.834-14.1458 326.709-18.5625L335.28-61.6875C338.282-76.7708 343.944-88.5104 352.264-96.9062 360.584-105.302 370.708-109.5 382.635-109.5 386.806-109.5 390.559-109.062 393.896-108.187L385.324-99.25C380.485-101.458 376.314-102.562 372.81-102.562 366.178-102.562 361.193-100.146 357.856-95.3125 354.519-90.4792 351.515-81.3333 348.846-67.875L339.023-18.5C338.063-13.7083 337.583-10.5833 337.583-9.125 337.583-6.5 338.814-5.1875 341.275-5.1875 344.07-5.1875 349.471-8.89583 357.48-16.3125 358.105-16.8958 359.211-17.875 360.796-19.25ZM441.896-42.8125 446.333-47.8125 452.958-47.8125 460.833-87.625C452.292-87.625 445.365-85.3229 440.052-80.7187 434.74-76.1146 432.083-70.1042 432.083-62.6875L432.146-61.3125 419.958-55.4375C421.042-68.2292 426.01-77.6042 434.865-83.5625 443.719-89.5208 457.083-92.5 474.958-92.5L511.021-92.5 505.396-74.8125 501.396-74.8125C501.937-76.4792 502.208-78.125 502.208-79.75 502.208-85.1667 493.687-87.875 476.646-87.875L473.958-87.875 466.021-47.8125 493.271-47.8125 487.083-41.4375C480.417-42.3542 474.083-42.8125 468.083-42.8125L465.021-42.8125 461.396-24.5C458.354-9.08333 452.469 3.22917 443.74 12.4375 435.01 21.6458 424.854 26.25 413.271 26.25 407.021 26.25 401.437 23.8958 396.521 19.1875L405.708 9.8125C409 16.6458 414.292 20.0625 421.583 20.0625 428.25 20.0625 433.49 17.0521 437.302 11.0312 441.115 5.01042 444.542-5.64583 447.583-20.9375L451.958-42.8125ZM526.687 1.5625C521.229 1.5625 516.677-0.572917 513.031-4.84375 509.385-9.11458 507.562-14.4375 507.562-20.8125 507.562-32.8125 512.104-43.9062 521.187-54.0937 530.271-64.2812 540.167-69.375 550.875-69.375 556.667-69.375 561.437-67.2917 565.187-63.125 568.937-58.9583 570.812-53.6458 570.812-47.1875 570.812-34.7292 566.271-23.4896 557.187-13.4687 548.104-3.44792 537.937 1.5625 526.687 1.5625ZM533.812-3.875C539.979-3.875 545.406-7.84375 550.094-15.7812 554.781-23.7187 557.125-32.9375 557.125-43.4375 557.125-57.2292 552.917-64.125 544.5-64.125 538.542-64.125 533.177-60.0312 528.406-51.8437 523.635-43.6562 521.25-34.4375 521.25-24.1875 521.25-10.6458 525.437-3.875 533.812-3.875ZM587.104 0.75 591.729-18.4814 597.792-49.0137C598.417-52.0937 598.729-54.7575 598.729-57.0049 598.729-60.585 597.479-62.375 594.979-62.375 590.562-62.375 584.25-57.6702 576.042-48.2607L577.167-53.8174C586.792-64.1891 595.146-69.375 602.229-69.375 608.229-69.375 611.229-65.9401 611.229-59.0703 611.229-56.0306 610.854-52.6582 610.104-48.9531L607.104-33.9014 607.917-33.9014C612.875-44.3284 618.74-52.8475 625.51-59.4585 632.281-66.0695 638.479-69.375 644.104-69.375 647.021-69.375 649.625-68.7233 651.917-67.4199L643.604-56.1279C641.146-57.751 639.062-58.5625 637.354-58.5625 629.229-58.5625 618.417-46.6377 604.917-22.7881L600.354 0.000976562ZM708.854-17.1875 707.917-12.3125C694.25-3.0625 683.042 1.5625 674.292 1.5625 668.25 1.5625 663.396-0.479167 659.729-4.5625 656.062-8.64583 654.229-14.0417 654.229-20.75 654.229-32.875 658.812-44.0104 667.979-54.1562 677.146-64.3021 687.229-69.375 698.229-69.375 703.062-69.375 707.875-68.3125 712.667-66.1875L708.479-50.125 704.604-50.125 704.792-51.0625C705.208-53.0208 705.417-54.4583 705.417-55.375 705.417-61.125 701.521-64 693.729-64 686.396-64 680.292-60.0833 675.417-52.25 670.542-44.4167 668.104-34.5833 668.104-22.75 668.104-11.4583 672.312-5.8125 680.729-5.8125 688.729-5.8125 698.104-9.60417 708.854-17.1875ZM778.875-17.125 777.937-12.3125C764.687-3.0625 753.396 1.5625 744.062 1.5625 738.146 1.5625 733.344-0.508626 729.656-4.65088 725.969-8.79313 724.125-14.153 724.125-20.7305 724.125-32.47 728.625-43.5124 737.625-53.8574 746.625-64.2025 756.229-69.375 766.437-69.375 770.146-69.375 773.146-68.1268 775.437-65.6304 777.729-63.1339 778.875-59.8887 778.875-55.8945 778.875-47.9062 774.792-41.0413 766.625-35.2998 758.458-29.5583 748.708-26.6875 737.375-26.6875L737.312-23.875C737.312-11.7083 741.771-5.625 750.687-5.625 758.396-5.625 767.792-9.45833 778.875-17.125ZM737.5-30.5C746.833-31.25 754.125-33.6562 759.375-37.7187 764.625-41.7812 767.25-47.0417 767.25-53.5 767.25-59.875 764.937-63.0625 760.312-63.0625 755.312-63.0625 750.479-59.7396 745.812-53.0937 741.146-46.4479 738.375-38.9167 737.5-30.5ZM847.469 0 856.719-9.25 857.656-9C858.156-8.91667 859.365-8.875 861.281-8.875 865.906-8.875 869.333-10.5208 871.562-13.8125 873.792-17.1042 875.865-23.5417 877.781-33.125L887.719-83.25 871.906-83.25C855.865-83.25 847.844-76.9167 847.844-64.25 847.844-62.75 848.031-60.8958 848.406-58.6875L835.406-52.625C837.156-64.875 842.469-74.5833 851.344-81.75 860.219-88.9167 871.385-92.5 884.844-92.5L911.344-92.5C923.302-92.5 931.219-93.2917 935.094-94.875 938.969-96.4583 941.594-99.9792 942.969-105.437L952.344-109.25C949.427-101.5 943.802-95.2292 935.469-90.4375 927.135-85.6458 917.677-83.25 907.094-83.25L900.844-83.25 892.156-39.6875C890.615-31.8542 888.333-25.6771 885.312-21.1562 882.292-16.6354 877.552-12.3125 871.094-8.1875L895.219-7.6875 886.531 1.5625ZM932.573 0.75 937.198-18.4814 943.26-49.0137C943.885-52.0937 944.198-54.7575 944.198-57.0049 944.198-60.585 942.948-62.375 940.448-62.375 936.031-62.375 929.719-57.6702 921.51-48.2607L922.635-53.8174C932.26-64.1891 940.615-69.375 947.698-69.375 953.698-69.375 956.698-65.9401 956.698-59.0703 956.698-56.0306 956.323-52.6582 955.573-48.9531L952.573-33.9014 953.385-33.9014C958.344-44.3284 964.208-52.8475 970.979-59.4585 977.75-66.0695 983.948-69.375 989.573-69.375 992.49-69.375 995.094-68.7233 997.385-67.4199L989.073-56.1279C986.615-57.751 984.531-58.5625 982.823-58.5625 974.698-58.5625 963.885-46.6377 950.385-22.7881L945.823 0.000976562ZM1048.6-33.9375 1047.47-33.9375C1042.76-23.4792 1037.1-14.9479 1030.48-8.34375 1023.86-1.73958 1017.66 1.5625 1011.87 1.5625 1003.09 1.5625 998.698-3.9375 998.698-14.9375 998.698-27.0625 1003.53-38.9375 1013.2-50.5625 1023.2-62.6042 1035.41-68.625 1049.82-68.625 1055.78-68.625 1062.01-68.375 1068.51-67.875L1064.01-49.375 1057.95-18.5C1056.99-13.6667 1056.51-10.5417 1056.51-9.125 1056.51-6.5 1057.74-5.1875 1060.2-5.1875 1064.36-5.1875 1070.57-9.77083 1078.82-18.9375L1077.7-13.125C1068.56-3.33333 1060.35 1.5625 1053.09 1.5625 1047.04 1.5625 1044.01-1.58333 1044.01-7.875 1044.01-9.95833 1044.51-13.5 1045.52-18.5ZM1053.62-58.9375C1048.37-61.2708 1043.19-62.4375 1038.06-62.4375 1030.48-62.4375 1024.42-57.6458 1019.88-48.0625 1014.55-36.7292 1011.89-26.5417 1011.89-17.5 1011.89-10.9583 1013.8-7.6875 1017.63-7.6875 1021.21-7.6875 1026.36-11.4479 1033.09-18.9687 1039.81-26.4896 1045.72-35.0833 1050.79-44.75ZM1128.45-18.9375 1127.32-13.125C1118.2-3.33333 1110.01 1.5625 1102.76 1.5625 1096.76 1.5625 1093.76-1.58333 1093.76-7.875 1093.76-10 1094.24-13.5 1095.2-18.375L1099.51-40.125C1100.68-46.2917 1101.26-50.3958 1101.26-52.4375 1101.26-55.9375 1099.91-57.6875 1097.2-57.6875 1095.32-57.6875 1091.97-56.9792 1087.14-55.5625L1087.89-59.375 1118.45-69.375 1113.7-49.375 1107.57-18.5C1106.61-13.6667 1106.14-10.5833 1106.14-9.25 1106.14-6.54167 1107.36-5.1875 1109.82-5.1875 1113.95-5.1875 1120.16-9.77083 1128.45-18.9375ZM1105.51-80.25 1109.7-88.75 1127.32-100.25 1121.95-88.75ZM1138.01 0.75 1142.64-18.5 1148.76-49.375C1149.72-54.1667 1150.2-57.2917 1150.2-58.75 1150.2-61.3333 1148.97-62.625 1146.51-62.625 1142.43-62.625 1136.22-58.0459 1127.89-48.8877L1129.01-54.6309C1138.09-64.4603 1146.28-69.375 1153.57-69.375 1159.57-69.375 1162.57-66.25 1162.57-60 1162.57-57.875 1162.09-54.3333 1161.14-49.375L1158.07-33.9375 1159.01-33.9375C1164.22-44.6042 1170.1-53.1771 1176.67-59.6562 1183.23-66.1354 1189.34-69.375 1195.01-69.375 1201.84-69.375 1205.26-65.5833 1205.26-58 1205.26-55.5417 1204.91-52.5417 1204.2-49L1198.14-18.5C1197.18-13.6667 1196.7-10.5417 1196.7-9.125 1196.7-6.5 1197.93-5.1875 1200.39-5.1875 1204.55-5.1875 1210.78-9.76562 1219.07-18.9219L1217.89-13.1162C1208.8-3.3304 1200.61 1.5625 1193.32 1.5625 1187.32 1.5625 1184.32-1.58008 1184.32-7.86523 1184.32-9.94661 1184.82-13.4847 1185.82-18.4795L1191.89-49.0732C1192.39-51.4463 1192.64-53.4443 1192.64-55.0674 1192.64-58.4391 1191.39-60.125 1188.89-60.125 1180.93-60.125 1169.89-47.5208 1155.76-22.3125L1151.2 0ZM1267.67-18.9375 1266.54-13.125C1257.42-3.33333 1249.23 1.5625 1241.98 1.5625 1235.98 1.5625 1232.98-1.58333 1232.98-7.875 1232.98-10 1233.46-13.5 1234.42-18.375L1238.73-40.125C1239.9-46.2917 1240.48-50.3958 1240.48-52.4375 1240.48-55.9375 1239.12-57.6875 1236.42-57.6875 1234.54-57.6875 1231.19-56.9792 1226.35-55.5625L1227.1-59.375 1257.67-69.375 1252.92-49.375 1246.79-18.5C1245.83-13.6667 1245.35-10.5833 1245.35-9.25 1245.35-6.54167 1246.58-5.1875 1249.04-5.1875 1253.17-5.1875 1259.38-9.77083 1267.67-18.9375ZM1244.73-80.25 1248.92-88.75 1266.54-100.25 1261.17-88.75ZM1277.23 0.75 1281.85-18.5 1287.98-49.375C1288.94-54.1667 1289.42-57.2917 1289.42-58.75 1289.42-61.3333 1288.19-62.625 1285.73-62.625 1281.65-62.625 1275.44-58.0459 1267.1-48.8877L1268.23-54.6309C1277.31-64.4603 1285.5-69.375 1292.79-69.375 1298.79-69.375 1301.79-66.25 1301.79-60 1301.79-57.875 1301.31-54.3333 1300.35-49.375L1297.29-33.9375 1298.23-33.9375C1303.44-44.6042 1309.32-53.1771 1315.89-59.6562 1322.45-66.1354 1328.56-69.375 1334.23-69.375 1341.06-69.375 1344.48-65.5833 1344.48-58 1344.48-55.5417 1344.12-52.5417 1343.42-49L1337.35-18.5C1336.4-13.6667 1335.92-10.5417 1335.92-9.125 1335.92-6.5 1337.15-5.1875 1339.6-5.1875 1343.77-5.1875 1350-9.76562 1358.29-18.9219L1357.1-13.1162C1348.02-3.3304 1339.83 1.5625 1332.54 1.5625 1326.54 1.5625 1323.54-1.58008 1323.54-7.86523 1323.54-9.94661 1324.04-13.4847 1325.04-18.4795L1331.1-49.0732C1331.6-51.4463 1331.85-53.4443 1331.85-55.0674 1331.85-58.4391 1330.6-60.125 1328.1-60.125 1320.15-60.125 1309.1-47.5208 1294.98-22.3125L1290.42 0ZM1370.95-1C1365.95-3.5 1363.45-8.52083 1363.45-16.0625 1363.45-28.3958 1368.45-40.3125 1378.45-51.8125 1388.16-63.0208 1400.22-68.625 1414.64-68.625 1417.39-68.625 1423.2-68.375 1432.07-67.875L1427.64-49.375 1424.7-34.875C1423.2-27.25 1422.18-21.625 1421.64-18 1419.34-3.20833 1417.04 7.05208 1414.73 12.7812 1412.42 18.5104 1408.32 24.125 1402.45 29.625 1393.82 37.625 1383.89 41.625 1372.64 41.625 1365.3 41.625 1359.34 40.1979 1354.76 37.3437 1350.18 34.4896 1347.89 30.7708 1347.89 26.1875 1347.89 17.0208 1355.57 7.95833 1370.95-1ZM1417.14-58.75C1412.14-61.2083 1407.16-62.4375 1402.2-62.4375 1396.66-62.4375 1391.97-59.9583 1388.14-55 1385.09-51.0833 1382.33-45.3021 1379.85-37.6562 1377.37-30.0104 1376.14-23.4792 1376.14-18.0625 1376.14-12.1875 1377.99-9.25 1381.7-9.25 1389.91-9.25 1400.8-21.1042 1414.39-44.8125ZM1412.2-33.9375 1411.2-33.9375C1406.78-24.1458 1401.49-16.2708 1395.32-10.3125 1389.16-4.35417 1382.68-0.854167 1375.89 0.1875 1364.97 7.72917 1359.51 14.7292 1359.51 21.1875 1359.51 25.3542 1361.54 28.9062 1365.6 31.8437 1369.67 34.7812 1374.59 36.25 1380.39 36.25 1387.84 36.25 1393.73 33.3437 1398.04 27.5312 1402.35 21.7187 1405.43 12.5417 1407.26 0Z" fill="#E46C0A" transform="matrix(1.02 0 0 1.02 -718.591 8)"/></g></g><path d="M24.1875 0 33.4375-9.25 34.375-9C34.875-8.91667 36.0833-8.875 38-8.875 42.625-8.875 46.0521-10.5208 48.2812-13.8125 50.5104-17.1042 52.5833-23.5417 54.5-33.125L64.4375-83.25 48.625-83.25C32.5833-83.25 24.5625-76.9167 24.5625-64.25 24.5625-62.75 24.75-60.8958 25.125-58.6875L12.125-52.625C13.875-64.875 19.1875-74.5833 28.0625-81.75 36.9375-88.9167 48.1042-92.5 61.5625-92.5L88.0625-92.5C100.021-92.5 107.937-93.2917 111.812-94.875 115.687-96.4583 118.312-99.9792 119.687-105.437L129.062-109.25C126.146-101.5 120.521-95.2292 112.187-90.4375 103.854-85.6458 94.3958-83.25 83.8125-83.25L77.5625-83.25 68.875-39.6875C67.3333-31.8542 65.0521-25.6771 62.0312-21.1562 59.0104-16.6354 54.2708-12.3125 47.8125-8.1875L71.9375-7.6875 63.25 1.5625ZM123.354 1.5625C117.896 1.5625 113.344-0.572917 109.698-4.84375 106.052-9.11458 104.229-14.4375 104.229-20.8125 104.229-32.8125 108.771-43.9062 117.854-54.0937 126.937-64.2812 136.833-69.375 147.542-69.375 153.333-69.375 158.104-67.2917 161.854-63.125 165.604-58.9583 167.479-53.6458 167.479-47.1875 167.479-34.7292 162.937-23.4896 153.854-13.4687 144.771-3.44792 134.604 1.5625 123.354 1.5625ZM130.479-3.875C136.646-3.875 142.073-7.84375 146.76-15.7812 151.448-23.7187 153.792-32.9375 153.792-43.4375 153.792-57.2292 149.583-64.125 141.167-64.125 135.208-64.125 129.844-60.0312 125.073-51.8437 120.302-43.6562 117.917-34.4375 117.917-24.1875 117.917-10.6458 122.104-3.875 130.479-3.875ZM194.583-63.25 180.271-63.25 184.583-67.875 195.458-67.875 199.021-85.5625 211.958-88.6875 207.833-67.875 231.396-67.875 226.271-62.375C220.896-62.9583 216.125-63.25 211.958-63.25L206.896-63.25 198.396-20.4375C197.521-16.0208 197.083-12.9167 197.083-11.125 197.083-7.83333 198.542-6.1875 201.458-6.1875 205.958-6.1875 212.104-9.52083 219.896-16.1875L218.771-10.4375C210.687-2.4375 202.917 1.5625 195.458 1.5625 188.375 1.5625 184.833-2.35417 184.833-10.1875 184.833-12.9792 185.292-16.6875 186.208-21.3125ZM286.043-33.9375 284.913-33.9375C280.21-23.4792 274.548-14.9479 267.929-8.34375 261.31-1.73958 255.107 1.5625 249.322 1.5625 240.538 1.5625 236.146-3.9375 236.146-14.9375 236.146-27.0625 240.979-38.9375 250.646-50.5625 260.646-62.6042 272.854-68.625 287.271-68.625 293.229-68.625 299.458-68.375 305.958-67.875L301.458-49.375 295.396-18.5C294.437-13.6667 293.958-10.5417 293.958-9.125 293.958-6.5 295.187-5.1875 297.646-5.1875 301.812-5.1875 308.021-9.77083 316.271-18.9375L315.146-13.125C306.004-3.33333 297.801 1.5625 290.537 1.5625 284.485 1.5625 281.458-1.58333 281.458-7.875 281.458-9.95833 281.961-13.5 282.966-18.5ZM291.069-58.9375C285.821-61.2708 280.635-62.4375 275.512-62.4375 267.931-62.4375 261.871-57.6458 257.33-48.0625 251.999-36.7292 249.333-26.5417 249.333-17.5 249.333-10.9583 251.249-7.6875 255.079-7.6875 258.66-7.6875 263.813-11.4479 270.537-18.9687 277.261-26.4896 283.163-35.0833 288.242-44.75ZM360.796-19.25 359.67-13.5C349.83-3.45833 341.365 1.5625 334.277 1.5625 328.356 1.5625 325.396-1.625 325.396-8 325.396-10.625 325.834-14.1458 326.709-18.5625L335.28-61.6875C338.282-76.7708 343.944-88.5104 352.264-96.9062 360.584-105.302 370.708-109.5 382.635-109.5 386.806-109.5 390.559-109.062 393.896-108.187L385.324-99.25C380.485-101.458 376.314-102.562 372.81-102.562 366.178-102.562 361.193-100.146 357.856-95.3125 354.519-90.4792 351.515-81.3333 348.846-67.875L339.023-18.5C338.063-13.7083 337.583-10.5833 337.583-9.125 337.583-6.5 338.814-5.1875 341.275-5.1875 344.07-5.1875 349.471-8.89583 357.48-16.3125 358.105-16.8958 359.211-17.875 360.796-19.25ZM441.896-42.8125 446.333-47.8125 452.958-47.8125 460.833-87.625C452.292-87.625 445.365-85.3229 440.052-80.7187 434.74-76.1146 432.083-70.1042 432.083-62.6875L432.146-61.3125 419.958-55.4375C421.042-68.2292 426.01-77.6042 434.865-83.5625 443.719-89.5208 457.083-92.5 474.958-92.5L511.021-92.5 505.396-74.8125 501.396-74.8125C501.937-76.4792 502.208-78.125 502.208-79.75 502.208-85.1667 493.687-87.875 476.646-87.875L473.958-87.875 466.021-47.8125 493.271-47.8125 487.083-41.4375C480.417-42.3542 474.083-42.8125 468.083-42.8125L465.021-42.8125 461.396-24.5C458.354-9.08333 452.469 3.22917 443.74 12.4375 435.01 21.6458 424.854 26.25 413.271 26.25 407.021 26.25 401.437 23.8958 396.521 19.1875L405.708 9.8125C409 16.6458 414.292 20.0625 421.583 20.0625 428.25 20.0625 433.49 17.0521 437.302 11.0312 441.115 5.01042 444.542-5.64583 447.583-20.9375L451.958-42.8125ZM526.687 1.5625C521.229 1.5625 516.677-0.572917 513.031-4.84375 509.385-9.11458 507.562-14.4375 507.562-20.8125 507.562-32.8125 512.104-43.9062 521.187-54.0937 530.271-64.2812 540.167-69.375 550.875-69.375 556.667-69.375 561.437-67.2917 565.187-63.125 568.937-58.9583 570.812-53.6458 570.812-47.1875 570.812-34.7292 566.271-23.4896 557.187-13.4687 548.104-3.44792 537.937 1.5625 526.687 1.5625ZM533.812-3.875C539.979-3.875 545.406-7.84375 550.094-15.7812 554.781-23.7187 557.125-32.9375 557.125-43.4375 557.125-57.2292 552.917-64.125 544.5-64.125 538.542-64.125 533.177-60.0312 528.406-51.8437 523.635-43.6562 521.25-34.4375 521.25-24.1875 521.25-10.6458 525.437-3.875 533.812-3.875ZM587.104 0.75 591.729-18.4814 597.792-49.0137C598.417-52.0937 598.729-54.7575 598.729-57.0049 598.729-60.585 597.479-62.375 594.979-62.375 590.562-62.375 584.25-57.6702 576.042-48.2607L577.167-53.8174C586.792-64.1891 595.146-69.375 602.229-69.375 608.229-69.375 611.229-65.9401 611.229-59.0703 611.229-56.0306 610.854-52.6582 610.104-48.9531L607.104-33.9014 607.917-33.9014C612.875-44.3284 618.74-52.8475 625.51-59.4585 632.281-66.0695 638.479-69.375 644.104-69.375 647.021-69.375 649.625-68.7233 651.917-67.4199L643.604-56.1279C641.146-57.751 639.062-58.5625 637.354-58.5625 629.229-58.5625 618.417-46.6377 604.917-22.7881L600.354 0.000976562ZM708.854-17.1875 707.917-12.3125C694.25-3.0625 683.042 1.5625 674.292 1.5625 668.25 1.5625 663.396-0.479167 659.729-4.5625 656.062-8.64583 654.229-14.0417 654.229-20.75 654.229-32.875 658.812-44.0104 667.979-54.1562 677.146-64.3021 687.229-69.375 698.229-69.375 703.062-69.375 707.875-68.3125 712.667-66.1875L708.479-50.125 704.604-50.125 704.792-51.0625C705.208-53.0208 705.417-54.4583 705.417-55.375 705.417-61.125 701.521-64 693.729-64 686.396-64 680.292-60.0833 675.417-52.25 670.542-44.4167 668.104-34.5833 668.104-22.75 668.104-11.4583 672.312-5.8125 680.729-5.8125 688.729-5.8125 698.104-9.60417 708.854-17.1875ZM778.875-17.125 777.937-12.3125C764.687-3.0625 753.396 1.5625 744.062 1.5625 738.146 1.5625 733.344-0.508626 729.656-4.65088 725.969-8.79313 724.125-14.153 724.125-20.7305 724.125-32.47 728.625-43.5124 737.625-53.8574 746.625-64.2025 756.229-69.375 766.437-69.375 770.146-69.375 773.146-68.1268 775.437-65.6304 777.729-63.1339 778.875-59.8887 778.875-55.8945 778.875-47.9062 774.792-41.0413 766.625-35.2998 758.458-29.5583 748.708-26.6875 737.375-26.6875L737.312-23.875C737.312-11.7083 741.771-5.625 750.687-5.625 758.396-5.625 767.792-9.45833 778.875-17.125ZM737.5-30.5C746.833-31.25 754.125-33.6562 759.375-37.7187 764.625-41.7812 767.25-47.0417 767.25-53.5 767.25-59.875 764.937-63.0625 760.312-63.0625 755.312-63.0625 750.479-59.7396 745.812-53.0937 741.146-46.4479 738.375-38.9167 737.5-30.5ZM847.469 0 856.719-9.25 857.656-9C858.156-8.91667 859.365-8.875 861.281-8.875 865.906-8.875 869.333-10.5208 871.562-13.8125 873.792-17.1042 875.865-23.5417 877.781-33.125L887.719-83.25 871.906-83.25C855.865-83.25 847.844-76.9167 847.844-64.25 847.844-62.75 848.031-60.8958 848.406-58.6875L835.406-52.625C837.156-64.875 842.469-74.5833 851.344-81.75 860.219-88.9167 871.385-92.5 884.844-92.5L911.344-92.5C923.302-92.5 931.219-93.2917 935.094-94.875 938.969-96.4583 941.594-99.9792 942.969-105.437L952.344-109.25C949.427-101.5 943.802-95.2292 935.469-90.4375 927.135-85.6458 917.677-83.25 907.094-83.25L900.844-83.25 892.156-39.6875C890.615-31.8542 888.333-25.6771 885.312-21.1562 882.292-16.6354 877.552-12.3125 871.094-8.1875L895.219-7.6875 886.531 1.5625ZM932.573 0.75 937.198-18.4814 943.26-49.0137C943.885-52.0937 944.198-54.7575 944.198-57.0049 944.198-60.585 942.948-62.375 940.448-62.375 936.031-62.375 929.719-57.6702 921.51-48.2607L922.635-53.8174C932.26-64.1891 940.615-69.375 947.698-69.375 953.698-69.375 956.698-65.9401 956.698-59.0703 956.698-56.0306 956.323-52.6582 955.573-48.9531L952.573-33.9014 953.385-33.9014C958.344-44.3284 964.208-52.8475 970.979-59.4585 977.75-66.0695 983.948-69.375 989.573-69.375 992.49-69.375 995.094-68.7233 997.385-67.4199L989.073-56.1279C986.615-57.751 984.531-58.5625 982.823-58.5625 974.698-58.5625 963.885-46.6377 950.385-22.7881L945.823 0.000976562ZM1048.6-33.9375 1047.47-33.9375C1042.76-23.4792 1037.1-14.9479 1030.48-8.34375 1023.86-1.73958 1017.66 1.5625 1011.87 1.5625 1003.09 1.5625 998.698-3.9375 998.698-14.9375 998.698-27.0625 1003.53-38.9375 1013.2-50.5625 1023.2-62.6042 1035.41-68.625 1049.82-68.625 1055.78-68.625 1062.01-68.375 1068.51-67.875L1064.01-49.375 1057.95-18.5C1056.99-13.6667 1056.51-10.5417 1056.51-9.125 1056.51-6.5 1057.74-5.1875 1060.2-5.1875 1064.36-5.1875 1070.57-9.77083 1078.82-18.9375L1077.7-13.125C1068.56-3.33333 1060.35 1.5625 1053.09 1.5625 1047.04 1.5625 1044.01-1.58333 1044.01-7.875 1044.01-9.95833 1044.51-13.5 1045.52-18.5ZM1053.62-58.9375C1048.37-61.2708 1043.19-62.4375 1038.06-62.4375 1030.48-62.4375 1024.42-57.6458 1019.88-48.0625 1014.55-36.7292 1011.89-26.5417 1011.89-17.5 1011.89-10.9583 1013.8-7.6875 1017.63-7.6875 1021.21-7.6875 1026.36-11.4479 1033.09-18.9687 1039.81-26.4896 1045.72-35.0833 1050.79-44.75ZM1128.45-18.9375 1127.32-13.125C1118.2-3.33333 1110.01 1.5625 1102.76 1.5625 1096.76 1.5625 1093.76-1.58333 1093.76-7.875 1093.76-10 1094.24-13.5 1095.2-18.375L1099.51-40.125C1100.68-46.2917 1101.26-50.3958 1101.26-52.4375 1101.26-55.9375 1099.91-57.6875 1097.2-57.6875 1095.32-57.6875 1091.97-56.9792 1087.14-55.5625L1087.89-59.375 1118.45-69.375 1113.7-49.375 1107.57-18.5C1106.61-13.6667 1106.14-10.5833 1106.14-9.25 1106.14-6.54167 1107.36-5.1875 1109.82-5.1875 1113.95-5.1875 1120.16-9.77083 1128.45-18.9375ZM1105.51-80.25 1109.7-88.75 1127.32-100.25 1121.95-88.75ZM1138.01 0.75 1142.64-18.5 1148.76-49.375C1149.72-54.1667 1150.2-57.2917 1150.2-58.75 1150.2-61.3333 1148.97-62.625 1146.51-62.625 1142.43-62.625 1136.22-58.0459 1127.89-48.8877L1129.01-54.6309C1138.09-64.4603 1146.28-69.375 1153.57-69.375 1159.57-69.375 1162.57-66.25 1162.57-60 1162.57-57.875 1162.09-54.3333 1161.14-49.375L1158.07-33.9375 1159.01-33.9375C1164.22-44.6042 1170.1-53.1771 1176.67-59.6562 1183.23-66.1354 1189.34-69.375 1195.01-69.375 1201.84-69.375 1205.26-65.5833 1205.26-58 1205.26-55.5417 1204.91-52.5417 1204.2-49L1198.14-18.5C1197.18-13.6667 1196.7-10.5417 1196.7-9.125 1196.7-6.5 1197.93-5.1875 1200.39-5.1875 1204.55-5.1875 1210.78-9.76562 1219.07-18.9219L1217.89-13.1162C1208.8-3.3304 1200.61 1.5625 1193.32 1.5625 1187.32 1.5625 1184.32-1.58008 1184.32-7.86523 1184.32-9.94661 1184.82-13.4847 1185.82-18.4795L1191.89-49.0732C1192.39-51.4463 1192.64-53.4443 1192.64-55.0674 1192.64-58.4391 1191.39-60.125 1188.89-60.125 1180.93-60.125 1169.89-47.5208 1155.76-22.3125L1151.2 0ZM1267.67-18.9375 1266.54-13.125C1257.42-3.33333 1249.23 1.5625 1241.98 1.5625 1235.98 1.5625 1232.98-1.58333 1232.98-7.875 1232.98-10 1233.46-13.5 1234.42-18.375L1238.73-40.125C1239.9-46.2917 1240.48-50.3958 1240.48-52.4375 1240.48-55.9375 1239.12-57.6875 1236.42-57.6875 1234.54-57.6875 1231.19-56.9792 1226.35-55.5625L1227.1-59.375 1257.67-69.375 1252.92-49.375 1246.79-18.5C1245.83-13.6667 1245.35-10.5833 1245.35-9.25 1245.35-6.54167 1246.58-5.1875 1249.04-5.1875 1253.17-5.1875 1259.38-9.77083 1267.67-18.9375ZM1244.73-80.25 1248.92-88.75 1266.54-100.25 1261.17-88.75ZM1277.23 0.75 1281.85-18.5 1287.98-49.375C1288.94-54.1667 1289.42-57.2917 1289.42-58.75 1289.42-61.3333 1288.19-62.625 1285.73-62.625 1281.65-62.625 1275.44-58.0459 1267.1-48.8877L1268.23-54.6309C1277.31-64.4603 1285.5-69.375 1292.79-69.375 1298.79-69.375 1301.79-66.25 1301.79-60 1301.79-57.875 1301.31-54.3333 1300.35-49.375L1297.29-33.9375 1298.23-33.9375C1303.44-44.6042 1309.32-53.1771 1315.89-59.6562 1322.45-66.1354 1328.56-69.375 1334.23-69.375 1341.06-69.375 1344.48-65.5833 1344.48-58 1344.48-55.5417 1344.12-52.5417 1343.42-49L1337.35-18.5C1336.4-13.6667 1335.92-10.5417 1335.92-9.125 1335.92-6.5 1337.15-5.1875 1339.6-5.1875 1343.77-5.1875 1350-9.76562 1358.29-18.9219L1357.1-13.1162C1348.02-3.3304 1339.83 1.5625 1332.54 1.5625 1326.54 1.5625 1323.54-1.58008 1323.54-7.86523 1323.54-9.94661 1324.04-13.4847 1325.04-18.4795L1331.1-49.0732C1331.6-51.4463 1331.85-53.4443 1331.85-55.0674 1331.85-58.4391 1330.6-60.125 1328.1-60.125 1320.15-60.125 1309.1-47.5208 1294.98-22.3125L1290.42 0ZM1370.95-1C1365.95-3.5 1363.45-8.52083 1363.45-16.0625 1363.45-28.3958 1368.45-40.3125 1378.45-51.8125 1388.16-63.0208 1400.22-68.625 1414.64-68.625 1417.39-68.625 1423.2-68.375 1432.07-67.875L1427.64-49.375 1424.7-34.875C1423.2-27.25 1422.18-21.625 1421.64-18 1419.34-3.20833 1417.04 7.05208 1414.73 12.7812 1412.42 18.5104 1408.32 24.125 1402.45 29.625 1393.82 37.625 1383.89 41.625 1372.64 41.625 1365.3 41.625 1359.34 40.1979 1354.76 37.3437 1350.18 34.4896 1347.89 30.7708 1347.89 26.1875 1347.89 17.0208 1355.57 7.95833 1370.95-1ZM1417.14-58.75C1412.14-61.2083 1407.16-62.4375 1402.2-62.4375 1396.66-62.4375 1391.97-59.9583 1388.14-55 1385.09-51.0833 1382.33-45.3021 1379.85-37.6562 1377.37-30.0104 1376.14-23.4792 1376.14-18.0625 1376.14-12.1875 1377.99-9.25 1381.7-9.25 1389.91-9.25 1400.8-21.1042 1414.39-44.8125ZM1412.2-33.9375 1411.2-33.9375C1406.78-24.1458 1401.49-16.2708 1395.32-10.3125 1389.16-4.35417 1382.68-0.854167 1375.89 0.1875 1364.97 7.72917 1359.51 14.7292 1359.51 21.1875 1359.51 25.3542 1361.54 28.9062 1365.6 31.8437 1369.67 34.7812 1374.59 36.25 1380.39 36.25 1387.84 36.25 1393.73 33.3437 1398.04 27.5312 1402.35 21.7187 1405.43 12.5417 1407.26 0Z" fill="#E46C0A" transform="matrix(1 0 0 1 124.714 186)"/></g></g><rect x="297" y="89" width="2706" height="413" fill="url(#fill9)"/><g clip-path="url(#clip10)" filter="url(#fx3)" transform="translate(829 165)"><g><path d="M24.1875 0 33.4375-9.25 34.375-9C34.875-8.91667 36.0833-8.875 38-8.875 42.625-8.875 46.0521-10.5208 48.2812-13.8125 50.5104-17.1042 52.5833-23.5417 54.5-33.125L64.4375-83.25 48.625-83.25C32.5833-83.25 24.5625-76.9167 24.5625-64.25 24.5625-62.75 24.75-60.8958 25.125-58.6875L12.125-52.625C13.875-64.875 19.1875-74.5833 28.0625-81.75 36.9375-88.9167 48.1042-92.5 61.5625-92.5L88.0625-92.5C100.021-92.5 107.937-93.2917 111.812-94.875 115.687-96.4583 118.312-99.9792 119.687-105.437L129.062-109.25C126.146-101.5 120.521-95.2292 112.187-90.4375 103.854-85.6458 94.3958-83.25 83.8125-83.25L77.5625-83.25 68.875-39.6875C67.3333-31.8542 65.0521-25.6771 62.0312-21.1562 59.0104-16.6354 54.2708-12.3125 47.8125-8.1875L71.9375-7.6875 63.25 1.5625ZM123.354 1.5625C117.896 1.5625 113.344-0.572917 109.698-4.84375 106.052-9.11458 104.229-14.4375 104.229-20.8125 104.229-32.8125 108.771-43.9062 117.854-54.0937 126.937-64.2812 136.833-69.375 147.542-69.375 153.333-69.375 158.104-67.2917 161.854-63.125 165.604-58.9583 167.479-53.6458 167.479-47.1875 167.479-34.7292 162.937-23.4896 153.854-13.4687 144.771-3.44792 134.604 1.5625 123.354 1.5625ZM130.479-3.875C136.646-3.875 142.073-7.84375 146.76-15.7812 151.448-23.7187 153.792-32.9375 153.792-43.4375 153.792-57.2292 149.583-64.125 141.167-64.125 135.208-64.125 129.844-60.0312 125.073-51.8437 120.302-43.6562 117.917-34.4375 117.917-24.1875 117.917-10.6458 122.104-3.875 130.479-3.875ZM194.583-63.25 180.271-63.25 184.583-67.875 195.458-67.875 199.021-85.5625 211.958-88.6875 207.833-67.875 231.396-67.875 226.271-62.375C220.896-62.9583 216.125-63.25 211.958-63.25L206.896-63.25 198.396-20.4375C197.521-16.0208 197.083-12.9167 197.083-11.125 197.083-7.83333 198.542-6.1875 201.458-6.1875 205.958-6.1875 212.104-9.52083 219.896-16.1875L218.771-10.4375C210.687-2.4375 202.917 1.5625 195.458 1.5625 188.375 1.5625 184.833-2.35417 184.833-10.1875 184.833-12.9792 185.292-16.6875 186.208-21.3125ZM286.043-33.9375 284.913-33.9375C280.21-23.4792 274.548-14.9479 267.929-8.34375 261.31-1.73958 255.107 1.5625 249.322 1.5625 240.538 1.5625 236.146-3.9375 236.146-14.9375 236.146-27.0625 240.979-38.9375 250.646-50.5625 260.646-62.6042 272.854-68.625 287.271-68.625 293.229-68.625 299.458-68.375 305.958-67.875L301.458-49.375 295.396-18.5C294.437-13.6667 293.958-10.5417 293.958-9.125 293.958-6.5 295.187-5.1875 297.646-5.1875 301.812-5.1875 308.021-9.77083 316.271-18.9375L315.146-13.125C306.004-3.33333 297.801 1.5625 290.537 1.5625 284.485 1.5625 281.458-1.58333 281.458-7.875 281.458-9.95833 281.961-13.5 282.966-18.5ZM291.069-58.9375C285.821-61.2708 280.635-62.4375 275.512-62.4375 267.931-62.4375 261.871-57.6458 257.33-48.0625 251.999-36.7292 249.333-26.5417 249.333-17.5 249.333-10.9583 251.249-7.6875 255.079-7.6875 258.66-7.6875 263.813-11.4479 270.537-18.9687 277.261-26.4896 283.163-35.0833 288.242-44.75ZM360.796-19.25 359.67-13.5C349.83-3.45833 341.365 1.5625 334.277 1.5625 328.356 1.5625 325.396-1.625 325.396-8 325.396-10.625 325.834-14.1458 326.709-18.5625L335.28-61.6875C338.282-76.7708 343.944-88.5104 352.264-96.9062 360.584-105.302 370.708-109.5 382.635-109.5 386.806-109.5 390.559-109.062 393.896-108.187L385.324-99.25C380.485-101.458 376.314-102.562 372.81-102.562 366.178-102.562 361.193-100.146 357.856-95.3125 354.519-90.4792 351.515-81.3333 348.846-67.875L339.023-18.5C338.063-13.7083 337.583-10.5833 337.583-9.125 337.583-6.5 338.814-5.1875 341.275-5.1875 344.07-5.1875 349.471-8.89583 357.48-16.3125 358.105-16.8958 359.211-17.875 360.796-19.25ZM441.896-42.8125 446.333-47.8125 452.958-47.8125 460.833-87.625C452.292-87.625 445.365-85.3229 440.052-80.7187 434.74-76.1146 432.083-70.1042 432.083-62.6875L432.146-61.3125 419.958-55.4375C421.042-68.2292 426.01-77.6042 434.865-83.5625 443.719-89.5208 457.083-92.5 474.958-92.5L511.021-92.5 505.396-74.8125 501.396-74.8125C501.937-76.4792 502.208-78.125 502.208-79.75 502.208-85.1667 493.687-87.875 476.646-87.875L473.958-87.875 466.021-47.8125 493.271-47.8125 487.083-41.4375C480.417-42.3542 474.083-42.8125 468.083-42.8125L465.021-42.8125 461.396-24.5C458.354-9.08333 452.469 3.22917 443.74 12.4375 435.01 21.6458 424.854 26.25 413.271 26.25 407.021 26.25 401.437 23.8958 396.521 19.1875L405.708 9.8125C409 16.6458 414.292 20.0625 421.583 20.0625 428.25 20.0625 433.49 17.0521 437.302 11.0312 441.115 5.01042 444.542-5.64583 447.583-20.9375L451.958-42.8125ZM526.687 1.5625C521.229 1.5625 516.677-0.572917 513.031-4.84375 509.385-9.11458 507.562-14.4375 507.562-20.8125 507.562-32.8125 512.104-43.9062 521.187-54.0937 530.271-64.2812 540.167-69.375 550.875-69.375 556.667-69.375 561.437-67.2917 565.187-63.125 568.937-58.9583 570.812-53.6458 570.812-47.1875 570.812-34.7292 566.271-23.4896 557.187-13.4687 548.104-3.44792 537.937 1.5625 526.687 1.5625ZM533.812-3.875C539.979-3.875 545.406-7.84375 550.094-15.7812 554.781-23.7187 557.125-32.9375 557.125-43.4375 557.125-57.2292 552.917-64.125 544.5-64.125 538.542-64.125 533.177-60.0312 528.406-51.8437 523.635-43.6562 521.25-34.4375 521.25-24.1875 521.25-10.6458 525.437-3.875 533.812-3.875ZM587.104 0.75 591.729-18.4814 597.792-49.0137C598.417-52.0937 598.729-54.7575 598.729-57.0049 598.729-60.585 597.479-62.375 594.979-62.375 590.562-62.375 584.25-57.6702 576.042-48.2607L577.167-53.8174C586.792-64.1891 595.146-69.375 602.229-69.375 608.229-69.375 611.229-65.9401 611.229-59.0703 611.229-56.0306 610.854-52.6582 610.104-48.9531L607.104-33.9014 607.917-33.9014C612.875-44.3284 618.74-52.8475 625.51-59.4585 632.281-66.0695 638.479-69.375 644.104-69.375 647.021-69.375 649.625-68.7233 651.917-67.4199L643.604-56.1279C641.146-57.751 639.062-58.5625 637.354-58.5625 629.229-58.5625 618.417-46.6377 604.917-22.7881L600.354 0.000976562ZM708.854-17.1875 707.917-12.3125C694.25-3.0625 683.042 1.5625 674.292 1.5625 668.25 1.5625 663.396-0.479167 659.729-4.5625 656.062-8.64583 654.229-14.0417 654.229-20.75 654.229-32.875 658.812-44.0104 667.979-54.1562 677.146-64.3021 687.229-69.375 698.229-69.375 703.062-69.375 707.875-68.3125 712.667-66.1875L708.479-50.125 704.604-50.125 704.792-51.0625C705.208-53.0208 705.417-54.4583 705.417-55.375 705.417-61.125 701.521-64 693.729-64 686.396-64 680.292-60.0833 675.417-52.25 670.542-44.4167 668.104-34.5833 668.104-22.75 668.104-11.4583 672.312-5.8125 680.729-5.8125 688.729-5.8125 698.104-9.60417 708.854-17.1875ZM778.875-17.125 777.937-12.3125C764.687-3.0625 753.396 1.5625 744.062 1.5625 738.146 1.5625 733.344-0.508626 729.656-4.65088 725.969-8.79313 724.125-14.153 724.125-20.7305 724.125-32.47 728.625-43.5124 737.625-53.8574 746.625-64.2025 756.229-69.375 766.437-69.375 770.146-69.375 773.146-68.1268 775.437-65.6304 777.729-63.1339 778.875-59.8887 778.875-55.8945 778.875-47.9062 774.792-41.0413 766.625-35.2998 758.458-29.5583 748.708-26.6875 737.375-26.6875L737.312-23.875C737.312-11.7083 741.771-5.625 750.687-5.625 758.396-5.625 767.792-9.45833 778.875-17.125ZM737.5-30.5C746.833-31.25 754.125-33.6562 759.375-37.7187 764.625-41.7812 767.25-47.0417 767.25-53.5 767.25-59.875 764.937-63.0625 760.312-63.0625 755.312-63.0625 750.479-59.7396 745.812-53.0937 741.146-46.4479 738.375-38.9167 737.5-30.5ZM847.469 0 856.719-9.25 857.656-9C858.156-8.91667 859.365-8.875 861.281-8.875 865.906-8.875 869.333-10.5208 871.562-13.8125 873.792-17.1042 875.865-23.5417 877.781-33.125L887.719-83.25 871.906-83.25C855.865-83.25 847.844-76.9167 847.844-64.25 847.844-62.75 848.031-60.8958 848.406-58.6875L835.406-52.625C837.156-64.875 842.469-74.5833 851.344-81.75 860.219-88.9167 871.385-92.5 884.844-92.5L911.344-92.5C923.302-92.5 931.219-93.2917 935.094-94.875 938.969-96.4583 941.594-99.9792 942.969-105.437L952.344-109.25C949.427-101.5 943.802-95.2292 935.469-90.4375 927.135-85.6458 917.677-83.25 907.094-83.25L900.844-83.25 892.156-39.6875C890.615-31.8542 888.333-25.6771 885.312-21.1562 882.292-16.6354 877.552-12.3125 871.094-8.1875L895.219-7.6875 886.531 1.5625ZM932.573 0.75 937.198-18.4814 943.26-49.0137C943.885-52.0937 944.198-54.7575 944.198-57.0049 944.198-60.585 942.948-62.375 940.448-62.375 936.031-62.375 929.719-57.6702 921.51-48.2607L922.635-53.8174C932.26-64.1891 940.615-69.375 947.698-69.375 953.698-69.375 956.698-65.9401 956.698-59.0703 956.698-56.0306 956.323-52.6582 955.573-48.9531L952.573-33.9014 953.385-33.9014C958.344-44.3284 964.208-52.8475 970.979-59.4585 977.75-66.0695 983.948-69.375 989.573-69.375 992.49-69.375 995.094-68.7233 997.385-67.4199L989.073-56.1279C986.615-57.751 984.531-58.5625 982.823-58.5625 974.698-58.5625 963.885-46.6377 950.385-22.7881L945.823 0.000976562ZM1048.6-33.9375 1047.47-33.9375C1042.76-23.4792 1037.1-14.9479 1030.48-8.34375 1023.86-1.73958 1017.66 1.5625 1011.87 1.5625 1003.09 1.5625 998.698-3.9375 998.698-14.9375 998.698-27.0625 1003.53-38.9375 1013.2-50.5625 1023.2-62.6042 1035.41-68.625 1049.82-68.625 1055.78-68.625 1062.01-68.375 1068.51-67.875L1064.01-49.375 1057.95-18.5C1056.99-13.6667 1056.51-10.5417 1056.51-9.125 1056.51-6.5 1057.74-5.1875 1060.2-5.1875 1064.36-5.1875 1070.57-9.77083 1078.82-18.9375L1077.7-13.125C1068.56-3.33333 1060.35 1.5625 1053.09 1.5625 1047.04 1.5625 1044.01-1.58333 1044.01-7.875 1044.01-9.95833 1044.51-13.5 1045.52-18.5ZM1053.62-58.9375C1048.37-61.2708 1043.19-62.4375 1038.06-62.4375 1030.48-62.4375 1024.42-57.6458 1019.88-48.0625 1014.55-36.7292 1011.89-26.5417 1011.89-17.5 1011.89-10.9583 1013.8-7.6875 1017.63-7.6875 1021.21-7.6875 1026.36-11.4479 1033.09-18.9687 1039.81-26.4896 1045.72-35.0833 1050.79-44.75ZM1128.45-18.9375 1127.32-13.125C1118.2-3.33333 1110.01 1.5625 1102.76 1.5625 1096.76 1.5625 1093.76-1.58333 1093.76-7.875 1093.76-10 1094.24-13.5 1095.2-18.375L1099.51-40.125C1100.68-46.2917 1101.26-50.3958 1101.26-52.4375 1101.26-55.9375 1099.91-57.6875 1097.2-57.6875 1095.32-57.6875 1091.97-56.9792 1087.14-55.5625L1087.89-59.375 1118.45-69.375 1113.7-49.375 1107.57-18.5C1106.61-13.6667 1106.14-10.5833 1106.14-9.25 1106.14-6.54167 1107.36-5.1875 1109.82-5.1875 1113.95-5.1875 1120.16-9.77083 1128.45-18.9375ZM1105.51-80.25 1109.7-88.75 1127.32-100.25 1121.95-88.75ZM1138.01 0.75 1142.64-18.5 1148.76-49.375C1149.72-54.1667 1150.2-57.2917 1150.2-58.75 1150.2-61.3333 1148.97-62.625 1146.51-62.625 1142.43-62.625 1136.22-58.0459 1127.89-48.8877L1129.01-54.6309C1138.09-64.4603 1146.28-69.375 1153.57-69.375 1159.57-69.375 1162.57-66.25 1162.57-60 1162.57-57.875 1162.09-54.3333 1161.14-49.375L1158.07-33.9375 1159.01-33.9375C1164.22-44.6042 1170.1-53.1771 1176.67-59.6562 1183.23-66.1354 1189.34-69.375 1195.01-69.375 1201.84-69.375 1205.26-65.5833 1205.26-58 1205.26-55.5417 1204.91-52.5417 1204.2-49L1198.14-18.5C1197.18-13.6667 1196.7-10.5417 1196.7-9.125 1196.7-6.5 1197.93-5.1875 1200.39-5.1875 1204.55-5.1875 1210.78-9.76562 1219.07-18.9219L1217.89-13.1162C1208.8-3.3304 1200.61 1.5625 1193.32 1.5625 1187.32 1.5625 1184.32-1.58008 1184.32-7.86523 1184.32-9.94661 1184.82-13.4847 1185.82-18.4795L1191.89-49.0732C1192.39-51.4463 1192.64-53.4443 1192.64-55.0674 1192.64-58.4391 1191.39-60.125 1188.89-60.125 1180.93-60.125 1169.89-47.5208 1155.76-22.3125L1151.2 0ZM1267.67-18.9375 1266.54-13.125C1257.42-3.33333 1249.23 1.5625 1241.98 1.5625 1235.98 1.5625 1232.98-1.58333 1232.98-7.875 1232.98-10 1233.46-13.5 1234.42-18.375L1238.73-40.125C1239.9-46.2917 1240.48-50.3958 1240.48-52.4375 1240.48-55.9375 1239.12-57.6875 1236.42-57.6875 1234.54-57.6875 1231.19-56.9792 1226.35-55.5625L1227.1-59.375 1257.67-69.375 1252.92-49.375 1246.79-18.5C1245.83-13.6667 1245.35-10.5833 1245.35-9.25 1245.35-6.54167 1246.58-5.1875 1249.04-5.1875 1253.17-5.1875 1259.38-9.77083 1267.67-18.9375ZM1244.73-80.25 1248.92-88.75 1266.54-100.25 1261.17-88.75ZM1277.23 0.75 1281.85-18.5 1287.98-49.375C1288.94-54.1667 1289.42-57.2917 1289.42-58.75 1289.42-61.3333 1288.19-62.625 1285.73-62.625 1281.65-62.625 1275.44-58.0459 1267.1-48.8877L1268.23-54.6309C1277.31-64.4603 1285.5-69.375 1292.79-69.375 1298.79-69.375 1301.79-66.25 1301.79-60 1301.79-57.875 1301.31-54.3333 1300.35-49.375L1297.29-33.9375 1298.23-33.9375C1303.44-44.6042 1309.32-53.1771 1315.89-59.6562 1322.45-66.1354 1328.56-69.375 1334.23-69.375 1341.06-69.375 1344.48-65.5833 1344.48-58 1344.48-55.5417 1344.12-52.5417 1343.42-49L1337.35-18.5C1336.4-13.6667 1335.92-10.5417 1335.92-9.125 1335.92-6.5 1337.15-5.1875 1339.6-5.1875 1343.77-5.1875 1350-9.76562 1358.29-18.9219L1357.1-13.1162C1348.02-3.3304 1339.83 1.5625 1332.54 1.5625 1326.54 1.5625 1323.54-1.58008 1323.54-7.86523 1323.54-9.94661 1324.04-13.4847 1325.04-18.4795L1331.1-49.0732C1331.6-51.4463 1331.85-53.4443 1331.85-55.0674 1331.85-58.4391 1330.6-60.125 1328.1-60.125 1320.15-60.125 1309.1-47.5208 1294.98-22.3125L1290.42 0ZM1370.95-1C1365.95-3.5 1363.45-8.52083 1363.45-16.0625 1363.45-28.3958 1368.45-40.3125 1378.45-51.8125 1388.16-63.0208 1400.22-68.625 1414.64-68.625 1417.39-68.625 1423.2-68.375 1432.07-67.875L1427.64-49.375 1424.7-34.875C1423.2-27.25 1422.18-21.625 1421.64-18 1419.34-3.20833 1417.04 7.05208 1414.73 12.7812 1412.42 18.5104 1408.32 24.125 1402.45 29.625 1393.82 37.625 1383.89 41.625 1372.64 41.625 1365.3 41.625 1359.34 40.1979 1354.76 37.3437 1350.18 34.4896 1347.89 30.7708 1347.89 26.1875 1347.89 17.0208 1355.57 7.95833 1370.95-1ZM1417.14-58.75C1412.14-61.2083 1407.16-62.4375 1402.2-62.4375 1396.66-62.4375 1391.97-59.9583 1388.14-55 1385.09-51.0833 1382.33-45.3021 1379.85-37.6562 1377.37-30.0104 1376.14-23.4792 1376.14-18.0625 1376.14-12.1875 1377.99-9.25 1381.7-9.25 1389.91-9.25 1400.8-21.1042 1414.39-44.8125ZM1412.2-33.9375 1411.2-33.9375C1406.78-24.1458 1401.49-16.2708 1395.32-10.3125 1389.16-4.35417 1382.68-0.854167 1375.89 0.1875 1364.97 7.72917 1359.51 14.7292 1359.51 21.1875 1359.51 25.3542 1361.54 28.9062 1365.6 31.8437 1369.67 34.7812 1374.59 36.25 1380.39 36.25 1387.84 36.25 1393.73 33.3437 1398.04 27.5312 1402.35 21.7187 1405.43 12.5417 1407.26 0Z" fill="#E46C0A" transform="matrix(1.02 0 0 1.02 91.4086 168)"/></g></g><text fill="#E46C0A" font-family="Lucida Calligraphy,Lucida Calligraphy_MSFontService,sans-serif" font-style="italic" font-weight="400" font-size="128" transform="matrix(1 0 0 1 934.714 333)">Total Force Training</text></g></svg>