<svg width="1770" height="251" xmlns="http://www.w3.org/2000/svg" xmlns:xlink="http://www.w3.org/1999/xlink" xml:space="preserve" overflow="hidden"><defs><filter id="fx0" x="-10%" y="-10%" width="120%" height="120%" filterUnits="userSpaceOnUse" primitiveUnits="userSpaceOnUse"><feComponentTransfer color-interpolation-filters="sRGB"><feFuncR type="discrete" tableValues="0 0"/><feFuncG type="discrete" tableValues="0 0"/><feFuncB type="discrete" tableValues="0 0"/><feFuncA type="linear" slope="0.4" intercept="0"/></feComponentTransfer><feGaussianBlur stdDeviation="6.11111 6.11111"/></filter><filter id="fx1" x="-10%" y="-10%" width="120%" height="120%" filterUnits="userSpaceOnUse" primitiveUnits="userSpaceOnUse"><feComponentTransfer color-interpolation-filters="sRGB"><feFuncR type="discrete" tableValues="0 0"/><feFuncG type="discrete" tableValues="0 0"/><feFuncB type="discrete" tableValues="0 0"/><feFuncA type="linear" slope="0.4" intercept="0"/></feComponentTransfer><feGaussianBlur stdDeviation="6.11111 6.11111"/></filter><clipPath id="clip2"><rect x="765" y="450" width="1770" height="251"/></clipPath><clipPath id="clip3"><rect x="49" y="42" width="1524" height="117"/></clipPath></defs><g clip-path="url(#clip2)" transform="translate(-765 -450)"><g filter="url(#fx0)" transform="translate(764 449)"><g><path d="M20.0001 232.75 73.25 19.7501 1698.75 19.7501 1752 232.75Z" fill="#404040" fill-rule="evenodd"/></g></g><g clip-path="url(#clip3)" filter="url(#fx1)" transform="translate(838 483)"><g><path d="M35.1372-14.7114C35.1372-12.2528 34.6846-10.0643 33.7795-8.146 32.8744-6.2277 31.6181-4.59985 30.0105-3.26245 28.4029-1.92505 26.5116-0.91862 24.3367-0.243164 22.1617 0.432292 19.8179 0.770019 17.3052 0.770019 15.549 0.770019 13.9211 0.621419 12.4216 0.324219 10.9221 0.0270182 9.58471-0.337728 8.40942-0.770019 7.23413-1.20231 6.24796-1.64811 5.45093-2.10742 4.65389-2.56673 4.10002-2.9585 3.78931-3.28271 3.4786-3.60693 3.24894-4.01896 3.10034-4.5188 2.95174-5.01864 2.87744-5.68734 2.87744-6.5249 2.87744-7.1193 2.90446-7.61239 2.9585-8.00415 3.01253-8.39591 3.09359-8.71338 3.20166-8.95654 3.30973-9.19971 3.44482-9.36857 3.60693-9.46313 3.76904-9.5577 3.95817-9.60498 4.17432-9.60498 4.55257-9.60498 5.08618-9.37532 5.77515-8.91601 6.46411-8.45671 7.34896-7.95687 8.42969-7.4165 9.51042-6.87614 10.814-6.36955 12.3406-5.89673 13.8671-5.42391 15.63-5.1875 17.6294-5.1875 19.1424-5.1875 20.5271-5.39014 21.7834-5.79541 23.0398-6.20068 24.1205-6.77482 25.0256-7.51782 25.9307-8.26082 26.6265-9.17269 27.1128-10.2534 27.5991-11.3341 27.8423-12.5635 27.8423-13.9414 27.8423-15.4274 27.5046-16.6973 26.8291-17.751 26.1536-18.8047 25.262-19.7301 24.1543-20.5271 23.0465-21.3241 21.7834-22.0536 20.365-22.7156 18.9465-23.3775 17.4943-24.053 16.0083-24.7419 14.5223-25.4309 13.0768-26.1942 11.6719-27.0317 10.2669-27.8693 9.01058-28.8555 7.90283-29.9902 6.79508-31.125 5.89673-32.4556 5.20776-33.9822 4.5188-35.5087 4.17432-37.3392 4.17432-39.4736 4.17432-41.6621 4.57283-43.6142 5.36987-45.3298 6.16691-47.0455 7.27466-48.4842 8.69311-49.646 10.1116-50.8078 11.8002-51.6926 13.759-52.3005 15.7179-52.9084 17.832-53.2124 20.1016-53.2124 21.2633-53.2124 22.4319-53.1111 23.6072-52.9084 24.7825-52.7058 25.8902-52.4356 26.9304-52.0979 27.9706-51.7602 28.896-51.3819 29.7065-50.9631 30.5171-50.5443 31.0507-50.2066 31.3074-49.9499 31.564-49.6933 31.7329-49.4906 31.814-49.342 31.895-49.1934 31.9626-49.0043 32.0166-48.7747 32.0706-48.545 32.1112-48.2681 32.1382-47.9438 32.1652-47.6196 32.1787-47.2008 32.1787-46.6875 32.1787-46.2012 32.1584-45.7689 32.1179-45.3906 32.0774-45.0124 32.0166-44.6949 31.9355-44.4382 31.8545-44.1816 31.7397-43.9924 31.5911-43.8708 31.4425-43.7493 31.2736-43.6885 31.0845-43.6885 30.7873-43.6885 30.3212-43.8776 29.6863-44.2559 29.0513-44.6341 28.2746-45.0596 27.356-45.5325 26.4373-46.0053 25.3498-46.4376 24.0935-46.8293 22.8372-47.2211 21.4255-47.417 19.8584-47.417 18.3994-47.417 17.1296-47.2211 16.0488-46.8293 14.9681-46.4376 14.0765-45.9175 13.374-45.269 12.6715-44.6206 12.1447-43.8506 11.7935-42.959 11.4422-42.0674 11.2666-41.1217 11.2666-40.1221 11.2666-38.6631 11.6043-37.4067 12.2798-36.353 12.9552-35.2993 13.8536-34.3672 14.9749-33.5566 16.0961-32.7461 17.3727-32.0031 18.8047-31.3276 20.2367-30.6522 21.6956-29.97 23.1816-29.281 24.6676-28.592 26.1266-27.8355 27.5586-27.0115 28.9906-26.1874 30.2672-25.2148 31.3884-24.0935 32.5097-22.9722 33.4148-21.6484 34.1038-20.1218 34.7927-18.5953 35.1372-16.7918 35.1372-14.7114ZM75.1382-20.8311C75.1382-19.7773 74.8736-19.0276 74.3444-18.5818 73.8152-18.136 73.2112-17.9131 72.5324-17.9131L48.5117-17.9131C48.5117-15.8867 48.7153-14.063 49.1225-12.4419 49.5296-10.8208 50.2084-9.42936 51.1587-8.26758 52.1089-7.10579 53.3443-6.21419 54.8647-5.59277 56.3851-4.97135 58.2448-4.66064 60.4438-4.66064 62.1815-4.66064 63.729-4.80249 65.0864-5.08618 66.4439-5.36987 67.6181-5.68734 68.6092-6.03857 69.6002-6.38981 70.4147-6.70727 71.0528-6.99097 71.6909-7.27466 72.1729-7.4165 72.4988-7.4165 72.6888-7.4165 72.8584-7.36922 73.0076-7.27466 73.1569-7.18009 73.2722-7.03825 73.3537-6.84912 73.4352-6.65999 73.4963-6.39657 73.537-6.05884 73.5778-5.72111 73.5981-5.30908 73.5981-4.82275 73.5981-4.47152 73.5846-4.16756 73.5576-3.91089 73.5306-3.65422 73.4968-3.42456 73.4563-3.22192 73.4158-3.01929 73.3482-2.83691 73.2537-2.6748 73.1591-2.5127 73.0375-2.35734 72.8889-2.20874 72.7403-2.06014 72.3013-1.81698 71.5718-1.47925 70.8423-1.14152 69.8966-0.810547 68.7349-0.486328 67.5731-0.162109 66.2289 0.128337 64.7024 0.38501 63.1759 0.641683 61.548 0.770019 59.8188 0.770019 56.8198 0.770019 54.1923 0.351237 51.9363-0.486328 49.6803-1.32389 47.7822-2.56673 46.2422-4.21484 44.7021-5.86296 43.5404-7.92985 42.7568-10.4155 41.9733-12.9012 41.5815-15.7922 41.5815-19.0884 41.5815-22.2225 41.9868-25.0391 42.7974-27.5383 43.6079-30.0375 44.7764-32.1584 46.303-33.9011 47.8295-35.6438 49.6735-36.9812 51.835-37.9133 53.9964-38.8455 56.4145-39.3115 59.0893-39.3115 61.9533-39.3115 64.3917-38.8522 66.4045-37.9336 68.4174-37.015 70.0723-35.7789 71.3691-34.2253 72.666-32.6718 73.6184-30.8481 74.2263-28.7541 74.8342-26.6602 75.1382-24.4245 75.1382-22.0469ZM68.4106-22.8169C68.4917-26.3293 67.7101-29.0851 66.0658-31.0845 64.4214-33.0838 61.9818-34.0835 58.7468-34.0835 57.0885-34.0835 55.6342-33.7728 54.3837-33.1514 53.1333-32.5299 52.0867-31.7059 51.2438-30.6792 50.401-29.6525 49.7485-28.4569 49.2865-27.0925 48.8244-25.7281 48.5662-24.3029 48.5117-22.8169ZM91.9502-1.01318C91.9502-0.797038 91.8961-0.614665 91.7881-0.466064 91.68-0.317464 91.5044-0.189128 91.2612-0.0810547 91.0181 0.0270182 90.6803 0.108073 90.248 0.162109 89.8157 0.216146 89.2619 0.243164 88.5864 0.243164 87.938 0.243164 87.3976 0.216146 86.9653 0.162109 86.533 0.108073 86.1885 0.0270182 85.9319-0.0810547 85.6752-0.189128 85.4996-0.317464 85.405-0.466064 85.3105-0.614665 85.2632-0.797038 85.2632-1.01318L85.2632-55.1577C85.2632-55.3739 85.3105-55.563 85.405-55.7251 85.4996-55.8872 85.6752-56.0223 85.9319-56.1304 86.1885-56.2384 86.533-56.3195 86.9653-56.3735 87.3976-56.4276 87.938-56.4546 88.5864-56.4546 89.2619-56.4546 89.8157-56.4276 90.248-56.3735 90.6803-56.3195 91.0181-56.2384 91.2612-56.1304 91.5044-56.0223 91.68-55.8872 91.7881-55.7251 91.8961-55.563 91.9502-55.3739 91.9502-55.1577ZM135.294-20.8311C135.294-19.7773 135.03-19.0276 134.501-18.5818 133.971-18.136 133.367-17.9131 132.689-17.9131L108.668-17.9131C108.668-15.8867 108.872-14.063 109.279-12.4419 109.686-10.8208 110.365-9.42936 111.315-8.26758 112.265-7.10579 113.501-6.21419 115.021-5.59277 116.541-4.97135 118.401-4.66064 120.6-4.66064 122.338-4.66064 123.885-4.80249 125.243-5.08618 126.6-5.36987 127.774-5.68734 128.765-6.03857 129.756-6.38981 130.571-6.70727 131.209-6.99097 131.847-7.27466 132.329-7.4165 132.655-7.4165 132.845-7.4165 133.015-7.36922 133.164-7.27466 133.313-7.18009 133.428-7.03825 133.51-6.84912 133.591-6.65999 133.653-6.39657 133.693-6.05884 133.734-5.72111 133.754-5.30908 133.754-4.82275 133.754-4.47152 133.741-4.16756 133.714-3.91089 133.687-3.65422 133.653-3.42456 133.613-3.22192 133.572-3.01929 133.504-2.83691 133.41-2.6748 133.315-2.5127 133.194-2.35734 133.045-2.20874 132.897-2.06014 132.458-1.81698 131.728-1.47925 130.999-1.14152 130.053-0.810547 128.891-0.486328 127.729-0.162109 126.385 0.128337 124.859 0.38501 123.332 0.641683 121.704 0.770019 119.975 0.770019 116.976 0.770019 114.349 0.351237 112.093-0.486328 109.836-1.32389 107.938-2.56673 106.398-4.21484 104.858-5.86296 103.697-7.92985 102.913-10.4155 102.13-12.9012 101.738-15.7922 101.738-19.0884 101.738-22.2225 102.143-25.0391 102.954-27.5383 103.764-30.0375 104.933-32.1584 106.459-33.9011 107.986-35.6438 109.83-36.9812 111.991-37.9133 114.153-38.8455 116.571-39.3115 119.246-39.3115 122.11-39.3115 124.548-38.8522 126.561-37.9336 128.574-37.015 130.229-35.7789 131.525-34.2253 132.822-32.6718 133.775-30.8481 134.383-28.7541 134.99-26.6602 135.294-24.4245 135.294-22.0469ZM128.567-22.8169C128.648-26.3293 127.866-29.0851 126.222-31.0845 124.578-33.0838 122.138-34.0835 118.903-34.0835 117.245-34.0835 115.79-33.7728 114.54-33.1514 113.29-32.5299 112.243-31.7059 111.4-30.6792 110.557-29.6525 109.905-28.4569 109.443-27.0925 108.981-25.7281 108.722-24.3029 108.668-22.8169ZM171.641-6.56543C171.641-6.10612 171.627-5.7076 171.6-5.36987 171.573-5.03214 171.526-4.74845 171.458-4.5188 171.391-4.28914 171.31-4.08651 171.215-3.91089 171.121-3.73527 170.904-3.4786 170.567-3.14087 170.229-2.80314 169.655-2.38436 168.844-1.88452 168.034-1.38468 167.122-0.938883 166.109-0.547119 165.095-0.155355 163.994 0.162109 162.806 0.405273 161.617 0.648437 160.388 0.770019 159.118 0.770019 156.497 0.770019 154.173 0.337728 152.147-0.526855 150.121-1.39144 148.425-2.65454 147.061-4.31616 145.696-5.97778 144.656-8.01766 143.94-10.4358 143.224-12.8539 142.866-15.6436 142.866-18.8047 142.866-22.3981 143.305-25.4849 144.183-28.0652 145.061-30.6454 146.264-32.7596 147.79-34.4077 149.317-36.0558 151.113-37.2784 153.18-38.0754 155.247-38.8725 157.483-39.271 159.888-39.271 161.049-39.271 162.177-39.1629 163.272-38.9468 164.366-38.7306 165.372-38.4469 166.291-38.0957 167.21-37.7445 168.027-37.3392 168.743-36.8799 169.459-36.4206 169.979-36.0288 170.303-35.7046 170.627-35.3804 170.85-35.1237 170.972-34.9346 171.093-34.7454 171.195-34.5225 171.276-34.2659 171.357-34.0092 171.411-33.7187 171.438-33.3945 171.465-33.0703 171.478-32.665 171.479-32.1787 171.478-31.125 171.357-30.3888 171.114-29.97 170.871-29.5512 170.573-29.3418 170.222-29.3418 169.817-29.3418 169.351-29.5647 168.824-30.0105 168.297-30.4563 167.628-30.9494 166.818-31.4897 166.007-32.0301 165.028-32.5232 163.88-32.969 162.731-33.4148 161.374-33.6377 159.807-33.6377 156.591-33.6377 154.126-32.4016 152.41-29.9294 150.695-27.4573 149.837-23.8706 149.837-19.1694 149.837-16.8188 150.06-14.7587 150.506-12.989 150.951-11.2193 151.607-9.74007 152.471-8.55127 153.336-7.36247 154.396-6.47762 155.653-5.89673 156.909-5.31584 158.348-5.02539 159.969-5.02539 161.509-5.02539 162.86-5.26855 164.021-5.75488 165.183-6.24121 166.19-6.77482 167.041-7.35571 167.892-7.9366 168.608-8.46346 169.189-8.93628 169.77-9.4091 170.222-9.64551 170.546-9.64551 170.736-9.64551 170.898-9.59147 171.033-9.4834 171.168-9.37532 171.283-9.19295 171.377-8.93628 171.472-8.6796 171.539-8.35539 171.58-7.96362 171.62-7.57186 171.641-7.10579 171.641-6.56543ZM199.334-3.68799C199.334-2.90446 199.28-2.28304 199.172-1.82373 199.064-1.36442 198.902-1.02669 198.686-0.810547 198.47-0.594401 198.145-0.391764 197.713-0.202637 197.281-0.0135091 196.788 0.141846 196.234 0.263428 195.68 0.38501 195.092 0.486328 194.471 0.567383 193.849 0.648437 193.228 0.688965 192.607 0.688965 190.715 0.688965 189.094 0.439046 187.743-0.060791 186.392-0.560628 185.285-1.31714 184.42-2.33032 183.555-3.34351 182.927-4.62687 182.536-6.18042 182.144-7.73397 181.948-9.56445 181.948-11.6719L181.948-32.9893 176.841-32.9893C176.436-32.9893 176.112-33.2054 175.869-33.6377 175.626-34.07 175.504-34.7725 175.504-35.7451 175.504-36.2585 175.538-36.6908 175.605-37.042 175.673-37.3932 175.761-37.6837 175.869-37.9133 175.977-38.143 176.119-38.3051 176.294-38.3997 176.47-38.4942 176.666-38.5415 176.882-38.5415L181.948-38.5415 181.948-47.2144C181.948-47.4035 181.995-47.5791 182.09-47.7412 182.184-47.9033 182.36-48.0452 182.617-48.1667 182.873-48.2883 183.218-48.3761 183.65-48.4302 184.082-48.4842 184.623-48.5112 185.271-48.5112 185.947-48.5112 186.5-48.4842 186.933-48.4302 187.365-48.3761 187.703-48.2883 187.946-48.1667 188.189-48.0452 188.365-47.9033 188.473-47.7412 188.581-47.5791 188.635-47.4035 188.635-47.2144L188.635-38.5415 197.997-38.5415C198.213-38.5415 198.402-38.4942 198.564-38.3997 198.726-38.3051 198.868-38.143 198.99-37.9133 199.111-37.6837 199.199-37.3932 199.253-37.042 199.307-36.6908 199.334-36.2585 199.334-35.7451 199.334-34.7725 199.213-34.07 198.969-33.6377 198.726-33.2054 198.402-32.9893 197.997-32.9893L188.635-32.9893 188.635-12.6445C188.635-10.1318 189.006-8.2338 189.749-6.95044 190.492-5.66707 191.823-5.02539 193.741-5.02539 194.363-5.02539 194.917-5.08618 195.403-5.20776 195.889-5.32934 196.322-5.45768 196.7-5.59277 197.078-5.72786 197.402-5.8562 197.673-5.97778 197.943-6.09936 198.186-6.16016 198.402-6.16016 198.537-6.16016 198.665-6.12638 198.787-6.05884 198.909-5.99129 199.003-5.86296 199.071-5.67383 199.138-5.4847 199.199-5.22803 199.253-4.90381 199.307-4.57959 199.334-4.17432 199.334-3.68799Z" fill="#E46C0A" transform="matrix(1 0 0 1 69.5685 122)"/><path d="M33.6782-0.972656C33.6782-0.648437 33.5701-0.405273 33.354-0.243164 33.1379-0.0810547 32.8407 0.0405273 32.4624 0.121582 32.0841 0.202637 31.5303 0.243164 30.8008 0.243164 30.0983 0.243164 29.5377 0.202637 29.1189 0.121582 28.7001 0.0405273 28.3962-0.0810547 28.207-0.243164 28.0179-0.405273 27.9233-0.648437 27.9233-0.972656L27.9233-4.62012C26.3293-2.91797 24.5528-1.59408 22.594-0.648437 20.6352 0.2972 18.5615 0.770019 16.373 0.770019 14.4548 0.770019 12.7188 0.520101 11.1653 0.0202637 9.61173-0.479574 8.28784-1.20231 7.1936-2.14795 6.09936-3.09359 5.24829-4.25537 4.64038-5.6333 4.03247-7.01123 3.72852-8.57829 3.72852-10.3345 3.72852-12.3879 4.1473-14.1711 4.98486-15.6841 5.82243-17.1971 7.02474-18.4534 8.5918-19.4531 10.1589-20.4528 12.0771-21.2026 14.3467-21.7024 16.6162-22.2022 19.1694-22.4521 22.0063-22.4521L27.0317-22.4521 27.0317-25.2891C27.0317-26.694 26.8831-27.9368 26.5859-29.0176 26.2887-30.0983 25.8092-30.9967 25.1472-31.7126 24.4853-32.4286 23.6274-32.969 22.5737-33.3337 21.52-33.6985 20.2231-33.8809 18.6831-33.8809 17.035-33.8809 15.5557-33.685 14.2454-33.2932 12.935-32.9014 11.7867-32.4692 10.8005-31.9963 9.81437-31.5235 8.99031-31.0912 8.32837-30.6995 7.66642-30.3077 7.17334-30.1118 6.84912-30.1118 6.63297-30.1118 6.44385-30.1658 6.28174-30.2739 6.11963-30.382 5.97778-30.5441 5.8562-30.7603 5.73462-30.9764 5.64681-31.2533 5.59277-31.5911 5.53874-31.9288 5.51172-32.3003 5.51172-32.7056 5.51172-33.381 5.559-33.9146 5.65356-34.3064 5.74813-34.6982 5.97778-35.0697 6.34253-35.4209 6.70727-35.7721 7.33545-36.1842 8.22705-36.657 9.11865-37.1298 10.1453-37.5621 11.3071-37.9539 12.4689-38.3456 13.7388-38.6698 15.1167-38.9265 16.4946-39.1832 17.8861-39.3115 19.291-39.3115 21.9118-39.3115 24.1408-39.0143 25.978-38.4199 27.8153-37.8255 29.3013-36.9542 30.436-35.8059 31.5708-34.6576 32.3949-33.2324 32.9082-31.5303 33.4215-29.8281 33.6782-27.8423 33.6782-25.5728ZM27.0317-17.6294 21.3174-17.6294C19.4801-17.6294 17.8861-17.474 16.5352-17.1633 15.1842-16.8526 14.063-16.3933 13.1714-15.7854 12.2798-15.1775 11.6246-14.448 11.2058-13.5969 10.787-12.7458 10.5776-11.7664 10.5776-10.6587 10.5776-8.76741 11.1788-7.26115 12.3811-6.13989 13.5834-5.01864 15.2653-4.45801 17.4268-4.45801 19.1829-4.45801 20.8108-4.90381 22.3103-5.79541 23.8098-6.68701 25.3836-8.05143 27.0317-9.88867ZM83.605-3.68799C83.605-2.90446 83.5509-2.28304 83.4429-1.82373 83.3348-1.36442 83.1727-1.02669 82.9565-0.810547 82.7404-0.594401 82.4162-0.391764 81.9839-0.202637 81.5516-0.0135091 81.0585 0.141846 80.5046 0.263428 79.9508 0.38501 79.3631 0.486328 78.7417 0.567383 78.1203 0.648437 77.4989 0.688965 76.8774 0.688965 74.9862 0.688965 73.3651 0.439046 72.0142-0.060791 70.6632-0.560628 69.5555-1.31714 68.6909-2.33032 67.8263-3.34351 67.1982-4.62687 66.8064-6.18042 66.4146-7.73397 66.2187-9.56445 66.2187-11.6719L66.2187-32.9893 61.1123-32.9893C60.707-32.9893 60.3828-33.2054 60.1396-33.6377 59.8965-34.07 59.7749-34.7725 59.7749-35.7451 59.7749-36.2585 59.8087-36.6908 59.8762-37.042 59.9438-37.3932 60.0316-37.6837 60.1396-37.9133 60.2477-38.143 60.3896-38.3051 60.5652-38.3997 60.7408-38.4942 60.9367-38.5415 61.1528-38.5415L66.2187-38.5415 66.2187-47.2144C66.2187-47.4035 66.266-47.5791 66.3606-47.7412 66.4552-47.9033 66.6308-48.0452 66.8874-48.1667 67.1441-48.2883 67.4886-48.3761 67.9209-48.4302 68.3532-48.4842 68.8935-48.5112 69.542-48.5112 70.2174-48.5112 70.7713-48.4842 71.2036-48.4302 71.6359-48.3761 71.9736-48.2883 72.2168-48.1667 72.46-48.0452 72.6356-47.9033 72.7436-47.7412 72.8517-47.5791 72.9057-47.4035 72.9058-47.2144L72.9058-38.5415 82.2676-38.5415C82.4837-38.5415 82.6728-38.4942 82.835-38.3997 82.9971-38.3051 83.1389-38.143 83.2605-37.9133 83.3821-37.6837 83.4699-37.3932 83.5239-37.042 83.5779-36.6908 83.605-36.2585 83.605-35.7451 83.605-34.7725 83.4834-34.07 83.2402-33.6377 82.9971-33.2054 82.6728-32.9893 82.2676-32.9893L72.9058-32.9893 72.9058-12.6445C72.9057-10.1318 73.2773-8.2338 74.0203-6.95044 74.7633-5.66707 76.0939-5.02539 78.0122-5.02539 78.6336-5.02539 79.1875-5.08618 79.6738-5.20776 80.1601-5.32934 80.5924-5.45768 80.9707-5.59277 81.3489-5.72786 81.6732-5.8562 81.9434-5.97778 82.2135-6.09936 82.4567-6.16016 82.6728-6.16016 82.8079-6.16016 82.9363-6.12638 83.0579-6.05884 83.1794-5.99129 83.274-5.86296 83.3415-5.67383 83.4091-5.4847 83.4699-5.22803 83.5239-4.90381 83.5779-4.57959 83.605-4.17432 83.605-3.68799ZM113.456-35.0967C113.456-34.5023 113.442-34.0024 113.415-33.5972 113.388-33.1919 113.334-32.8744 113.253-32.6448 113.172-32.4151 113.071-32.2395 112.949-32.1179 112.827-31.9963 112.659-31.9355 112.442-31.9355 112.226-31.9355 111.963-31.9963 111.652-32.1179 111.341-32.2395 110.99-32.3611 110.598-32.4827 110.207-32.6042 109.768-32.7191 109.281-32.8271 108.795-32.9352 108.268-32.9893 107.701-32.9893 107.025-32.9893 106.363-32.8542 105.715-32.584 105.066-32.3138 104.384-31.868 103.668-31.2466 102.952-30.6252 102.202-29.8011 101.419-28.7744 100.635-27.7477 99.7708-26.4914 98.8252-25.0054L98.8252-1.01318C98.8252-0.797038 98.7711-0.614665 98.6631-0.466064 98.555-0.317464 98.3794-0.189128 98.1362-0.0810547 97.8931 0.0270182 97.5553 0.108073 97.123 0.162109 96.6908 0.216146 96.1369 0.243164 95.4614 0.243164 94.813 0.243164 94.2726 0.216146 93.8403 0.162109 93.408 0.108073 93.0636 0.0270182 92.8069-0.0810547 92.5502-0.189128 92.3746-0.317464 92.28-0.466064 92.1855-0.614665 92.1382-0.797038 92.1382-1.01318L92.1382-37.4878C92.1382-37.7039 92.1787-37.8863 92.2598-38.0349 92.3408-38.1835 92.5029-38.3186 92.7461-38.4402 92.9892-38.5618 93.3-38.6428 93.6782-38.6833 94.0565-38.7239 94.5563-38.7441 95.1777-38.7441 95.7721-38.7441 96.2652-38.7239 96.657-38.6833 97.0487-38.6428 97.3527-38.5618 97.5688-38.4402 97.785-38.3186 97.9403-38.1835 98.0349-38.0349 98.1295-37.8863 98.1768-37.7039 98.1768-37.4878L98.1768-32.1787C99.1764-33.6377 100.115-34.8265 100.993-35.7451 101.871-36.6637 102.702-37.3865 103.486-37.9133 104.269-38.4402 105.046-38.8049 105.816-39.0076 106.586-39.2102 107.363-39.3115 108.146-39.3115 108.498-39.3115 108.896-39.2913 109.342-39.2507 109.788-39.2102 110.254-39.1359 110.74-39.0278 111.227-38.9198 111.666-38.7982 112.057-38.6631 112.449-38.528 112.726-38.3929 112.888-38.2578 113.05-38.1227 113.158-37.9944 113.212-37.8728 113.266-37.7512 113.314-37.5959 113.354-37.4067 113.395-37.2176 113.422-36.9407 113.435-36.5759 113.449-36.2112 113.456-35.7181 113.456-35.0967ZM146.566-0.972656C146.566-0.648437 146.458-0.405273 146.241-0.243164 146.025-0.0810547 145.728 0.0405273 145.35 0.121582 144.972 0.202637 144.418 0.243164 143.688 0.243164 142.986 0.243164 142.425 0.202637 142.006 0.121582 141.588 0.0405273 141.284-0.0810547 141.095-0.243164 140.905-0.405273 140.811-0.648437 140.811-0.972656L140.811-4.62012C139.217-2.91797 137.44-1.59408 135.481-0.648437 133.523 0.2972 131.449 0.770019 129.261 0.770019 127.342 0.770019 125.606 0.520101 124.053 0.0202637 122.499-0.479574 121.175-1.20231 120.081-2.14795 118.987-3.09359 118.136-4.25537 117.528-5.6333 116.92-7.01123 116.616-8.57829 116.616-10.3345 116.616-12.3879 117.035-14.1711 117.872-15.6841 118.71-17.1971 119.912-18.4534 121.479-19.4531 123.046-20.4528 124.965-21.2026 127.234-21.7024 129.504-22.2022 132.057-22.4521 134.894-22.4521L139.919-22.4521 139.919-25.2891C139.919-26.694 139.771-27.9368 139.473-29.0176 139.176-30.0983 138.697-30.9967 138.035-31.7126 137.373-32.4286 136.515-32.969 135.461-33.3337 134.408-33.6985 133.111-33.8809 131.571-33.8809 129.922-33.8809 128.443-33.685 127.133-33.2932 125.822-32.9014 124.674-32.4692 123.688-31.9963 122.702-31.5235 121.878-31.0912 121.216-30.6995 120.554-30.3077 120.061-30.1118 119.737-30.1118 119.52-30.1118 119.331-30.1658 119.169-30.2739 119.007-30.382 118.865-30.5441 118.744-30.7603 118.622-30.9764 118.534-31.2533 118.48-31.5911 118.426-31.9288 118.399-32.3003 118.399-32.7056 118.399-33.381 118.446-33.9146 118.541-34.3064 118.636-34.6982 118.865-35.0697 119.23-35.4209 119.595-35.7721 120.223-36.1842 121.115-36.657 122.006-37.1298 123.033-37.5621 124.195-37.9539 125.356-38.3456 126.626-38.6698 128.004-38.9265 129.382-39.1832 130.774-39.3115 132.178-39.3115 134.799-39.3115 137.028-39.0143 138.866-38.4199 140.703-37.8255 142.189-36.9542 143.324-35.8059 144.458-34.6576 145.282-33.2324 145.796-31.5303 146.309-29.8281 146.566-27.8423 146.566-25.5728ZM139.919-17.6294 134.205-17.6294C132.368-17.6294 130.774-17.474 129.423-17.1633 128.072-16.8526 126.95-16.3933 126.059-15.7854 125.167-15.1775 124.512-14.448 124.093-13.5969 123.675-12.7458 123.465-11.7664 123.465-10.6587 123.465-8.76741 124.066-7.26115 125.269-6.13989 126.471-5.01864 128.153-4.45801 130.314-4.45801 132.07-4.45801 133.698-4.90381 135.198-5.79541 136.697-6.68701 138.271-8.05143 139.919-9.88867ZM165.306-1.01318C165.306-0.797038 165.252-0.614665 165.144-0.466064 165.036-0.317464 164.861-0.189128 164.617-0.0810547 164.374 0.0270182 164.037 0.108073 163.604 0.162109 163.172 0.216146 162.618 0.243164 161.943 0.243164 161.294 0.243164 160.754 0.216146 160.322 0.162109 159.889 0.108073 159.545 0.0270182 159.288-0.0810547 159.031-0.189128 158.856-0.317464 158.761-0.466064 158.667-0.614665 158.619-0.797038 158.619-1.01318L158.619-37.4878C158.619-37.6769 158.667-37.8525 158.761-38.0146 158.856-38.1768 159.031-38.3118 159.288-38.4199 159.545-38.528 159.889-38.609 160.322-38.6631 160.754-38.7171 161.294-38.7441 161.943-38.7441 162.618-38.7441 163.172-38.7171 163.604-38.6631 164.037-38.609 164.374-38.528 164.617-38.4199 164.861-38.3118 165.036-38.1768 165.144-38.0146 165.252-37.8525 165.306-37.6769 165.306-37.4878ZM166.076-49.8081C166.076-48.241 165.779-47.1738 165.185-46.6064 164.59-46.0391 163.496-45.7554 161.902-45.7554 160.335-45.7554 159.261-46.0323 158.68-46.5862 158.099-47.1401 157.809-48.187 157.809-49.727 157.809-51.2941 158.106-52.3613 158.7-52.9287 159.295-53.4961 160.389-53.7798 161.983-53.7798 163.55-53.7798 164.624-53.5028 165.205-52.949 165.786-52.3951 166.076-51.3481 166.076-49.8081ZM208.934-1.01318C208.934-0.797038 208.88-0.614665 208.772-0.466064 208.664-0.317464 208.489-0.189128 208.245-0.0810547 208.002 0.0270182 207.664 0.108073 207.232 0.162109 206.8 0.216146 206.26 0.243164 205.611 0.243164 204.936 0.243164 204.382 0.216146 203.949 0.162109 203.517 0.108073 203.179 0.0270182 202.936-0.0810547 202.693-0.189128 202.518-0.317464 202.409-0.466064 202.301-0.614665 202.247-0.797038 202.247-1.01318L202.247-22.3711C202.247-24.4515 202.085-26.1266 201.761-27.3965 201.437-28.6663 200.964-29.7606 200.343-30.6792 199.721-31.5978 198.917-32.3003 197.931-32.7866 196.945-33.2729 195.803-33.5161 194.507-33.5161 192.831-33.5161 191.156-32.9217 189.481-31.7329 187.806-30.5441 186.05-28.8014 184.213-26.5049L184.213-1.01318C184.213-0.797038 184.159-0.614665 184.051-0.466064 183.942-0.317464 183.767-0.189128 183.524-0.0810547 183.281 0.0270182 182.943 0.108073 182.511 0.162109 182.078 0.216146 181.524 0.243164 180.849 0.243164 180.2 0.243164 179.66 0.216146 179.228 0.162109 178.796 0.108073 178.451 0.0270182 178.194-0.0810547 177.938-0.189128 177.762-0.317464 177.668-0.466064 177.573-0.614665 177.526-0.797038 177.526-1.01318L177.526-37.4878C177.526-37.7039 177.566-37.8863 177.647-38.0349 177.728-38.1835 177.89-38.3186 178.134-38.4402 178.377-38.5618 178.687-38.6428 179.066-38.6833 179.444-38.7239 179.944-38.7441 180.565-38.7441 181.16-38.7441 181.653-38.7239 182.044-38.6833 182.436-38.6428 182.74-38.5618 182.956-38.4402 183.172-38.3186 183.328-38.1835 183.422-38.0349 183.517-37.8863 183.564-37.7039 183.564-37.4878L183.564-32.665C185.618-34.9616 187.664-36.6435 189.704-37.7107 191.744-38.7779 193.804-39.3115 195.885-39.3115 198.316-39.3115 200.363-38.8995 202.024-38.0754 203.686-37.2514 205.03-36.1504 206.057-34.7725 207.084-33.3945 207.82-31.7802 208.266-29.9294 208.711-28.0787 208.934-25.8564 208.934-23.2627ZM227.754-1.01318C227.754-0.797038 227.7-0.614665 227.592-0.466064 227.484-0.317464 227.309-0.189128 227.065-0.0810547 226.822 0.0270182 226.484 0.108073 226.052 0.162109 225.62 0.216146 225.066 0.243164 224.391 0.243164 223.742 0.243164 223.202 0.216146 222.769 0.162109 222.337 0.108073 221.993 0.0270182 221.736-0.0810547 221.479-0.189128 221.304-0.317464 221.209-0.466064 221.115-0.614665 221.067-0.797038 221.067-1.01318L221.067-37.4878C221.067-37.6769 221.115-37.8525 221.209-38.0146 221.304-38.1768 221.479-38.3118 221.736-38.4199 221.993-38.528 222.337-38.609 222.769-38.6631 223.202-38.7171 223.742-38.7441 224.391-38.7441 225.066-38.7441 225.62-38.7171 226.052-38.6631 226.484-38.609 226.822-38.528 227.065-38.4199 227.309-38.3118 227.484-38.1768 227.592-38.0146 227.7-37.8525 227.754-37.6769 227.754-37.4878ZM228.524-49.8081C228.524-48.241 228.227-47.1738 227.633-46.6064 227.038-46.0391 225.944-45.7554 224.35-45.7554 222.783-45.7554 221.709-46.0323 221.128-46.5862 220.547-47.1401 220.257-48.187 220.257-49.727 220.257-51.2941 220.554-52.3613 221.148-52.9287 221.743-53.4961 222.837-53.7798 224.431-53.7798 225.998-53.7798 227.072-53.5028 227.653-52.949 228.234-52.3951 228.524-51.3481 228.524-49.8081ZM271.382-1.01318C271.382-0.797038 271.328-0.614665 271.22-0.466064 271.112-0.317464 270.936-0.189128 270.693-0.0810547 270.45 0.0270182 270.112 0.108073 269.68 0.162109 269.248 0.216146 268.707 0.243164 268.059 0.243164 267.384 0.243164 266.83 0.216146 266.397 0.162109 265.965 0.108073 265.627 0.0270182 265.384-0.0810547 265.141-0.189128 264.965-0.317464 264.857-0.466064 264.749-0.614665 264.695-0.797038 264.695-1.01318L264.695-22.3711C264.695-24.4515 264.533-26.1266 264.209-27.3965 263.885-28.6663 263.412-29.7606 262.79-30.6792 262.169-31.5978 261.365-32.3003 260.379-32.7866 259.393-33.2729 258.251-33.5161 256.955-33.5161 255.279-33.5161 253.604-32.9217 251.929-31.7329 250.254-30.5441 248.498-28.8014 246.661-26.5049L246.661-1.01318C246.661-0.797038 246.607-0.614665 246.498-0.466064 246.39-0.317464 246.215-0.189128 245.972-0.0810547 245.728 0.0270182 245.391 0.108073 244.958 0.162109 244.526 0.216146 243.972 0.243164 243.297 0.243164 242.648 0.243164 242.108 0.216146 241.676 0.162109 241.243 0.108073 240.899 0.0270182 240.642-0.0810547 240.386-0.189128 240.21-0.317464 240.115-0.466064 240.021-0.614665 239.974-0.797038 239.974-1.01318L239.974-37.4878C239.974-37.7039 240.014-37.8863 240.095-38.0349 240.176-38.1835 240.338-38.3186 240.581-38.4402 240.825-38.5618 241.135-38.6428 241.514-38.6833 241.892-38.7239 242.392-38.7441 243.013-38.7441 243.608-38.7441 244.101-38.7239 244.492-38.6833 244.884-38.6428 245.188-38.5618 245.404-38.4402 245.62-38.3186 245.776-38.1835 245.87-38.0349 245.965-37.8863 246.012-37.7039 246.012-37.4878L246.012-32.665C248.066-34.9616 250.112-36.6435 252.152-37.7107 254.192-38.7779 256.252-39.3115 258.332-39.3115 260.764-39.3115 262.811-38.8995 264.472-38.0754 266.134-37.2514 267.478-36.1504 268.505-34.7725 269.531-33.3945 270.268-31.7802 270.714-29.9294 271.159-28.0787 271.382-25.8564 271.382-23.2627ZM313.992-35.8262C313.992-34.8805 313.863-34.1983 313.607-33.7795 313.35-33.3608 313.019-33.1514 312.614-33.1514L307.386-33.1514C308.331-32.1787 308.993-31.1047 309.372-29.9294 309.75-28.7541 309.939-27.5316 309.939-26.2617 309.939-24.1543 309.601-22.29 308.926-20.6689 308.25-19.0478 307.285-17.6767 306.028-16.5554 304.772-15.4342 303.279-14.5763 301.55-13.9819 299.821-13.3875 297.902-13.0903 295.795-13.0903 294.309-13.0903 292.897-13.2862 291.56-13.678 290.223-14.0697 289.189-14.5628 288.46-15.1572 287.973-14.6709 287.575-14.117 287.264-13.4956 286.953-12.8742 286.798-12.1582 286.798-11.3477 286.798-10.402 287.237-9.61849 288.115-8.99707 288.993-8.37565 290.162-8.03792 291.621-7.98389L301.145-7.57861C302.955-7.52458 304.616-7.27466 306.129-6.82886 307.643-6.38306 308.953-5.74813 310.061-4.92407 311.168-4.10002 312.033-3.08683 312.654-1.88452 313.276-0.68221 313.586 0.715983 313.587 2.31006 313.586 3.98519 313.235 5.57926 312.533 7.09228 311.83 8.6053 310.756 9.93595 309.311 11.0842 307.865 12.2325 306.021 13.1376 303.779 13.7996 301.536 14.4615 298.889 14.7925 295.836 14.7925 292.891 14.7925 290.385 14.5426 288.318 14.0427 286.251 13.5429 284.555 12.8607 283.232 11.9961 281.908 11.1315 280.948 10.0981 280.354 8.89575 279.76 7.69344 279.462 6.38981 279.462 4.98486 279.462 4.09326 279.571 3.22868 279.787 2.39111 280.003 1.55355 280.334 0.75651 280.78 0 281.225-0.75651 281.779-1.47925 282.441-2.16821 283.103-2.85718 283.866-3.53939 284.731-4.21484 283.407-4.8903 282.428-5.74137 281.793-6.76807 281.158-7.79476 280.84-8.9025 280.84-10.0913 280.84-11.7394 281.178-13.2119 281.854-14.5088 282.529-15.8057 283.367-16.9674 284.366-17.9941 283.529-18.9938 282.867-20.1218 282.38-21.3782 281.894-22.6345 281.651-24.1543 281.651-25.9375 281.651-28.0179 282.002-29.8822 282.705-31.5303 283.407-33.1784 284.38-34.5698 285.623-35.7046 286.865-36.8394 288.358-37.7107 290.101-38.3186 291.844-38.9265 293.742-39.2305 295.795-39.2305 296.903-39.2305 297.936-39.1697 298.895-39.0481 299.854-38.9265 300.753-38.7576 301.59-38.5415L312.614-38.5415C313.073-38.5415 313.418-38.3186 313.647-37.8728 313.877-37.427 313.992-36.7448 313.992-35.8262ZM303.536-26.2212C303.536-28.7069 302.854-30.6454 301.489-32.0369 300.125-33.4283 298.186-34.124 295.673-34.124 294.377-34.124 293.249-33.9079 292.289-33.4756 291.33-33.0433 290.533-32.4489 289.898-31.6924 289.263-30.9359 288.791-30.0645 288.48-29.0784 288.169-28.0922 288.014-27.0588 288.014-25.978 288.014-23.5734 288.696-21.6821 290.06-20.3042 291.425-18.9263 293.336-18.2373 295.795-18.2373 297.119-18.2373 298.267-18.4467 299.24-18.8655 300.212-19.2843 301.016-19.8652 301.651-20.6082 302.286-21.3512 302.759-22.209 303.07-23.1816 303.38-24.1543 303.536-25.1675 303.536-26.2212ZM306.9 2.6748C306.899 1.10775 306.258-0.101318 304.974-0.952393 303.691-1.80347 301.955-2.25602 299.767-2.31006L290.324-2.63428C289.459-1.95882 288.75-1.31714 288.196-0.709228 287.642-0.101318 287.203 0.479574 286.879 1.03345 286.555 1.58732 286.332 2.13444 286.21 2.6748 286.089 3.21517 286.028 3.76904 286.028 4.33643 286.028 6.09261 286.92 7.42326 288.703 8.32837 290.486 9.23348 292.972 9.68603 296.16 9.68603 298.186 9.68603 299.882 9.49015 301.246 9.09839 302.61 8.70662 303.711 8.18652 304.549 7.53809 305.386 6.88965 305.988 6.14665 306.352 5.30908 306.717 4.47152 306.899 3.59342 306.9 2.6748ZM360.347-3.68799C360.347-2.90446 360.293-2.28304 360.185-1.82373 360.076-1.36442 359.914-1.02669 359.698-0.810547 359.482-0.594401 359.158-0.391764 358.726-0.202637 358.293-0.0135091 357.8 0.141846 357.246 0.263428 356.692 0.38501 356.105 0.486328 355.483 0.567383 354.862 0.648437 354.24 0.688965 353.619 0.688965 351.728 0.688965 350.107 0.439046 348.756-0.060791 347.405-0.560628 346.297-1.31714 345.433-2.33032 344.568-3.34351 343.94-4.62687 343.548-6.18042 343.156-7.73397 342.96-9.56445 342.96-11.6719L342.96-32.9893 337.854-32.9893C337.449-32.9893 337.124-33.2054 336.881-33.6377 336.638-34.07 336.517-34.7725 336.517-35.7451 336.517-36.2585 336.55-36.6908 336.618-37.042 336.685-37.3932 336.773-37.6837 336.881-37.9133 336.989-38.143 337.131-38.3051 337.307-38.3997 337.482-38.4942 337.678-38.5415 337.894-38.5415L342.96-38.5415 342.96-47.2144C342.96-47.4035 343.008-47.5791 343.102-47.7412 343.197-47.9033 343.372-48.0452 343.629-48.1667 343.886-48.2883 344.23-48.3761 344.663-48.4302 345.095-48.4842 345.635-48.5112 346.284-48.5112 346.959-48.5112 347.513-48.4842 347.945-48.4302 348.378-48.3761 348.715-48.2883 348.958-48.1667 349.202-48.0452 349.377-47.9033 349.485-47.7412 349.593-47.5791 349.647-47.4035 349.647-47.2144L349.647-38.5415 359.009-38.5415C359.225-38.5415 359.414-38.4942 359.577-38.3997 359.739-38.3051 359.881-38.143 360.002-37.9133 360.124-37.6837 360.212-37.3932 360.266-37.042 360.32-36.6908 360.347-36.2585 360.347-35.7451 360.347-34.7725 360.225-34.07 359.982-33.6377 359.739-33.2054 359.414-32.9893 359.009-32.9893L349.647-32.9893 349.647-12.6445C349.647-10.1318 350.019-8.2338 350.762-6.95044 351.505-5.66707 352.836-5.02539 354.754-5.02539 355.375-5.02539 355.929-5.08618 356.415-5.20776 356.902-5.32934 357.334-5.45768 357.712-5.59277 358.091-5.72786 358.415-5.8562 358.685-5.97778 358.955-6.09936 359.198-6.16016 359.414-6.16016 359.55-6.16016 359.678-6.12638 359.799-6.05884 359.921-5.99129 360.016-5.86296 360.083-5.67383 360.151-5.4847 360.212-5.22803 360.266-4.90381 360.32-4.57959 360.347-4.17432 360.347-3.68799ZM385.496 0 380.633 13.4145C380.471 13.8468 380.059 14.1778 379.397 14.4075 378.735 14.6371 377.728 14.752 376.377 14.752 375.675 14.752 375.108 14.7182 374.675 14.6506 374.243 14.5831 373.912 14.4683 373.682 14.3062 373.453 14.144 373.324 13.9279 373.297 13.6577 373.27 13.3875 373.338 13.0633 373.5 12.6851L378.525 0C378.282-0.108073 378.052-0.283691 377.836-0.526855 377.62-0.770019 377.472-1.02669 377.391-1.29687L364.381-36.1504C364.165-36.7178 364.057-37.1636 364.057-37.4878 364.057-37.812 364.165-38.0687 364.381-38.2578 364.597-38.4469 364.949-38.5753 365.435-38.6428 365.921-38.7104 366.57-38.7441 367.38-38.7441 368.191-38.7441 368.826-38.7239 369.285-38.6833 369.744-38.6428 370.109-38.5685 370.379-38.4604 370.65-38.3524 370.845-38.197 370.967-37.9944 371.089-37.7917 371.217-37.5148 371.352-37.1636L381.768-7.90283 381.889-7.90283 391.94-37.3257C392.102-37.839 392.298-38.17 392.528-38.3186 392.757-38.4672 393.102-38.5753 393.561-38.6428 394.02-38.7104 394.682-38.7441 395.547-38.7441 396.303-38.7441 396.925-38.7104 397.411-38.6428 397.897-38.5753 398.255-38.4469 398.485-38.2578 398.715-38.0687 398.829-37.812 398.83-37.4878 398.829-37.1636 398.748-36.7583 398.586-36.272ZM439.676-19.8179C439.676-16.6297 439.332-13.7658 438.643-11.2261 437.954-8.68636 436.94-6.53166 435.603-4.76196 434.266-2.99227 432.611-1.62785 430.638-0.668701 428.666 0.290446 426.41 0.770019 423.87 0.770019 422.79 0.770019 421.79 0.661947 420.871 0.445801 419.953 0.229655 419.054-0.108073 418.176-0.567383 417.298-1.02669 416.427-1.60758 415.562-2.31006 414.698-3.01253 413.779-3.83659 412.806-4.78223L412.806 13.4551C412.806 13.6712 412.752 13.8603 412.644 14.0225 412.536 14.1846 412.361 14.3197 412.117 14.4277 411.874 14.5358 411.537 14.6169 411.104 14.6709 410.672 14.7249 410.118 14.752 409.443 14.752 408.794 14.752 408.254 14.7249 407.822 14.6709 407.389 14.6169 407.045 14.5358 406.788 14.4277 406.531 14.3197 406.356 14.1846 406.261 14.0225 406.167 13.8603 406.119 13.6712 406.119 13.4551L406.119-37.4878C406.119-37.7309 406.16-37.9268 406.241-38.0754 406.322-38.224 406.484-38.3524 406.727-38.4604 406.97-38.5685 407.281-38.6428 407.659-38.6833 408.038-38.7239 408.497-38.7441 409.037-38.7441 409.605-38.7441 410.071-38.7239 410.436-38.6833 410.8-38.6428 411.104-38.5685 411.347-38.4604 411.591-38.3524 411.759-38.224 411.854-38.0754 411.949-37.9268 411.996-37.7309 411.996-37.4878L411.996-32.584C413.104-33.7187 414.171-34.7049 415.198-35.5425 416.224-36.38 417.258-37.0758 418.298-37.6296 419.338-38.1835 420.405-38.6023 421.5-38.886 422.594-39.1697 423.749-39.3115 424.965-39.3115 427.612-39.3115 429.868-38.7982 431.733-37.7715 433.597-36.7448 435.117-35.3398 436.292-33.5566 437.467-31.7734 438.325-29.6998 438.866-27.3357 439.406-24.9716 439.676-22.4657 439.676-19.8179ZM432.746-19.0478C432.746-20.9121 432.603-22.7156 432.318-24.4583 432.032-26.2009 431.543-27.7477 430.85-29.0986 430.157-30.4495 429.226-31.5303 428.057-32.3408 426.888-33.1514 425.433-33.5566 423.694-33.5566 422.824-33.5566 421.967-33.4283 421.125-33.1716 420.282-32.915 419.426-32.5097 418.556-31.9558 417.686-31.4019 416.775-30.6724 415.824-29.7673 414.872-28.8622 413.866-27.7477 412.806-26.4238L412.806-11.915C414.655-9.67252 416.408-7.95687 418.067-6.76807 419.725-5.57926 421.465-4.98486 423.286-4.98486 424.971-4.98486 426.419-5.39014 427.628-6.20068 428.838-7.01123 429.817-8.09196 430.564-9.44287 431.312-10.7938 431.862-12.3068 432.216-13.9819 432.569-15.6571 432.746-17.3457 432.746-19.0478ZM480.786-20.8311C480.786-19.7773 480.521-19.0276 479.992-18.5818 479.463-18.136 478.859-17.9131 478.18-17.9131L454.16-17.9131C454.16-15.8867 454.363-14.063 454.77-12.4419 455.178-10.8208 455.856-9.42936 456.807-8.26758 457.757-7.10579 458.992-6.21419 460.513-5.59277 462.033-4.97135 463.893-4.66064 466.092-4.66064 467.829-4.66064 469.377-4.80249 470.734-5.08618 472.092-5.36987 473.266-5.68734 474.257-6.03857 475.248-6.38981 476.063-6.70727 476.701-6.99097 477.339-7.27466 477.821-7.4165 478.147-7.4165 478.337-7.4165 478.506-7.36922 478.656-7.27466 478.805-7.18009 478.92-7.03825 479.002-6.84912 479.083-6.65999 479.144-6.39657 479.185-6.05884 479.226-5.72111 479.246-5.30908 479.246-4.82275 479.246-4.47152 479.233-4.16756 479.206-3.91089 479.178-3.65422 479.145-3.42456 479.104-3.22192 479.064-3.01929 478.996-2.83691 478.902-2.6748 478.807-2.5127 478.685-2.35734 478.537-2.20874 478.388-2.06014 477.949-1.81698 477.22-1.47925 476.49-1.14152 475.545-0.810547 474.383-0.486328 473.221-0.162109 471.877 0.128337 470.35 0.38501 468.824 0.641683 467.196 0.770019 465.467 0.770019 462.468 0.770019 459.84 0.351237 457.584-0.486328 455.328-1.32389 453.43-2.56673 451.89-4.21484 450.35-5.86296 449.188-7.92985 448.405-10.4155 447.621-12.9012 447.229-15.7922 447.229-19.0884 447.229-22.2225 447.635-25.0391 448.445-27.5383 449.256-30.0375 450.424-32.1584 451.951-33.9011 453.477-35.6438 455.321-36.9812 457.483-37.9133 459.644-38.8455 462.062-39.3115 464.737-39.3115 467.601-39.3115 470.04-38.8522 472.052-37.9336 474.065-37.015 475.72-35.7789 477.017-34.2253 478.314-32.6718 479.266-30.8481 479.874-28.7541 480.482-26.6602 480.786-24.4245 480.786-22.0469ZM474.059-22.8169C474.14-26.3293 473.358-29.0851 471.714-31.0845 470.069-33.0838 467.63-34.0835 464.395-34.0835 462.736-34.0835 461.282-33.7728 460.032-33.1514 458.781-32.5299 457.735-31.7059 456.892-30.6792 456.049-29.6525 455.396-28.4569 454.934-27.0925 454.472-25.7281 454.214-24.3029 454.16-22.8169ZM528.784-3.68799C528.784-2.90446 528.73-2.28304 528.622-1.82373 528.514-1.36442 528.352-1.02669 528.136-0.810547 527.92-0.594401 527.595-0.391764 527.163-0.202637 526.731-0.0135091 526.238 0.141846 525.684 0.263428 525.13 0.38501 524.542 0.486328 523.921 0.567383 523.299 0.648437 522.678 0.688965 522.057 0.688965 520.165 0.688965 518.544 0.439046 517.193-0.060791 515.842-0.560628 514.735-1.31714 513.87-2.33032 513.005-3.34351 512.377-4.62687 511.986-6.18042 511.594-7.73397 511.398-9.56445 511.398-11.6719L511.398-32.9893 506.291-32.9893C505.886-32.9893 505.562-33.2054 505.319-33.6377 505.076-34.07 504.954-34.7725 504.954-35.7451 504.954-36.2585 504.988-36.6908 505.055-37.042 505.123-37.3932 505.211-37.6837 505.319-37.9133 505.427-38.143 505.569-38.3051 505.744-38.3997 505.92-38.4942 506.116-38.5415 506.332-38.5415L511.398-38.5415 511.398-47.2144C511.398-47.4035 511.445-47.5791 511.54-47.7412 511.634-47.9033 511.81-48.0452 512.067-48.1667 512.323-48.2883 512.668-48.3761 513.1-48.4302 513.532-48.4842 514.073-48.5112 514.721-48.5112 515.397-48.5112 515.95-48.4842 516.383-48.4302 516.815-48.3761 517.153-48.2883 517.396-48.1667 517.639-48.0452 517.815-47.9033 517.923-47.7412 518.031-47.5791 518.085-47.4035 518.085-47.2144L518.085-38.5415 527.447-38.5415C527.663-38.5415 527.852-38.4942 528.014-38.3997 528.176-38.3051 528.318-38.143 528.44-37.9133 528.561-37.6837 528.649-37.3932 528.703-37.042 528.757-36.6908 528.784-36.2585 528.784-35.7451 528.784-34.7725 528.663-34.07 528.419-33.6377 528.176-33.2054 527.852-32.9893 527.447-32.9893L518.085-32.9893 518.085-12.6445C518.085-10.1318 518.456-8.2338 519.199-6.95044 519.942-5.66707 521.273-5.02539 523.191-5.02539 523.813-5.02539 524.367-5.08618 524.853-5.20776 525.339-5.32934 525.772-5.45768 526.15-5.59277 526.528-5.72786 526.852-5.8562 527.122-5.97778 527.393-6.09936 527.636-6.16016 527.852-6.16016 527.987-6.16016 528.115-6.12638 528.237-6.05884 528.359-5.99129 528.453-5.86296 528.521-5.67383 528.588-5.4847 528.649-5.22803 528.703-4.90381 528.757-4.57959 528.784-4.17432 528.784-3.68799ZM570.437-19.6558C570.437-16.6838 570.045-13.9482 569.261-11.449 568.478-8.94979 567.309-6.79508 565.756-4.98486 564.202-3.17464 562.257-1.76294 559.92-0.749756 557.583 0.263428 554.874 0.770019 551.794 0.770019 548.795 0.770019 546.181 0.324219 543.952-0.567383 541.723-1.45898 539.865-2.75586 538.38-4.45801 536.893-6.16016 535.786-8.22705 535.056-10.6587 534.327-13.0903 533.962-15.8462 533.962-18.9263 533.962-21.8983 534.347-24.6339 535.117-27.1331 535.887-29.6322 537.049-31.7869 538.602-33.5972 540.156-35.4074 542.094-36.8123 544.418-37.812 546.742-38.8117 549.457-39.3115 552.564-39.3115 555.563-39.3115 558.177-38.8657 560.406-37.9741 562.635-37.0825 564.493-35.7856 565.979-34.0835 567.465-32.3813 568.579-30.3144 569.322-27.8828 570.065-25.4512 570.437-22.7088 570.437-19.6558ZM563.506-19.21C563.506-21.1823 563.322-23.0465 562.954-24.8027 562.586-26.5589 561.979-28.099 561.134-29.4228 560.289-30.7467 559.144-31.7937 557.699-32.5637 556.255-33.3337 554.455-33.7187 552.301-33.7187 550.311-33.7187 548.601-33.3675 547.169-32.665 545.738-31.9626 544.559-30.9696 543.632-29.6863 542.705-28.4029 542.017-26.8831 541.567-25.127 541.117-23.3708 540.892-21.4525 540.892-19.3721 540.892-17.3727 541.076-15.495 541.444-13.7388 541.812-11.9826 542.426-10.4493 543.285-9.13892 544.143-7.82853 545.295-6.78833 546.74-6.01831 548.185-5.24829 549.984-4.86328 552.138-4.86328 554.101-4.86328 555.805-5.21452 557.25-5.91699 558.695-6.61947 559.88-7.60563 560.807-8.87549 561.734-10.1453 562.416-11.6584 562.852-13.4145 563.288-15.1707 563.506-17.1025 563.506-19.21Z" fill="#FFFFFF" transform="matrix(1 0 0 1 290.141 122)"/><path d="M12.8877-1.01318C12.8877-0.797038 12.8337-0.614665 12.7256-0.466064 12.6175-0.317464 12.4419-0.189128 12.1987-0.0810547 11.9556 0.0270182 11.6178 0.108073 11.1855 0.162109 10.7533 0.216146 10.1994 0.243164 9.52392 0.243164 8.87549 0.243164 8.33512 0.216146 7.90283 0.162109 7.47054 0.108073 7.12606 0.0270182 6.86938-0.0810547 6.61271-0.189128 6.43709-0.317464 6.34253-0.466064 6.24796-0.614665 6.20068-0.797038 6.20068-1.01318L6.20068-55.1577C6.20068-55.3739 6.24796-55.563 6.34253-55.7251 6.43709-55.8872 6.61271-56.0223 6.86938-56.1304 7.12606-56.2384 7.47054-56.3195 7.90283-56.3735 8.33512-56.4276 8.87549-56.4546 9.52392-56.4546 10.1994-56.4546 10.7533-56.4276 11.1855-56.3735 11.6178-56.3195 11.9556-56.2384 12.1987-56.1304 12.4419-56.0223 12.6175-55.8872 12.7256-55.7251 12.8337-55.563 12.8877-55.3739 12.8877-55.1577ZM56.2319-20.8311C56.2319-19.7773 55.9673-19.0276 55.4382-18.5818 54.909-18.136 54.305-17.9131 53.6261-17.9131L29.6055-17.9131C29.6055-15.8867 29.809-14.063 30.2162-12.4419 30.6234-10.8208 31.3021-9.42936 32.2524-8.26758 33.2027-7.10579 34.438-6.21419 35.9584-5.59277 37.4789-4.97135 39.3386-4.66064 41.5376-4.66064 43.2752-4.66064 44.8227-4.80249 46.1802-5.08618 47.5377-5.36987 48.7119-5.68734 49.7029-6.03857 50.6939-6.38981 51.5085-6.70727 52.1466-6.99097 52.7847-7.27466 53.2667-7.4165 53.5926-7.4165 53.7826-7.4165 53.9522-7.36922 54.1014-7.27466 54.2506-7.18009 54.366-7.03825 54.4475-6.84912 54.5289-6.65999 54.59-6.39657 54.6308-6.05884 54.6715-5.72111 54.6919-5.30908 54.6919-4.82275 54.6919-4.47152 54.6784-4.16756 54.6514-3.91089 54.6243-3.65422 54.5906-3.42456 54.55-3.22192 54.5095-3.01929 54.442-2.83691 54.3474-2.6748 54.2528-2.5127 54.1313-2.35734 53.9827-2.20874 53.8341-2.06014 53.395-1.81698 52.6655-1.47925 51.936-1.14152 50.9904-0.810547 49.8286-0.486328 48.6668-0.162109 47.3227 0.128337 45.7961 0.38501 44.2696 0.641683 42.6418 0.770019 40.9126 0.770019 37.9136 0.770019 35.286 0.351237 33.03-0.486328 30.774-1.32389 28.876-2.56673 27.3359-4.21484 25.7959-5.86296 24.6341-7.92985 23.8506-10.4155 23.0671-12.9012 22.6753-15.7922 22.6753-19.0884 22.6753-22.2225 23.0806-25.0391 23.8911-27.5383 24.7017-30.0375 25.8702-32.1584 27.3967-33.9011 28.9233-35.6438 30.7672-36.9812 32.9287-37.9133 35.0902-38.8455 37.5083-39.3115 40.1831-39.3115 43.047-39.3115 45.4854-38.8522 47.4983-37.9336 49.5111-37.015 51.166-35.7789 52.4629-34.2253 53.7598-32.6718 54.7122-30.8481 55.3201-28.7541 55.928-26.6602 56.2319-24.4245 56.2319-22.0469ZM49.5044-22.8169C49.5854-26.3293 48.8038-29.0851 47.1595-31.0845 45.5152-33.0838 43.0755-34.0835 39.8405-34.0835 38.1823-34.0835 36.7279-33.7728 35.4775-33.1514 34.2271-32.5299 33.1804-31.7059 32.3376-30.6792 31.4947-29.6525 30.8423-28.4569 30.3802-27.0925 29.9182-25.7281 29.6599-24.3029 29.6055-22.8169ZM93.8345-0.972656C93.8345-0.648437 93.7264-0.405273 93.5102-0.243164 93.2941-0.0810547 92.9969 0.0405273 92.6186 0.121582 92.2404 0.202637 91.6865 0.243164 90.957 0.243164 90.2545 0.243164 89.6939 0.202637 89.2751 0.121582 88.8564 0.0405273 88.5524-0.0810547 88.3633-0.243164 88.1741-0.405273 88.0796-0.648437 88.0796-0.972656L88.0796-4.62012C86.4855-2.91797 84.7091-1.59408 82.7502-0.648437 80.7914 0.2972 78.7178 0.770019 76.5293 0.770019 74.611 0.770019 72.8751 0.520101 71.3215 0.0202637 69.768-0.479574 68.4441-1.20231 67.3498-2.14795 66.2556-3.09359 65.4045-4.25537 64.7966-5.6333 64.1887-7.01123 63.8848-8.57829 63.8848-10.3345 63.8848-12.3879 64.3035-14.1711 65.1411-15.6841 65.9787-17.1971 67.181-18.4534 68.748-19.4531 70.3151-20.4528 72.2334-21.2026 74.5029-21.7024 76.7725-22.2022 79.3257-22.4521 82.1626-22.4521L87.188-22.4521 87.188-25.2891C87.188-26.694 87.0394-27.9368 86.7422-29.0176 86.445-30.0983 85.9654-30.9967 85.3035-31.7126 84.6415-32.4286 83.7837-32.969 82.73-33.3337 81.6763-33.6985 80.3794-33.8809 78.8393-33.8809 77.1912-33.8809 75.712-33.685 74.4016-33.2932 73.0912-32.9014 71.9429-32.4692 70.9568-31.9963 69.9706-31.5235 69.1466-31.0912 68.4846-30.6995 67.8227-30.3077 67.3296-30.1118 67.0054-30.1118 66.7892-30.1118 66.6001-30.1658 66.438-30.2739 66.2759-30.382 66.134-30.5441 66.0124-30.7603 65.8909-30.9764 65.8031-31.2533 65.749-31.5911 65.695-31.9288 65.668-32.3003 65.668-32.7056 65.668-33.381 65.7152-33.9146 65.8098-34.3064 65.9044-34.6982 66.134-35.0697 66.4988-35.4209 66.8635-35.7721 67.4917-36.1842 68.3833-36.657 69.2749-37.1298 70.3016-37.5621 71.4634-37.9539 72.6252-38.3456 73.895-38.6698 75.2729-38.9265 76.6509-39.1832 78.0423-39.3115 79.4473-39.3115 82.068-39.3115 84.297-39.0143 86.1343-38.4199 87.9715-37.8255 89.4575-36.9542 90.5923-35.8059 91.727-34.6576 92.5511-33.2324 93.0644-31.5303 93.5778-29.8281 93.8345-27.8423 93.8345-25.5728ZM87.188-17.6294 81.4736-17.6294C79.6364-17.6294 78.0423-17.474 76.6914-17.1633 75.3405-16.8526 74.2192-16.3933 73.3276-15.7854 72.436-15.1775 71.7808-14.448 71.3621-13.5969 70.9433-12.7458 70.7339-11.7664 70.7339-10.6587 70.7339-8.76741 71.335-7.26115 72.5373-6.13989 73.7397-5.01864 75.4215-4.45801 77.583-4.45801 79.3392-4.45801 80.967-4.90381 82.4665-5.79541 83.966-6.68701 85.5399-8.05143 87.188-9.88867ZM127.206-35.0967C127.206-34.5023 127.192-34.0024 127.165-33.5972 127.138-33.1919 127.084-32.8744 127.003-32.6448 126.922-32.4151 126.821-32.2395 126.699-32.1179 126.577-31.9963 126.409-31.9355 126.192-31.9355 125.976-31.9355 125.713-31.9963 125.402-32.1179 125.091-32.2395 124.74-32.3611 124.348-32.4827 123.957-32.6042 123.518-32.7191 123.031-32.8271 122.545-32.9352 122.018-32.9893 121.451-32.9893 120.775-32.9893 120.113-32.8542 119.465-32.584 118.816-32.3138 118.134-31.868 117.418-31.2466 116.702-30.6252 115.952-29.8011 115.169-28.7744 114.385-27.7477 113.521-26.4914 112.575-25.0054L112.575-1.01318C112.575-0.797038 112.521-0.614665 112.413-0.466064 112.305-0.317464 112.129-0.189128 111.886-0.0810547 111.643 0.0270182 111.305 0.108073 110.873 0.162109 110.441 0.216146 109.887 0.243164 109.211 0.243164 108.563 0.243164 108.023 0.216146 107.59 0.162109 107.158 0.108073 106.814 0.0270182 106.557-0.0810547 106.3-0.189128 106.125-0.317464 106.03-0.466064 105.935-0.614665 105.888-0.797038 105.888-1.01318L105.888-37.4878C105.888-37.7039 105.929-37.8863 106.01-38.0349 106.091-38.1835 106.253-38.3186 106.496-38.4402 106.739-38.5618 107.05-38.6428 107.428-38.6833 107.806-38.7239 108.306-38.7441 108.928-38.7441 109.522-38.7441 110.015-38.7239 110.407-38.6833 110.799-38.6428 111.103-38.5618 111.319-38.4402 111.535-38.3186 111.69-38.1835 111.785-38.0349 111.879-37.8863 111.927-37.7039 111.927-37.4878L111.927-32.1787C112.926-33.6377 113.865-34.8265 114.743-35.7451 115.621-36.6637 116.452-37.3865 117.236-37.9133 118.019-38.4402 118.796-38.8049 119.566-39.0076 120.336-39.2102 121.113-39.3115 121.896-39.3115 122.248-39.3115 122.646-39.2913 123.092-39.2507 123.538-39.2102 124.004-39.1359 124.49-39.0278 124.977-38.9198 125.416-38.7982 125.807-38.6631 126.199-38.528 126.476-38.3929 126.638-38.2578 126.8-38.1227 126.908-37.9944 126.962-37.8728 127.016-37.7512 127.064-37.5959 127.104-37.4067 127.145-37.2176 127.172-36.9407 127.185-36.5759 127.199-36.2112 127.206-35.7181 127.206-35.0967ZM165.943-1.01318C165.943-0.797038 165.889-0.614665 165.781-0.466064 165.673-0.317464 165.497-0.189128 165.254-0.0810547 165.011 0.0270182 164.673 0.108073 164.241 0.162109 163.808 0.216146 163.268 0.243164 162.619 0.243164 161.944 0.243164 161.39 0.216146 160.958 0.162109 160.526 0.108073 160.188 0.0270182 159.945-0.0810547 159.701-0.189128 159.526-0.317464 159.418-0.466064 159.31-0.614665 159.256-0.797038 159.256-1.01318L159.256-22.3711C159.256-24.4515 159.094-26.1266 158.769-27.3965 158.445-28.6663 157.972-29.7606 157.351-30.6792 156.729-31.5978 155.926-32.3003 154.94-32.7866 153.953-33.2729 152.812-33.5161 151.515-33.5161 149.84-33.5161 148.165-32.9217 146.49-31.7329 144.814-30.5441 143.058-28.8014 141.221-26.5049L141.221-1.01318C141.221-0.797038 141.167-0.614665 141.059-0.466064 140.951-0.317464 140.775-0.189128 140.532-0.0810547 140.289 0.0270182 139.951 0.108073 139.519 0.162109 139.087 0.216146 138.533 0.243164 137.857 0.243164 137.209 0.243164 136.668 0.216146 136.236 0.162109 135.804 0.108073 135.459 0.0270182 135.203-0.0810547 134.946-0.189128 134.77-0.317464 134.676-0.466064 134.581-0.614665 134.534-0.797038 134.534-1.01318L134.534-37.4878C134.534-37.7039 134.575-37.8863 134.656-38.0349 134.737-38.1835 134.899-38.3186 135.142-38.4402 135.385-38.5618 135.696-38.6428 136.074-38.6833 136.452-38.7239 136.952-38.7441 137.574-38.7441 138.168-38.7441 138.661-38.7239 139.053-38.6833 139.445-38.6428 139.749-38.5618 139.965-38.4402 140.181-38.3186 140.336-38.1835 140.431-38.0349 140.525-37.8863 140.573-37.7039 140.573-37.4878L140.573-32.665C142.626-34.9616 144.673-36.6435 146.712-37.7107 148.752-38.7779 150.812-39.3115 152.893-39.3115 155.325-39.3115 157.371-38.8995 159.033-38.0754 160.694-37.2514 162.039-36.1504 163.065-34.7725 164.092-33.3945 164.828-31.7802 165.274-29.9294 165.72-28.0787 165.943-25.8564 165.943-23.2627Z" fill="#E46C0A" transform="matrix(1 0 0 1 882.904 122)"/><path d="M60.3047-1.01318C60.3047-0.797038 60.2506-0.614665 60.1426-0.466064 60.0345-0.317464 59.8589-0.189128 59.6157-0.0810547 59.3726 0.0270182 59.0348 0.108073 58.6025 0.162109 58.1702 0.216146 57.6299 0.243164 56.9814 0.243164 56.306 0.243164 55.7521 0.216146 55.3198 0.162109 54.8875 0.108073 54.543 0.0270182 54.2864-0.0810547 54.0297-0.189128 53.8473-0.317464 53.7393-0.466064 53.6312-0.614665 53.5771-0.797038 53.5771-1.01318L53.5771-23.1816C53.5771-24.7217 53.4421-26.1266 53.1719-27.3965 52.9017-28.6663 52.4694-29.7606 51.875-30.6792 51.2806-31.5978 50.5241-32.3003 49.6055-32.7866 48.6868-33.2729 47.6061-33.5161 46.3633-33.5161 44.8232-33.5161 43.2764-32.9217 41.7229-31.7329 40.1693-30.5441 38.4604-28.8014 36.5962-26.5049L36.5962-1.01318C36.5962-0.797038 36.5422-0.614665 36.4341-0.466064 36.326-0.317464 36.1436-0.189128 35.887-0.0810547 35.6303 0.0270182 35.2858 0.108073 34.8535 0.162109 34.4212 0.216146 33.8809 0.243164 33.2324 0.243164 32.611 0.243164 32.0774 0.216146 31.6316 0.162109 31.1858 0.108073 30.8346 0.0270182 30.5779-0.0810547 30.3212-0.189128 30.1456-0.317464 30.051-0.466064 29.9565-0.614665 29.9092-0.797038 29.9092-1.01318L29.9092-23.1816C29.9092-24.7217 29.7606-26.1266 29.4634-27.3965 29.1662-28.6663 28.7204-29.7606 28.126-30.6792 27.5316-31.5978 26.7818-32.3003 25.8767-32.7866 24.9716-33.2729 23.8976-33.5161 22.6548-33.5161 21.1147-33.5161 19.5612-32.9217 17.9941-31.7329 16.4271-30.5441 14.7249-28.8014 12.8877-26.5049L12.8877-1.01318C12.8877-0.797038 12.8337-0.614665 12.7256-0.466064 12.6175-0.317464 12.4419-0.189128 12.1987-0.0810547 11.9556 0.0270182 11.6178 0.108073 11.1855 0.162109 10.7533 0.216146 10.1994 0.243164 9.52392 0.243164 8.87549 0.243164 8.33512 0.216146 7.90283 0.162109 7.47054 0.108073 7.12606 0.0270182 6.86938-0.0810547 6.61271-0.189128 6.43709-0.317464 6.34253-0.466064 6.24796-0.614665 6.20068-0.797038 6.20068-1.01318L6.20068-37.4878C6.20068-37.7039 6.24121-37.8863 6.32227-38.0349 6.40332-38.1835 6.56543-38.3186 6.80859-38.4402 7.05176-38.5618 7.36247-38.6428 7.74072-38.6833 8.11898-38.7239 8.61881-38.7441 9.24023-38.7441 9.83463-38.7441 10.3277-38.7239 10.7195-38.6833 11.1112-38.6428 11.4152-38.5618 11.6313-38.4402 11.8475-38.3186 12.0028-38.1835 12.0974-38.0349 12.192-37.8863 12.2393-37.7039 12.2393-37.4878L12.2393-32.665C14.2926-34.9616 16.2852-36.6435 18.217-37.7107 20.1488-38.7779 22.1009-39.3115 24.0732-39.3115 25.5863-39.3115 26.9439-39.1359 28.1462-38.7847 29.3485-38.4334 30.409-37.9403 31.3276-37.3054 32.2463-36.6705 33.0298-35.914 33.6782-35.0359 34.3267-34.1578 34.867-33.1784 35.2993-32.0977 36.5151-33.4215 37.6702-34.5428 38.7644-35.4614 39.8586-36.38 40.9123-37.123 41.9255-37.6904 42.9387-38.2578 43.9249-38.6698 44.884-38.9265 45.8432-39.1832 46.8091-39.3115 47.7817-39.3115 50.1323-39.3115 52.1047-38.8995 53.6987-38.0754 55.2928-37.2514 56.5829-36.1504 57.5691-34.7725 58.5553-33.3945 59.2577-31.7802 59.6765-29.9294 60.0953-28.0787 60.3047-26.1266 60.3047-24.0732ZM106.007-19.6558C106.007-16.6838 105.616-13.9482 104.832-11.449 104.049-8.94979 102.88-6.79508 101.327-4.98486 99.773-3.17464 97.8277-1.76294 95.4906-0.749756 93.1536 0.263428 90.445 0.770019 87.3649 0.770019 84.3659 0.770019 81.7519 0.324219 79.5229-0.567383 77.2939-1.45898 75.4364-2.75586 73.9504-4.45801 72.4644-6.16016 71.3566-8.22705 70.6271-10.6587 69.8976-13.0903 69.5329-15.8462 69.5329-18.9263 69.5329-21.8983 69.9179-24.6339 70.6879-27.1331 71.4579-29.6322 72.6197-31.7869 74.1733-33.5972 75.7268-35.4074 77.6654-36.8123 79.9889-37.812 82.3125-38.8117 85.0278-39.3115 88.1349-39.3115 91.1339-39.3115 93.748-38.8657 95.977-37.9741 98.206-37.0825 100.063-35.7856 101.549-34.0835 103.035-32.3813 104.15-30.3144 104.893-27.8828 105.636-25.4512 106.007-22.7088 106.007-19.6558ZM99.0773-19.21C99.0773-21.1823 98.8932-23.0465 98.5251-24.8027 98.157-26.5589 97.5504-28.099 96.7052-29.4228 95.86-30.7467 94.715-31.7937 93.2702-32.5637 91.8253-33.3337 90.026-33.7187 87.8721-33.7187 85.8821-33.7187 84.1714-33.3675 82.74-32.665 81.3087-31.9626 80.1296-30.9696 79.2028-29.6863 78.2759-28.4029 77.5876-26.8831 77.1378-25.127 76.688-23.3708 76.4631-21.4525 76.4631-19.3721 76.4631-17.3727 76.6471-15.495 77.0152-13.7388 77.3834-11.9826 77.9968-10.4493 78.8554-9.13892 79.7141-7.82853 80.8659-6.78833 82.3107-6.01831 83.7555-5.24829 85.5549-4.86328 87.7088-4.86328 89.6718-4.86328 91.3757-5.21452 92.8206-5.91699 94.2654-6.61947 95.4513-7.60563 96.3781-8.87549 97.305-10.1453 97.9865-11.6584 98.4229-13.4145 98.8591-15.1707 99.0773-17.1025 99.0773-19.21ZM136.945-35.0967C136.945-34.5023 136.932-34.0024 136.905-33.5972 136.878-33.1919 136.824-32.8744 136.743-32.6448 136.661-32.4151 136.56-32.2395 136.439-32.1179 136.317-31.9963 136.148-31.9355 135.932-31.9355 135.716-31.9355 135.452-31.9963 135.142-32.1179 134.831-32.2395 134.48-32.3611 134.088-32.4827 133.696-32.6042 133.257-32.7191 132.771-32.8271 132.284-32.9352 131.758-32.9893 131.19-32.9893 130.515-32.9893 129.853-32.8542 129.204-32.584 128.556-32.3138 127.874-31.868 127.158-31.2466 126.442-30.6252 125.692-29.8011 124.909-28.7744 124.125-27.7477 123.26-26.4914 122.315-25.0054L122.315-1.01318C122.315-0.797038 122.261-0.614665 122.153-0.466064 122.045-0.317464 121.869-0.189128 121.626-0.0810547 121.383 0.0270182 121.045 0.108073 120.613 0.162109 120.18 0.216146 119.626 0.243164 118.951 0.243164 118.303 0.243164 117.762 0.216146 117.33 0.162109 116.898 0.108073 116.553 0.0270182 116.296-0.0810547 116.04-0.189128 115.864-0.317464 115.77-0.466064 115.675-0.614665 115.628-0.797038 115.628-1.01318L115.628-37.4878C115.628-37.7039 115.668-37.8863 115.749-38.0349 115.83-38.1835 115.993-38.3186 116.236-38.4402 116.479-38.5618 116.79-38.6428 117.168-38.6833 117.546-38.7239 118.046-38.7441 118.667-38.7441 119.262-38.7441 119.755-38.7239 120.147-38.6833 120.538-38.6428 120.842-38.5618 121.058-38.4402 121.275-38.3186 121.43-38.1835 121.524-38.0349 121.619-37.8863 121.666-37.7039 121.666-37.4878L121.666-32.1787C122.666-33.6377 123.605-34.8265 124.483-35.7451 125.361-36.6637 126.192-37.3865 126.975-37.9133 127.759-38.4402 128.536-38.8049 129.306-39.0076 130.076-39.2102 130.853-39.3115 131.636-39.3115 131.987-39.3115 132.386-39.2913 132.832-39.2507 133.277-39.2102 133.743-39.1359 134.23-39.0278 134.716-38.9198 135.155-38.7982 135.547-38.6631 135.939-38.528 136.216-38.3929 136.378-38.2578 136.54-38.1227 136.648-37.9944 136.702-37.8728 136.756-37.7512 136.803-37.5959 136.844-37.4067 136.884-37.2176 136.911-36.9407 136.925-36.5759 136.938-36.2112 136.945-35.7181 136.945-35.0967ZM174.322-20.8311C174.322-19.7773 174.057-19.0276 173.528-18.5818 172.999-18.136 172.395-17.9131 171.716-17.9131L147.695-17.9131C147.695-15.8867 147.899-14.063 148.306-12.4419 148.713-10.8208 149.392-9.42936 150.342-8.26758 151.292-7.10579 152.528-6.21419 154.048-5.59277 155.568-4.97135 157.428-4.66064 159.627-4.66064 161.365-4.66064 162.912-4.80249 164.27-5.08618 165.627-5.36987 166.801-5.68734 167.792-6.03857 168.783-6.38981 169.598-6.70727 170.236-6.99097 170.874-7.27466 171.356-7.4165 171.682-7.4165 171.872-7.4165 172.042-7.36922 172.191-7.27466 172.34-7.18009 172.456-7.03825 172.537-6.84912 172.618-6.65999 172.68-6.39657 172.72-6.05884 172.761-5.72111 172.781-5.30908 172.781-4.82275 172.781-4.47152 172.768-4.16756 172.741-3.91089 172.714-3.65422 172.68-3.42456 172.64-3.22192 172.599-3.01929 172.532-2.83691 172.437-2.6748 172.342-2.5127 172.221-2.35734 172.072-2.20874 171.924-2.06014 171.485-1.81698 170.755-1.47925 170.026-1.14152 169.08-0.810547 167.918-0.486328 166.756-0.162109 165.412 0.128337 163.886 0.38501 162.359 0.641683 160.731 0.770019 159.002 0.770019 156.003 0.770019 153.376 0.351237 151.12-0.486328 148.864-1.32389 146.966-2.56673 145.426-4.21484 143.885-5.86296 142.724-7.92985 141.94-10.4155 141.157-12.9012 140.765-15.7922 140.765-19.0884 140.765-22.2225 141.17-25.0391 141.981-27.5383 142.791-30.0375 143.96-32.1584 145.486-33.9011 147.013-35.6438 148.857-36.9812 151.018-37.9133 153.18-38.8455 155.598-39.3115 158.273-39.3115 161.137-39.3115 163.575-38.8522 165.588-37.9336 167.601-37.015 169.256-35.7789 170.552-34.2253 171.849-32.6718 172.802-30.8481 173.41-28.7541 174.018-26.6602 174.322-24.4245 174.322-22.0469ZM167.594-22.8169C167.675-26.3293 166.893-29.0851 165.249-31.0845 163.605-33.0838 161.165-34.0835 157.93-34.0835 156.272-34.0835 154.817-33.7728 153.567-33.1514 152.317-32.5299 151.27-31.7059 150.427-30.6792 149.584-29.6525 148.932-28.4569 148.47-27.0925 148.008-25.7281 147.749-24.3029 147.695-22.8169ZM230.83-0.972656C230.83-0.648437 230.722-0.405273 230.506-0.243164 230.29-0.0810547 229.993 0.0405273 229.614 0.121582 229.236 0.202637 228.682 0.243164 227.953 0.243164 227.25 0.243164 226.69 0.202637 226.271 0.121582 225.852 0.0405273 225.548-0.0810547 225.359-0.243164 225.17-0.405273 225.075-0.648437 225.075-0.972656L225.075-4.62012C223.481-2.91797 221.705-1.59408 219.746-0.648437 217.787 0.2972 215.714 0.770019 213.525 0.770019 211.607 0.770019 209.871 0.520101 208.317 0.0202637 206.764-0.479574 205.44-1.20231 204.346-2.14795 203.251-3.09359 202.4-4.25537 201.792-5.6333 201.185-7.01123 200.881-8.57829 200.881-10.3345 200.881-12.3879 201.299-14.1711 202.137-15.6841 202.974-17.1971 204.177-18.4534 205.744-19.4531 207.311-20.4528 209.229-21.2026 211.499-21.7024 213.768-22.2022 216.322-22.4521 219.158-22.4521L224.184-22.4521 224.184-25.2891C224.184-26.694 224.035-27.9368 223.738-29.0176 223.441-30.0983 222.961-30.9967 222.299-31.7126 221.637-32.4286 220.78-32.969 219.726-33.3337 218.672-33.6985 217.375-33.8809 215.835-33.8809 214.187-33.8809 212.708-33.685 211.397-33.2932 210.087-32.9014 208.939-32.4692 207.953-31.9963 206.966-31.5235 206.142-31.0912 205.48-30.6995 204.818-30.3077 204.325-30.1118 204.001-30.1118 203.785-30.1118 203.596-30.1658 203.434-30.2739 203.272-30.382 203.13-30.5441 203.008-30.7603 202.887-30.9764 202.799-31.2533 202.745-31.5911 202.691-31.9288 202.664-32.3003 202.664-32.7056 202.664-33.381 202.711-33.9146 202.806-34.3064 202.9-34.6982 203.13-35.0697 203.495-35.4209 203.859-35.7721 204.488-36.1842 205.379-36.657 206.271-37.1298 207.297-37.5621 208.459-37.9539 209.621-38.3456 210.891-38.6698 212.269-38.9265 213.647-39.1832 215.038-39.3115 216.443-39.3115 219.064-39.3115 221.293-39.0143 223.13-38.4199 224.967-37.8255 226.453-36.9542 227.588-35.8059 228.723-34.6576 229.547-33.2324 230.06-31.5303 230.574-29.8281 230.83-27.8423 230.83-25.5728ZM224.184-17.6294 218.469-17.6294C216.632-17.6294 215.038-17.474 213.687-17.1633 212.336-16.8526 211.215-16.3933 210.323-15.7854 209.432-15.1775 208.777-14.448 208.358-13.5969 207.939-12.7458 207.73-11.7664 207.73-10.6587 207.73-8.76741 208.331-7.26115 209.533-6.13989 210.735-5.01864 212.417-4.45801 214.579-4.45801 216.335-4.45801 217.963-4.90381 219.462-5.79541 220.962-6.68701 222.536-8.05143 224.184-9.88867ZM276.441-19.7368C276.441-16.5757 276.096-13.732 275.407-11.2058 274.718-8.67961 273.705-6.5249 272.368-4.7417 271.03-2.9585 269.389-1.59408 267.444-0.648437 265.498 0.2972 263.269 0.770019 260.757 0.770019 259.595 0.770019 258.521 0.655192 257.535 0.425537 256.548 0.195882 255.583-0.175618 254.637-0.688965 253.691-1.20231 252.746-1.85075 251.8-2.63428 250.854-3.41781 249.855-4.36344 248.801-5.47119L248.801-1.01318C248.801-0.797038 248.747-0.60791 248.639-0.445801 248.531-0.283691 248.355-0.155355 248.112-0.060791 247.869 0.0337728 247.565 0.108073 247.2 0.162109 246.835 0.216146 246.369 0.243164 245.802 0.243164 245.262 0.243164 244.802 0.216146 244.424 0.162109 244.046 0.108073 243.735 0.0337728 243.492-0.060791 243.249-0.155355 243.087-0.283691 243.006-0.445801 242.925-0.60791 242.884-0.797038 242.884-1.01318L242.884-55.1577C242.884-55.3739 242.931-55.563 243.026-55.7251 243.12-55.8872 243.296-56.0223 243.553-56.1304 243.809-56.2384 244.154-56.3195 244.586-56.3735 245.018-56.4276 245.559-56.4546 246.207-56.4546 246.883-56.4546 247.437-56.4276 247.869-56.3735 248.301-56.3195 248.639-56.2384 248.882-56.1304 249.125-56.0223 249.301-55.8872 249.409-55.7251 249.517-55.563 249.571-55.3739 249.571-55.1577L249.571-33.3135C250.652-34.4212 251.699-35.3533 252.712-36.1099 253.725-36.8664 254.718-37.481 255.691-37.9539 256.663-38.4267 257.636-38.7712 258.609-38.9873 259.581-39.2034 260.608-39.3115 261.689-39.3115 264.336-39.3115 266.599-38.7847 268.477-37.731 270.355-36.6772 271.881-35.2655 273.057-33.4958 274.232-31.7262 275.09-29.6525 275.63-27.2749 276.17-24.8973 276.441-22.3846 276.441-19.7368ZM269.51-18.9668C269.51-20.8311 269.368-22.6413 269.082-24.3975 268.797-26.1536 268.301-27.7072 267.594-29.0581 266.887-30.409 265.949-31.4965 264.78-32.3206 263.612-33.1446 262.157-33.5566 260.417-33.5566 259.547-33.5566 258.691-33.4351 257.849-33.1919 257.006-32.9487 256.15-32.5435 255.28-31.9761 254.41-31.4087 253.506-30.6792 252.568-29.7876 251.63-28.896 250.631-27.7747 249.571-26.4238L249.571-11.8745C251.42-9.632 253.187-7.92309 254.872-6.7478 256.557-5.57251 258.311-4.98486 260.132-4.98486 261.817-4.98486 263.258-5.39014 264.454-6.20068 265.651-7.01123 266.622-8.0852 267.37-9.42261 268.117-10.76 268.661-12.2595 269.001-13.9211 269.341-15.5828 269.51-17.2646 269.51-18.9668ZM320.347-19.6558C320.347-16.6838 319.955-13.9482 319.172-11.449 318.388-8.94979 317.22-6.79508 315.666-4.98486 314.113-3.17464 312.167-1.76294 309.83-0.749756 307.493 0.263428 304.785 0.770019 301.704 0.770019 298.705 0.770019 296.091 0.324219 293.862-0.567383 291.633-1.45898 289.776-2.75586 288.29-4.45801 286.804-6.16016 285.696-8.22705 284.967-10.6587 284.237-13.0903 283.872-15.8462 283.872-18.9263 283.872-21.8983 284.257-24.6339 285.027-27.1331 285.797-29.6322 286.959-31.7869 288.513-33.5972 290.066-35.4074 292.005-36.8123 294.328-37.812 296.652-38.8117 299.367-39.3115 302.474-39.3115 305.474-39.3115 308.088-38.8657 310.317-37.9741 312.546-37.0825 314.403-35.7856 315.889-34.0835 317.375-32.3813 318.49-30.3144 319.233-27.8828 319.976-25.4512 320.347-22.7088 320.347-19.6558ZM313.417-19.21C313.417-21.1823 313.233-23.0465 312.865-24.8027 312.497-26.5589 311.89-28.099 311.045-29.4228 310.2-30.7467 309.055-31.7937 307.61-32.5637 306.165-33.3337 304.366-33.7187 302.212-33.7187 300.222-33.7187 298.511-33.3675 297.08-32.665 295.648-31.9626 294.469-30.9696 293.542-29.6863 292.615-28.4029 291.927-26.8831 291.477-25.127 291.027-23.3708 290.803-21.4525 290.803-19.3721 290.803-17.3727 290.987-15.495 291.355-13.7388 291.723-11.9826 292.336-10.4493 293.195-9.13892 294.054-7.82853 295.205-6.78833 296.65-6.01831 298.095-5.24829 299.894-4.86328 302.048-4.86328 304.011-4.86328 305.715-5.21452 307.16-5.91699 308.605-6.61947 309.791-7.60563 310.718-8.87549 311.645-10.1453 312.326-11.6584 312.762-13.4145 313.199-15.1707 313.417-17.1025 313.417-19.21ZM361.214-1.01318C361.214-0.797038 361.167-0.614665 361.072-0.466064 360.977-0.317464 360.809-0.189128 360.565-0.0810547 360.322 0.0270182 360.005 0.108073 359.613 0.162109 359.221 0.216146 358.742 0.243164 358.174 0.243164 357.553 0.243164 357.046 0.216146 356.655 0.162109 356.263 0.108073 355.952 0.0270182 355.722-0.0810547 355.493-0.189128 355.337-0.317464 355.256-0.466064 355.175-0.614665 355.135-0.797038 355.135-1.01318L355.135-5.83594C353.054-3.53939 351.001-1.86426 348.975-0.810547 346.948 0.243164 344.895 0.770019 342.814 0.770019 340.383 0.770019 338.336 0.364746 336.675-0.445801 335.013-1.25635 333.669-2.35734 332.642-3.74878 331.615-5.14022 330.879-6.76131 330.433-8.61206 329.988-10.4628 329.765-12.7121 329.765-15.3599L329.765-37.4878C329.765-37.7039 329.812-37.8863 329.907-38.0349 330.001-38.1835 330.183-38.3186 330.454-38.4402 330.724-38.5618 331.075-38.6428 331.507-38.6833 331.94-38.7239 332.48-38.7441 333.128-38.7441 333.777-38.7441 334.317-38.7239 334.75-38.6833 335.182-38.6428 335.526-38.5618 335.783-38.4402 336.04-38.3186 336.222-38.1835 336.33-38.0349 336.438-37.8863 336.492-37.7039 336.492-37.4878L336.492-16.2515C336.492-14.117 336.648-12.4081 336.958-11.1248 337.269-9.84139 337.742-8.74715 338.377-7.84204 339.012-6.93693 339.815-6.23446 340.788-5.73462 341.761-5.23478 342.896-4.98486 344.192-4.98486 345.868-4.98486 347.536-5.57926 349.198-6.76807 350.859-7.95687 352.622-9.69954 354.486-11.9961L354.486-37.4878C354.486-37.7039 354.534-37.8863 354.628-38.0349 354.723-38.1835 354.905-38.3186 355.175-38.4402 355.445-38.5618 355.79-38.6428 356.209-38.6833 356.628-38.7239 357.175-38.7441 357.85-38.7441 358.499-38.7441 359.039-38.7239 359.471-38.6833 359.904-38.6428 360.241-38.5618 360.484-38.4402 360.728-38.3186 360.91-38.1835 361.032-38.0349 361.153-37.8863 361.214-37.7039 361.214-37.4878ZM392.476-3.68799C392.476-2.90446 392.422-2.28304 392.314-1.82373 392.206-1.36442 392.043-1.02669 391.827-0.810547 391.611-0.594401 391.287-0.391764 390.855-0.202637 390.422-0.0135091 389.929 0.141846 389.375 0.263428 388.822 0.38501 388.234 0.486328 387.612 0.567383 386.991 0.648437 386.37 0.688965 385.748 0.688965 383.857 0.688965 382.236 0.439046 380.885-0.060791 379.534-0.560628 378.426-1.31714 377.562-2.33032 376.697-3.34351 376.069-4.62687 375.677-6.18042 375.285-7.73397 375.09-9.56445 375.09-11.6719L375.09-32.9893 369.983-32.9893C369.578-32.9893 369.254-33.2054 369.01-33.6377 368.767-34.07 368.646-34.7725 368.646-35.7451 368.646-36.2585 368.679-36.6908 368.747-37.042 368.815-37.3932 368.902-37.6837 369.01-37.9133 369.118-38.143 369.26-38.3051 369.436-38.3997 369.612-38.4942 369.807-38.5415 370.024-38.5415L375.09-38.5415 375.09-47.2144C375.09-47.4035 375.137-47.5791 375.231-47.7412 375.326-47.9033 375.502-48.0452 375.758-48.1667 376.015-48.2883 376.359-48.3761 376.792-48.4302 377.224-48.4842 377.764-48.5112 378.413-48.5112 379.088-48.5112 379.642-48.4842 380.074-48.4302 380.507-48.3761 380.844-48.2883 381.088-48.1667 381.331-48.0452 381.506-47.9033 381.614-47.7412 381.723-47.5791 381.777-47.4035 381.777-47.2144L381.777-38.5415 391.138-38.5415C391.354-38.5415 391.544-38.4942 391.706-38.3997 391.868-38.3051 392.01-38.143 392.131-37.9133 392.253-37.6837 392.341-37.3932 392.395-37.042 392.449-36.6908 392.476-36.2585 392.476-35.7451 392.476-34.7725 392.354-34.07 392.111-33.6377 391.868-33.2054 391.544-32.9893 391.138-32.9893L381.777-32.9893 381.777-12.6445C381.777-10.1318 382.148-8.2338 382.891-6.95044 383.634-5.66707 384.965-5.02539 386.883-5.02539 387.504-5.02539 388.058-5.08618 388.545-5.20776 389.031-5.32934 389.463-5.45768 389.841-5.59277 390.22-5.72786 390.544-5.8562 390.814-5.97778 391.084-6.09936 391.327-6.16016 391.544-6.16016 391.679-6.16016 391.807-6.12638 391.929-6.05884 392.05-5.99129 392.145-5.86296 392.212-5.67383 392.28-5.4847 392.341-5.22803 392.395-4.90381 392.449-4.57959 392.476-4.17432 392.476-3.68799ZM426.602-1.01318C426.602-0.797038 426.548-0.614665 426.44-0.466064 426.332-0.317464 426.156-0.189128 425.913-0.0810547 425.67 0.0270182 425.332 0.108073 424.9 0.162109 424.468 0.216146 423.914 0.243164 423.238 0.243164 422.59 0.243164 422.05 0.216146 421.617 0.162109 421.185 0.108073 420.841 0.0270182 420.584-0.0810547 420.327-0.189128 420.152-0.317464 420.057-0.466064 419.962-0.614665 419.915-0.797038 419.915-1.01318L419.915-37.4878C419.915-37.6769 419.962-37.8525 420.057-38.0146 420.152-38.1768 420.327-38.3118 420.584-38.4199 420.841-38.528 421.185-38.609 421.617-38.6631 422.05-38.7171 422.59-38.7441 423.238-38.7441 423.914-38.7441 424.468-38.7171 424.9-38.6631 425.332-38.609 425.67-38.528 425.913-38.4199 426.156-38.3118 426.332-38.1768 426.44-38.0146 426.548-37.8525 426.602-37.6769 426.602-37.4878ZM427.372-49.8081C427.372-48.241 427.075-47.1738 426.481-46.6064 425.886-46.0391 424.792-45.7554 423.198-45.7554 421.631-45.7554 420.557-46.0323 419.976-46.5862 419.395-47.1401 419.105-48.187 419.105-49.727 419.105-51.2941 419.402-52.3613 419.996-52.9287 420.591-53.4961 421.685-53.7798 423.279-53.7798 424.846-53.7798 425.92-53.5028 426.501-52.949 427.082-52.3951 427.372-51.3481 427.372-49.8081ZM457.788-3.68799C457.788-2.90446 457.734-2.28304 457.626-1.82373 457.518-1.36442 457.356-1.02669 457.14-0.810547 456.924-0.594401 456.599-0.391764 456.167-0.202637 455.735-0.0135091 455.242 0.141846 454.688 0.263428 454.134 0.38501 453.546 0.486328 452.925 0.567383 452.304 0.648437 451.682 0.688965 451.061 0.688965 449.169 0.688965 447.548 0.439046 446.197-0.060791 444.847-0.560628 443.739-1.31714 442.874-2.33032 442.01-3.34351 441.381-4.62687 440.99-6.18042 440.598-7.73397 440.402-9.56445 440.402-11.6719L440.402-32.9893 435.296-32.9893C434.89-32.9893 434.566-33.2054 434.323-33.6377 434.08-34.07 433.958-34.7725 433.958-35.7451 433.958-36.2585 433.992-36.6908 434.06-37.042 434.127-37.3932 434.215-37.6837 434.323-37.9133 434.431-38.143 434.573-38.3051 434.748-38.3997 434.924-38.4942 435.12-38.5415 435.336-38.5415L440.402-38.5415 440.402-47.2144C440.402-47.4035 440.449-47.5791 440.544-47.7412 440.638-47.9033 440.814-48.0452 441.071-48.1667 441.327-48.2883 441.672-48.3761 442.104-48.4302 442.536-48.4842 443.077-48.5112 443.725-48.5112 444.401-48.5112 444.955-48.4842 445.387-48.4302 445.819-48.3761 446.157-48.2883 446.4-48.1667 446.643-48.0452 446.819-47.9033 446.927-47.7412 447.035-47.5791 447.089-47.4035 447.089-47.2144L447.089-38.5415 456.451-38.5415C456.667-38.5415 456.856-38.4942 457.018-38.3997 457.18-38.3051 457.322-38.143 457.444-37.9133 457.565-37.6837 457.653-37.3932 457.707-37.042 457.761-36.6908 457.788-36.2585 457.788-35.7451 457.788-34.7725 457.667-34.07 457.424-33.6377 457.18-33.2054 456.856-32.9893 456.451-32.9893L447.089-32.9893 447.089-12.6445C447.089-10.1318 447.461-8.2338 448.204-6.95044 448.947-5.66707 450.277-5.02539 452.195-5.02539 452.817-5.02539 453.371-5.08618 453.857-5.20776 454.343-5.32934 454.776-5.45768 455.154-5.59277 455.532-5.72786 455.856-5.8562 456.127-5.97778 456.397-6.09936 456.64-6.16016 456.856-6.16016 456.991-6.16016 457.12-6.12638 457.241-6.05884 457.363-5.99129 457.457-5.86296 457.525-5.67383 457.592-5.4847 457.653-5.22803 457.707-4.90381 457.761-4.57959 457.788-4.17432 457.788-3.68799ZM474.954-4.41748C474.954-2.49919 474.636-1.22257 474.001-0.587646 473.366 0.0472819 472.211 0.364746 470.536 0.364746 468.915 0.364746 467.794 0.0540364 467.173-0.567383 466.551-1.1888 466.24-2.43164 466.24-4.2959 466.24-6.21419 466.558-7.4908 467.193-8.12573 467.828-8.76066 468.983-9.07812 470.658-9.07812 472.279-9.07812 473.4-8.76741 474.022-8.146 474.643-7.52458 474.954-6.28174 474.954-4.41748Z" fill="#FFFFFF" transform="matrix(1 0 0 1 1073.69 122)"/></g></g><path d="M784 668 837.25 455 2462.75 455 2516 668Z" fill="#404040" fill-rule="evenodd"/><text fill="#E46C0A" font-family="Calibri,Calibri_MSFontService,sans-serif" font-weight="400" font-size="83" transform="matrix(1 0 0 1 907.569 591)">Select</text><text fill="#FFFFFF" font-family="Calibri,Calibri_MSFontService,sans-serif" font-weight="400" font-size="83" transform="matrix(1 0 0 1 1128.14 591)">a training type to </text><text fill="#E46C0A" font-family="Calibri,Calibri_MSFontService,sans-serif" font-weight="400" font-size="83" transform="matrix(1 0 0 1 1720.9 591)">learn</text><text fill="#FFFFFF" font-family="Calibri,Calibri_MSFontService,sans-serif" font-weight="400" font-size="83" transform="matrix(1 0 0 1 1911.69 591)">more about it.</text></g></svg>