<svg width="1000" height="616" xmlns="http://www.w3.org/2000/svg" xmlns:xlink="http://www.w3.org/1999/xlink" xml:space="preserve" overflow="hidden"><defs><filter id="fx0" x="-10%" y="-10%" width="120%" height="120%" filterUnits="userSpaceOnUse" primitiveUnits="userSpaceOnUse"><feComponentTransfer color-interpolation-filters="sRGB"><feFuncR type="discrete" tableValues="0 0"/><feFuncG type="discrete" tableValues="0 0"/><feFuncB type="discrete" tableValues="0 0"/><feFuncA type="linear" slope="0.4" intercept="0"/></feComponentTransfer><feGaussianBlur stdDeviation="6.11111 6.11111"/></filter><filter id="fx1" x="-10%" y="-10%" width="120%" height="120%" filterUnits="userSpaceOnUse" primitiveUnits="userSpaceOnUse"><feComponentTransfer color-interpolation-filters="sRGB"><feFuncR type="discrete" tableValues="0 0"/><feFuncG type="discrete" tableValues="0 0"/><feFuncB type="discrete" tableValues="0 0"/><feFuncA type="linear" slope="0.4" intercept="0"/></feComponentTransfer><feGaussianBlur stdDeviation="6.11111 6.11111"/></filter><clipPath id="clip2"><rect x="174" y="50" width="1000" height="616"/></clipPath><clipPath id="clip3"><rect x="70" y="39" width="636" height="402"/></clipPath><linearGradient x1="193" y1="344" x2="1155" y2="344" gradientUnits="userSpaceOnUse" spreadMethod="reflect" id="fill4"><stop offset="0"/><stop offset="0.62"/><stop offset="0.9" stop-color="#404040"/><stop offset="1" stop-color="#595959"/></linearGradient></defs><g clip-path="url(#clip2)" transform="translate(-174 -50)"><g filter="url(#fx0)" transform="translate(173 49)"><g><path d="M19.9998 52.8403C19.9998 34.565 34.8149 19.75 53.0902 19.75L948.91 19.75C967.185 19.75 982 34.565 982 52.8403L982 564.659C982 582.935 967.185 597.75 948.91 597.75L53.0902 597.75C34.8149 597.75 19.9998 582.935 19.9998 564.659Z" fill="#FF0000" fill-rule="evenodd"/></g></g><g clip-path="url(#clip3)" filter="url(#fx1)" transform="translate(299 106)"><g><path d="M6.7701-5.53894 18.1451-13.9648C20.0507-8.73698 23.5584-6.12305 28.6682-6.12305 33.6527-6.12305 39.1112-8.24645 45.0438-12.4932 50.9763-16.74 59.7741-24.589 71.4372-36.04L105.316-74.0926C102.155-74.4294 99.2226-74.5978 96.5185-74.5978 89.3459-74.5978 83.2359-72.8266 78.1884-69.2842 73.141-65.7418 69.4135-60.429 67.0061-53.3459L52.3631-47.7146C55.682-55.4232 59.7078-61.5564 64.4405-66.114 69.6841-71.1919 75.0484-74.8016 80.5337-76.943 86.0189-79.0844 93.2962-80.4629 102.365-81.0783 104.145-81.1852 106.879-81.3838 110.568-81.6742L123.388-83.6816 117.724-64.8308 108.208-27.6527C106.02-19.1351 105.095-13.6412 105.433-11.171 105.772-8.70089 107.405-7.46582 110.335-7.46582 111.085-7.46582 113.592-7.57324 117.857-7.78809L115.088-2.22313 87.0772 1.9873 93.8582-24.4922 66.239-24.4922C57.4651-14.9188 49.7907-8.11217 43.2159-4.07238 36.6411-0.0325903 29.727 1.9873 22.4738 1.9873 15.5681 1.9873 10.3335-0.521444 6.7701-5.53894ZM71.0982-30.6152 95.4829-30.6152 105.333-68.8448ZM163.186-18.4228 159.901-11.8609C148.707-3.05845 139.828 1.34277 133.266 1.34277 127.393 1.34277 125.498-1.71875 127.579-7.8418 128.226-9.74518 129.688-12.8201 131.966-17.0666L142.214-36.1114C144.856-41.1059 146.464-44.448 147.038-46.1377 147.817-48.4294 147.401-49.5752 145.79-49.5752 144.314-49.5752 140.866-48.9665 135.448-47.749L137.982-52.9095 169.323-61.7676 158.821-43.0946 144.645-16.7545C142.473-12.7183 141.197-10.1413 140.817-9.02344 140.269-7.41211 140.676-6.60644 142.037-6.60644 145.267-6.60644 152.317-10.5452 163.186-18.4228ZM158.449-68.9648 165.361-78.0604 185.967-88.3008 177.095-76.5683ZM163.313 0.644531 173.462-17.3579 187.481-43.3968C188.888-45.9894 189.906-48.2114 190.536-50.0628 191.338-52.4233 191.023-53.6035 189.591-53.6035 186.155-53.6035 178.998-49.5604 168.12-41.4741L171.321-47.8212C183.109-57.1188 192.201-61.7676 198.596-61.7676 204.504-61.7676 206.333-58.4576 204.083-51.8378 203.185-49.1959 201.842-46.225 200.052-42.9251L193.553-31.2824 192.445-31.2824C199.504-39.94 207.011-47.1852 214.968-53.0181 222.924-58.8511 229.462-61.7676 234.582-61.7676 237.276-61.7676 239.614-60.9566 241.597-59.3346L229.827-48.2349C227.773-49.6297 226.128-50.3271 224.893-50.3271 218.355-50.3271 206.013-40.3126 187.869-20.2834L176.941-0.0486755ZM298.479-36.792 305.079-43.2373 310.366-43.2373 327.841-75.3027C321.505-75.3027 315.532-73.4249 309.922-69.6694 304.312-65.9138 300.437-60.8881 298.297-54.5921L297.848-53.1126 283.313-47.6416C288.389-59.7523 295.745-68.4465 305.381-73.7241 315.017-79.0018 327.625-81.6406 343.207-81.6406L375.326-81.6406 364.291-64.292 358.957-64.292C360.19-66.549 361.025-68.3214 361.462-69.6094 362.801-73.5482 356.506-75.5176 342.577-75.5176L341.191-75.5176 323.604-43.2373 347.022-43.2373 338.393-35.6103C332.557-36.3981 327.112-36.792 322.058-36.792L320.349-36.792 312.346-21.9107C305.121-8.46059 296.295 2.31349 285.866 10.4115 275.438 18.5096 265.077 22.5586 254.783 22.5586 249.107 22.5586 244.755 20.1911 241.728 15.4562L254.142 6.28418C255.227 12.1566 258.668 15.0928 264.464 15.0928 269.79 15.0928 274.866 12.6128 279.693 7.65297 284.519 2.6931 290.431-6.28082 297.428-19.2688L307.126-36.792ZM358.995 1.34277C353.966 1.34277 350.452-0.603129 348.452-4.49493 346.453-8.38674 346.43-13.2084 348.385-18.96 351.981-29.5416 359.307-39.3216 370.364-48.3 381.421-57.2784 391.709-61.7676 401.229-61.7676 406.537-61.7676 410.259-59.8601 412.396-56.0453 414.533-52.2304 414.616-47.424 412.645-41.626 408.919-30.6589 401.547-20.7556 390.53-11.9163 379.514-3.07691 369.002 1.34277 358.995 1.34277ZM367.437-5.47852C372.321-5.47852 377.818-8.76174 383.927-15.3282 390.037-21.8946 394.589-29.5863 397.585-38.4033 401.37-49.5394 400.004-55.1074 393.487-55.1074 388.811-55.1074 383.349-51.7214 377.102-44.9493 370.854-38.1773 366.265-30.481 363.335-21.8603 359.624-10.9391 360.991-5.47852 367.437-5.47852ZM410.24 0.644531 420.389-17.3579 434.408-43.3968C435.815-45.9894 436.834-48.2114 437.463-50.0628 438.265-52.4233 437.95-53.6035 436.518-53.6035 433.082-53.6035 425.925-49.5604 415.047-41.4741L418.248-47.8212C430.036-57.1188 439.128-61.7676 445.523-61.7676 451.431-61.7676 453.26-58.4576 451.01-51.8378 450.112-49.1959 448.769-46.225 446.979-42.9251L440.48-31.2824 439.372-31.2824C446.431-39.94 453.938-47.1852 461.895-53.0181 469.851-58.8511 476.389-61.7676 481.509-61.7676 484.203-61.7676 486.541-60.9566 488.524-59.3346L476.754-48.2349C474.7-49.6297 473.055-50.3271 471.82-50.3271 465.282-50.3271 452.94-40.3126 434.796-20.2834L423.868-0.0486755ZM522.878-16.9189 519.961-11.0351C504.964-2.78318 493.591 1.34277 485.842 1.34277 480.324 1.34277 476.525-0.520465 474.445-4.24694 472.366-7.97342 472.354-12.8599 474.409-18.9062 478.042-29.5981 485.417-39.4146 496.535-48.3558 507.652-57.297 518.094-61.7676 527.862-61.7676 532.158-61.7676 536.304-60.6934 540.302-58.5449L531.188-43.0762 525.914-43.0762 526.951-45.4403C527.754-46.8922 528.274-47.9661 528.511-48.6621 529.946-52.8874 527.674-55 521.694-55 515.818-55 509.767-51.7653 503.543-45.2959 497.318-38.8266 492.51-30.6029 489.119-20.625 486.064-11.6374 487.778-7.14355 494.259-7.14355 500.91-7.14355 510.45-10.402 522.878-16.9189ZM583.124-16.8652 580.221-11.03C565.602-2.7815 554.159 1.34277 545.891 1.34277 540.479 1.34277 536.733-0.546061 534.654-4.32373 532.575-8.1014 532.543-12.9566 534.559-18.8895 538.081-29.2551 545.354-38.9929 556.375-48.1028 567.397-57.2126 577.461-61.7676 586.568-61.7676 590.091-61.7676 592.538-60.5817 593.909-58.2101 595.28-55.8384 595.338-52.8046 594.081-49.1086 591.626-41.8817 585.894-35.7126 576.887-30.6014 567.88-25.4902 558.745-22.9346 549.481-22.9346L549.27-22.3479C545.789-12.1043 547.503-6.98242 554.414-6.98242 560.819-6.98242 570.389-10.2767 583.124-16.8652ZM551.474-28.3594C558.67-28.9754 564.98-30.945 570.404-34.2684 575.828-37.5918 579.424-41.8526 581.19-47.0508 582.809-51.8131 581.989-54.1943 578.73-54.1943 574.832-54.1943 570.027-51.4537 564.316-45.9724 558.604-40.4911 554.323-34.6201 551.474-28.3594Z" fill="#E46C0A" transform="matrix(1 0 0 1 86.2863 151)"/><path d="M20.8197-0.0981903 32.903-10.0977 34.0972-9.87442C34.4709-9.8084 35.4562-9.77539 37.053-9.77539 40.6544-9.77539 43.7789-11.0772 46.4264-13.6808 49.0739-16.2843 52.5852-21.6382 56.9604-29.7424L79.6894-71.543 67.1748-71.543C54.1409-71.543 45.896-66.4583 42.44-56.2891 42.0165-55.0425 41.5647-53.2387 41.0847-50.8777L25.7896-45.2246C31.2793-56.8396 39.0202-65.8127 49.0121-72.1439 59.004-78.475 69.9081-81.6406 81.7245-81.6406L104.498-81.6406C114.632-81.6406 121.461-82.2726 124.984-83.5364 128.507-84.8003 131.657-87.7782 134.433-92.4701L145.752-96.0351C140.428-88.1715 133.366-82.1236 124.567-77.8913 115.768-73.6591 106.717-71.543 97.414-71.543L92.9652-71.543 73.2382-34.9625C69.5495-28.0897 65.6917-22.6559 61.6648-18.6612 57.6378-14.6664 52.5436-11.4776 46.3819-9.09477L66.9759-8.68774 55.4481 1.34277ZM93.417 0.644531 103.566-17.3579 117.585-43.3968C118.992-45.9894 120.011-48.2114 120.64-50.0628 121.442-52.4233 121.127-53.6035 119.695-53.6035 116.259-53.6035 109.102-49.5604 98.2242-41.4741L101.425-47.8212C113.213-57.1188 122.305-61.7676 128.7-61.7676 134.608-61.7676 136.437-58.4576 134.187-51.8378 133.29-49.1959 131.946-46.225 130.156-42.9251L123.657-31.2824 122.549-31.2824C129.608-39.94 137.115-47.1852 145.072-53.0181 153.028-58.8511 159.566-61.7676 164.686-61.7676 167.38-61.7676 169.718-60.9566 171.701-59.3346L159.931-48.2349C157.877-49.6297 156.232-50.3271 154.997-50.3271 148.459-50.3271 136.117-40.3126 117.973-20.2834L107.045-0.0486755ZM203.093-29.165 203.939-29.165C197.083-20.4823 189.744-13.227 181.923-7.3991 174.101-1.57118 167.541 1.34277 162.242 1.34277 153.977 1.34277 151.573-3.74186 155.029-13.9111 158.658-24.5901 166.434-35.019 178.358-45.1978 190.783-55.8146 203.358-61.123 216.084-61.123 221.106-61.123 226.748-60.8688 233.012-60.3602L223.163-43.0191 209.08-16.7545C206.908-12.7183 205.62-10.1055 205.216-8.91601 204.693-7.3763 205.111-6.60644 206.472-6.60644 209.737-6.60644 216.787-10.5452 227.621-18.4228L224.336-11.86C213.127-3.05817 204.236 1.34277 197.662 1.34277 191.744 1.34277 189.826-1.71875 191.907-7.8418 192.542-9.71105 194.037-12.8218 196.391-17.1741ZM214.861-51.0841C211.485-52.7995 207.678-53.6572 203.441-53.6572 197.405-53.6572 191.2-49.7408 184.827-41.908 177.078-32.3435 171.906-23.7453 169.312-16.1133 167.645-11.2077 168.081-8.75488 170.621-8.75488 173.381-8.75488 178.653-11.9083 186.435-18.2151 194.218-24.522 201.63-31.7451 208.673-39.8846ZM269.749-18.4228 266.464-11.8609C255.269-3.05845 246.391 1.34277 239.828 1.34277 233.956 1.34277 232.06-1.71875 234.142-7.8418 234.788-9.74518 236.251-12.8201 238.528-17.0666L248.776-36.1114C251.419-41.1059 253.027-44.448 253.601-46.1377 254.38-48.4294 253.963-49.5752 252.352-49.5752 250.876-49.5752 247.429-48.9665 242.01-47.749L244.545-52.9095 275.886-61.7676 265.384-43.0946 251.207-16.7545C249.035-12.7183 247.76-10.1413 247.38-9.02344 246.832-7.41211 247.238-6.60644 248.599-6.60644 251.83-6.60644 258.879-10.5452 269.749-18.4228ZM265.011-68.9648 271.923-78.0604 292.53-88.3008 283.657-76.5683ZM269.177 0.644531 279.332-17.3746 293.505-43.7073C295.697-47.7692 296.993-50.3876 297.393-51.5625 297.904-53.0664 297.462-53.8184 296.065-53.8184 292.905-53.8184 285.874-49.8832 274.973-42.0129L278.235-48.5379C289.383-57.3577 298.25-61.7676 304.836-61.7676 310.744-61.7676 312.664-58.724 310.595-52.6367 309.966-50.7865 308.483-47.6701 306.147-43.2877L299.481-31.3135 298.481-31.3135C305.813-40.1674 313.35-47.4565 321.094-53.181 328.837-58.9054 335.288-61.7676 340.446-61.7676 347.071-61.7676 349.154-58.151 346.695-50.918 345.968-48.7774 344.751-46.1265 343.045-42.9654L328.927-16.7545C326.755-12.7183 325.467-10.1055 325.063-8.91601 324.54-7.3763 324.958-6.60644 326.319-6.60644 329.585-6.60644 336.651-10.5408 347.518-18.4094L344.176-11.85C333.023-3.05481 324.147 1.34277 317.548 1.34277 311.676 1.34277 309.779-1.71595 311.858-7.8334 312.492-9.70042 313.984-12.8081 316.332-17.1564L330.63-43.7308C331.626-45.5402 332.345-47.0958 332.787-48.3977 333.529-50.5792 333.183-51.6699 331.751-51.6699 325.357-51.6699 312.62-41.0718 293.54-19.8756L282.747-0.0495148ZM389.488-18.4228 386.203-11.8609C375.009-3.05845 366.13 1.34277 359.568 1.34277 353.695 1.34277 351.8-1.71875 353.881-7.8418 354.528-9.74518 355.99-12.8201 358.268-17.0666L368.516-36.1114C371.158-41.1059 372.766-44.448 373.341-46.1377 374.119-48.4294 373.703-49.5752 372.092-49.5752 370.616-49.5752 367.169-48.9665 361.75-47.749L364.284-52.9095 395.626-61.7676 385.123-43.0946 370.947-16.7545C368.775-12.7183 367.499-10.1413 367.119-9.02344 366.572-7.41211 366.978-6.60644 368.339-6.60644 371.569-6.60644 378.619-10.5452 389.488-18.4228ZM384.751-68.9648 391.663-78.0604 412.269-88.3008 403.397-76.5683ZM388.917 0.644531 399.071-17.3746 413.244-43.7073C415.437-47.7692 416.733-50.3876 417.133-51.5625 417.644-53.0664 417.201-53.8184 415.805-53.8184 412.644-53.8184 405.614-49.8832 394.712-42.0129L397.975-48.5379C409.122-57.3577 417.989-61.7676 424.576-61.7676 430.484-61.7676 432.404-58.724 430.335-52.6367 429.706-50.7865 428.223-47.6701 425.887-43.2877L419.221-31.3135 418.22-31.3135C425.552-40.1674 433.09-47.4565 440.833-53.181 448.577-58.9054 455.028-61.7676 460.186-61.7676 466.81-61.7676 468.893-58.151 466.435-50.918 465.708-48.7774 464.491-46.1265 462.784-42.9654L448.667-16.7545C446.495-12.7183 445.207-10.1055 444.803-8.91601 444.279-7.3763 444.698-6.60644 446.058-6.60644 449.325-6.60644 456.391-10.5408 467.257-18.4094L463.916-11.85C452.763-3.05481 443.887 1.34277 437.288 1.34277 431.415 1.34277 429.519-1.71595 431.598-7.8334 432.232-9.70042 433.723-12.8081 436.072-17.1564L450.37-43.7308C451.365-45.5402 452.084-47.0958 452.526-48.3977 453.268-50.5792 452.923-51.6699 451.491-51.6699 445.097-51.6699 432.36-41.0718 413.28-19.8756L402.487-0.0495148ZM470.511-1.85387C466.809-3.60227 466.136-7.94362 468.492-14.8779 472.184-25.7426 480.123-36.2129 492.309-46.2888 504.236-56.1783 516.557-61.123 529.272-61.123 531.472-61.123 536.759-60.8774 545.134-60.3862L535.353-43.0627 528.716-30.8267C525.271-24.4144 522.762-19.5972 521.19-16.3751 514.87-3.59919 509.837 5.30633 506.094 10.3415 502.35 15.3766 497.061 20.3206 490.228 25.1736 480.21 32.2389 470.217 35.7715 460.248 35.7715 453.728 35.7715 448.817 34.4676 445.516 31.8598 442.215 29.252 441.302 25.7757 442.779 21.4307 445.597 13.1396 454.841 5.37809 470.511-1.85387ZM526.888-50.9482C523.733-52.7542 520.119-53.6572 516.046-53.6572 511.663-53.6572 507.25-51.661 502.807-47.6685 499.16-44.4016 495.2-39.5501 490.925-33.114 486.651-26.678 483.737-21.1722 482.182-16.5967 480.709-12.264 481.19-10.0977 483.625-10.0977 490.264-10.0977 502.67-20.0521 520.842-39.9609ZM515.242-29.165 516.198-29.165C509.781-21.0497 502.962-14.3667 495.743-9.11617 488.525-3.86565 481.805-0.786921 475.585 0.12001 464.578 6.2783 458.193 11.9496 456.432 17.1338 455.331 20.3732 455.999 23.1614 458.437 25.4984 460.875 27.8354 464.466 29.0039 469.209 29.0039 475.253 29.0039 480.858 26.6156 486.025 21.8389 491.193 17.0623 496.352 9.37424 501.503-1.22528Z" fill="#E46C0A" transform="matrix(1 0 0 1 114.359 283)"/><path d="M75.3615-5.1873C61.8532-0.404231 50.723 1.9873 41.9709 1.9873 32.426 1.9873 25.9267-0.713348 22.473-6.11465 19.0193-11.516 18.9432-19.0741 22.2447-28.7891 27.4133-43.9976 36.7956-56.9486 50.3918-67.6418 63.9879-78.335 77.8683-83.6816 92.0328-83.6816 100.401-83.6816 108.063-82.5204 115.019-80.198L104.538-63.6365 99.2385-63.6365C100.444-66.1285 101.213-67.8663 101.547-68.8499 102.463-71.5444 101.653-73.7858 99.1168-75.5742 96.5807-77.3626 92.6916-78.2568 87.4498-78.2568 79.6063-78.2568 71.5086-74.7251 63.1565-67.6615 57.5778-62.9478 52.322-57.0653 47.389-50.0141 42.456-42.9629 38.9192-36.2876 36.7786-29.9883 34.2374-22.5113 34.1788-16.6645 36.6027-12.4479 39.0267-8.23134 43.615-6.12305 50.3674-6.12305 58.1645-6.12305 67.6724-8.12853 78.8913-12.1395ZM102.901 1.34277C97.8725 1.34277 94.3584-0.603129 92.3587-4.49493 90.3591-8.38674 90.3368-13.2084 92.2916-18.96 95.8874-29.5416 103.214-39.3216 114.27-48.3 125.327-57.2784 135.615-61.7676 145.136-61.7676 150.443-61.7676 154.166-59.8601 156.302-56.0453 158.439-52.2304 158.522-47.424 156.552-41.626 152.825-30.6589 145.453-20.7556 134.437-11.9163 123.42-3.07691 112.908 1.34277 102.901 1.34277ZM111.343-5.47852C116.227-5.47852 121.724-8.76174 127.834-15.3282 133.943-21.8946 138.496-29.5863 141.492-38.4033 145.277-49.5394 143.911-55.1074 137.394-55.1074 132.717-55.1074 127.256-51.7214 121.008-44.9493 114.761-38.1773 110.172-30.481 107.242-21.8603 103.531-10.9391 104.898-5.47852 111.343-5.47852ZM205.923-29.165 206.79-29.165C189.718-8.8265 176.117 1.34277 165.985 1.34277 159.546 1.34277 157.597-2.39909 160.141-9.88281 160.825-11.8942 161.961-14.3783 163.55-17.3352L177.722-43.7073C179.915-47.7692 181.211-50.3876 181.61-51.5625 182.121-53.0664 181.679-53.8184 180.282-53.8184 177.121-53.8184 170.095-49.8975 159.204-42.0557L162.457-48.5656C173.628-57.3669 182.507-61.7676 189.093-61.7676 195.046-61.7676 196.988-58.724 194.92-52.6367 194.301-50.8178 192.798-47.7015 190.409-43.2877L176.125-16.8619C174.916-14.6161 174.147-13.0059 173.815-12.0312 173.073-9.847 173.381-8.75488 174.74-8.75488 177.08-8.75488 181.994-11.9297 189.483-18.2793 196.972-24.629 204.402-32.0375 211.773-40.5048L222.558-60.4147 236.207-61.123 226.028-43.0871 211.855-16.7545C209.696-12.7541 208.408-10.1413 207.991-8.91601 207.468-7.3763 207.886-6.60644 209.247-6.60644 212.477-6.60644 219.527-10.5452 230.396-18.4228L227.111-11.86C215.902-3.05817 207.011 1.34277 200.437 1.34277 194.519 1.34277 192.601-1.71875 194.682-7.8418 195.329-9.74685 196.824-12.8576 199.166-17.1741ZM230.917 0.644531 241.066-17.3579 255.085-43.3968C256.492-45.9894 257.511-48.2114 258.14-50.0628 258.942-52.4233 258.627-53.6035 257.195-53.6035 253.759-53.6035 246.602-49.5604 235.724-41.4741L238.925-47.8212C250.713-57.1188 259.805-61.7676 266.2-61.7676 272.108-61.7676 273.937-58.4576 271.687-51.8378 270.79-49.1959 269.446-46.225 267.656-42.9251L261.157-31.2824 260.049-31.2824C267.108-39.94 274.615-47.1852 282.572-53.0181 290.528-58.8511 297.066-61.7676 302.186-61.7676 304.88-61.7676 307.218-60.9566 309.201-59.3346L297.431-48.2349C295.377-49.6297 293.732-50.3271 292.497-50.3271 285.959-50.3271 273.617-40.3126 255.473-20.2834L244.545-0.0486755ZM282.412-2.4749 293.439-11.2256C297.238-7.82389 301.431-6.12305 306.018-6.12305 308.753-6.12305 311.25-6.80926 313.511-8.18169 315.771-9.55411 317.232-11.2133 317.893-13.1592 318.656-15.4038 317.819-18.631 315.382-22.8406L312.32-28.2117C309.222-33.6359 308.32-38.2506 309.613-42.0557 311.383-47.2634 315.367-51.8506 321.566-55.8174 327.764-59.7842 333.962-61.7676 340.16-61.7676 343.52-61.7676 347.274-60.9613 351.423-59.3489L344.218-45.708 338.784-45.708 339.612-47.6718C339.831-48.1054 339.998-48.4892 340.111-48.8232 341.511-52.9411 339.461-55 333.964-55 327.753-55 323.819-52.5651 322.164-47.6953 321.286-45.111 322.065-41.5862 324.502-37.121L327.245-32.2333C330.329-26.6009 331.239-21.9258 329.975-18.208 328.224-13.054 324.015-8.50703 317.347-4.56711 310.68-0.627187 303.973 1.34277 297.227 1.34277 292.527 1.34277 287.588 0.0702158 282.412-2.4749ZM393.489-16.8652 390.585-11.03C375.966-2.7815 364.523 1.34277 356.256 1.34277 350.843 1.34277 347.097-0.546061 345.018-4.32373 342.939-8.1014 342.908-12.9566 344.923-18.8895 348.446-29.2551 355.718-38.9929 366.74-48.1028 377.761-57.2126 387.826-61.7676 396.932-61.7676 400.456-61.7676 402.903-60.5817 404.274-58.2101 405.645-55.8384 405.702-52.8046 404.446-49.1086 401.991-41.8817 396.259-35.7126 387.252-30.6014 378.245-25.4902 369.109-22.9346 359.846-22.9346L359.634-22.3479C356.153-12.1043 357.868-6.98242 364.779-6.98242 371.183-6.98242 380.753-10.2767 393.489-16.8652ZM361.838-28.3594C369.034-28.9754 375.345-30.945 380.769-34.2684 386.193-37.5918 389.788-41.8526 391.555-47.0508 393.173-51.8131 392.353-54.1943 389.095-54.1943 385.197-54.1943 380.392-51.4537 374.68-45.9724 368.968-40.4911 364.688-34.6201 361.838-28.3594Z" fill="#E46C0A" transform="matrix(1 0 0 1 181.116 415)"/></g></g><path d="M193 88.0903C193 69.815 207.815 55 226.09 55L1121.91 55C1140.18 55 1155 69.815 1155 88.0903L1155 599.909C1155 618.185 1140.18 633 1121.91 633L226.09 633C207.815 633 193 618.185 193 599.909Z" fill="url(#fill4)" fill-rule="evenodd"/><text fill="#E46C0A" font-family="Lucida Calligraphy,Lucida Calligraphy_MSFontService,sans-serif" font-style="oblique" font-weight="700" font-size="110" transform="matrix(1 0 0 1 385.286 244)">Air Force </text><text fill="#E46C0A" font-family="Lucida Calligraphy,Lucida Calligraphy_MSFontService,sans-serif" font-style="oblique" font-weight="700" font-size="110" transform="matrix(1 0 0 1 413.359 376)">Training </text><text fill="#E46C0A" font-family="Lucida Calligraphy,Lucida Calligraphy_MSFontService,sans-serif" font-style="oblique" font-weight="700" font-size="110" transform="matrix(1 0 0 1 480.116 508)">Course</text></g></svg>